<svg xmlns="http://www.w3.org/2000/svg" xmlns:xlink="http://www.w3.org/1999/xlink" version="1.1" class="marks" width="270" height="219" viewBox="0 0 270 219"><rect width="270" height="219" fill="white"/><g fill="none" stroke-miterlimit="10" transform="translate(56,57)"><g class="mark-group role-frame root" role="graphics-object" aria-roledescription="group mark container"><g transform="translate(0,0)"><path class="background" aria-hidden="true" d="M0,0h0v0h0Z"/><g><g class="mark-group role-column-title facet-title" role="graphics-object" aria-roledescription="group mark container"><g transform="translate(60,-22)"><path class="background" aria-hidden="true" d="M0,0h0v0h0Z"/><g><g class="mark-group role-title"><g transform="translate(0,-30)"><path class="background" aria-hidden="true" d="M0,0h0v0h0Z" pointer-events="none"/><g><g class="mark-text role-title-text" role="graphics-symbol" aria-roledescription="title" aria-label="Title text 'serum'" pointer-events="none"><text text-anchor="middle" transform="translate(0,16)" font-family="sans-serif" font-size="20px" font-weight="bold" fill="#000" opacity="1">serum</text></g></g><path class="foreground" aria-hidden="true" d="" pointer-events="none" display="none"/></g></g></g><path class="foreground" aria-hidden="true" d="" display="none"/></g></g><g class="mark-group role-row-header row_header" role="graphics-object" aria-roledescription="group mark container"><g transform="translate(-2,0)"><path class="background" aria-hidden="true" d="M0,0h0v120h0Z"/><g><g class="mark-group role-axis" role="graphics-symbol" aria-roledescription="axis" aria-label="Y-axis titled 'escape score' for a linear scale with values from −1.0 to 1.0"><g transform="translate(0.5,0.5)"><path class="background" aria-hidden="true" d="M0,0h0v0h0Z" pointer-events="none"/><g><g class="mark-rule role-axis-tick" pointer-events="none"><line transform="translate(0,120)" x2="-5" y2="0" stroke="#888" stroke-width="1" opacity="1"/><line transform="translate(0,90)" x2="-5" y2="0" stroke="#888" stroke-width="1" opacity="1"/><line transform="translate(0,60)" x2="-5" y2="0" stroke="#888" stroke-width="1" opacity="1"/><line transform="translate(0,30)" x2="-5" y2="0" stroke="#888" stroke-width="1" opacity="1"/><line transform="translate(0,0)" x2="-5" y2="0" stroke="#888" stroke-width="1" opacity="1"/></g><g class="mark-text role-axis-label" pointer-events="none"><text text-anchor="end" transform="translate(-7,124)" font-family="sans-serif" font-size="14px" fill="#000" opacity="1">−1.0</text><text text-anchor="end" transform="translate(-7,94)" font-family="sans-serif" font-size="14px" fill="#000" opacity="1">−0.5</text><text text-anchor="end" transform="translate(-7,64)" font-family="sans-serif" font-size="14px" fill="#000" opacity="1">0.0</text><text text-anchor="end" transform="translate(-7,34)" font-family="sans-serif" font-size="14px" fill="#000" opacity="1">0.5</text><text text-anchor="end" transform="translate(-7,4)" font-family="sans-serif" font-size="14px" fill="#000" opacity="1">1.0</text></g><g class="mark-rule role-axis-domain" pointer-events="none"><line transform="translate(0,120)" x2="0" y2="-120" stroke="#888" stroke-width="1" opacity="1"/></g><g class="mark-text role-axis-title" pointer-events="none"><text text-anchor="middle" transform="translate(-38.6376953125,60) rotate(-90) translate(0,-2)" font-family="sans-serif" font-size="10px" font-weight="bold" fill="#000" opacity="1">escape score</text></g></g><path class="foreground" aria-hidden="true" d="" pointer-events="none" display="none"/></g></g></g><path class="foreground" aria-hidden="true" d="" display="none"/></g></g><g class="mark-group role-column-footer column_footer" role="graphics-object" aria-roledescription="group mark container"><g transform="translate(0,122)"><path class="background" aria-hidden="true" d="M0,0h120v0h-120Z"/><g><g class="mark-group role-axis" role="graphics-symbol" aria-roledescription="axis" aria-label="X-axis titled 'log2_fold_change_ic50' for a linear scale with values from −4 to 4"><g transform="translate(0.5,0.5)"><path class="background" aria-hidden="true" d="M0,0h0v0h0Z" pointer-events="none"/><g><g class="mark-rule role-axis-tick" pointer-events="none"><line transform="translate(0,0)" x2="0" y2="5" stroke="#888" stroke-width="1" opacity="1"/><line transform="translate(30,0)" x2="0" y2="5" stroke="#888" stroke-width="1" opacity="1"/><line transform="translate(60,0)" x2="0" y2="5" stroke="#888" stroke-width="1" opacity="1"/><line transform="translate(90,0)" x2="0" y2="5" stroke="#888" stroke-width="1" opacity="1"/><line transform="translate(120,0)" x2="0" y2="5" stroke="#888" stroke-width="1" opacity="1"/></g><g class="mark-text role-axis-label" pointer-events="none"><text text-anchor="start" transform="translate(0,18)" font-family="sans-serif" font-size="14px" fill="#000" opacity="1">−4</text><text text-anchor="middle" transform="translate(30,18)" font-family="sans-serif" font-size="14px" fill="#000" opacity="1">−2</text><text text-anchor="middle" transform="translate(60,18)" font-family="sans-serif" font-size="14px" fill="#000" opacity="1">0</text><text text-anchor="middle" transform="translate(90,18)" font-family="sans-serif" font-size="14px" fill="#000" opacity="1">2</text><text text-anchor="end" transform="translate(120,18)" font-family="sans-serif" font-size="14px" fill="#000" opacity="1">4</text></g><g class="mark-rule role-axis-domain" pointer-events="none"><line transform="translate(0,0)" x2="120" y2="0" stroke="#888" stroke-width="1" opacity="1"/></g><g class="mark-text role-axis-title" pointer-events="none"><text text-anchor="middle" transform="translate(60,33)" font-family="sans-serif" font-size="10px" font-weight="bold" fill="#000" opacity="1">log2_fold_change_ic50</text></g></g><path class="foreground" aria-hidden="true" d="" pointer-events="none" display="none"/></g></g></g><path class="foreground" aria-hidden="true" d="" display="none"/></g></g><g class="mark-group role-scope cell" role="graphics-object" aria-roledescription="group mark container"><g transform="translate(0,0)"><path class="background" aria-hidden="true" d="M0.5,0.5h120v120h-120Z" stroke="#ddd"/><g><g class="mark-symbol role-mark child_layer_0_marks" role="graphics-object" aria-roledescription="symbol mark container"><path aria-label="log2_fold_change_ic50: −1.05687454465; escape score: −0.2564; variant: Y159N; cohort: 40-45 years; serum: 197C; escape: −0.2564" role="graphics-symbol" aria-roledescription="point" transform="translate(44.14688183025304,75.384)" d="M5,0A5,5,0,1,1,-5,0A5,5,0,1,1,5,0" fill="#CC6677" stroke-width="2" opacity="0.7"/><path aria-label="log2_fold_change_ic50: −2.01823076715; escape score: −0.5361; variant: T160K; cohort: 40-45 years; serum: 197C; escape: −0.5361" role="graphics-symbol" aria-roledescription="point" transform="translate(29.726538492774207,92.166)" d="M5,0A5,5,0,1,1,-5,0A5,5,0,1,1,5,0" fill="#882255" stroke-width="2" opacity="0.7"/><path aria-label="log2_fold_change_ic50: 0.687892506974; escape score: 0.5359; variant: K189E; cohort: 40-45 years; serum: 197C; escape: 0.5359" role="graphics-symbol" aria-roledescription="point" transform="translate(70.31838760461366,27.845999999999997)" d="M5,0A5,5,0,1,1,-5,0A5,5,0,1,1,5,0" fill="#88CCEE" stroke-width="2" opacity="0.7"/><path aria-label="log2_fold_change_ic50: 1.05948662415; escape score: 0.5683; variant: S193D; cohort: 40-45 years; serum: 197C; escape: 0.5683" role="graphics-symbol" aria-roledescription="point" transform="translate(75.89229936226778,25.901999999999997)" d="M5,0A5,5,0,1,1,-5,0A5,5,0,1,1,5,0" fill="#332288" stroke-width="2" opacity="0.7"/><path aria-label="log2_fold_change_ic50: 1.89775890473; escape score: 1.0194; variant: S145K; cohort: 40-45 years; serum: 197C; escape: 1.0194" role="graphics-symbol" aria-roledescription="point" transform="translate(88.46638357095799,0)" d="M5,0A5,5,0,1,1,-5,0A5,5,0,1,1,5,0" fill="#44AA99" stroke-width="2" opacity="0.7"/><path aria-label="log2_fold_change_ic50: 0; escape score: 0; variant: WT; cohort: 40-45 years; serum: 197C; escape: 0" role="graphics-symbol" aria-roledescription="point" transform="translate(60,60)" d="M5,0A5,5,0,1,1,-5,0A5,5,0,1,1,5,0" fill="#333333" stroke-width="2" opacity="0.7"/></g><g class="mark-text role-mark child_layer_1_marks" role="graphics-object" aria-roledescription="text mark container"><text aria-label="r: 0.984" role="graphics-symbol" aria-roledescription="text mark" text-anchor="end" transform="translate(115,112)" font-family="sans-serif" font-size="12px" font-weight="300" fill="black">0.984</text><text aria-label="r: 0.984" role="graphics-symbol" aria-roledescription="text mark" text-anchor="end" transform="translate(115,112)" font-family="sans-serif" font-size="12px" font-weight="300" fill="black">0.984</text><text aria-label="r: 0.984" role="graphics-symbol" aria-roledescription="text mark" text-anchor="end" transform="translate(115,112)" font-family="sans-serif" font-size="12px" font-weight="300" fill="black">0.984</text><text aria-label="r: 0.984" role="graphics-symbol" aria-roledescription="text mark" text-anchor="end" transform="translate(115,112)" font-family="sans-serif" font-size="12px" font-weight="300" fill="black">0.984</text><text aria-label="r: 0.984" role="graphics-symbol" aria-roledescription="text mark" text-anchor="end" transform="translate(115,112)" font-family="sans-serif" font-size="12px" font-weight="300" fill="black">0.984</text><text aria-label="r: 0.984" role="graphics-symbol" aria-roledescription="text mark" text-anchor="end" transform="translate(115,112)" font-family="sans-serif" font-size="12px" font-weight="300" fill="black">0.984</text></g><g class="mark-rule role-mark child_layer_2_marks" role="graphics-object" aria-roledescription="rule mark container"><line aria-label="y: 0" role="graphics-symbol" aria-roledescription="rule mark" transform="translate(120,60)" x2="-120" y2="0" stroke="gray" stroke-width="1" opacity="0.5"/></g><g class="mark-rule role-mark child_layer_3_marks" role="graphics-object" aria-roledescription="rule mark container"><line aria-label="x: 0" role="graphics-symbol" aria-roledescription="rule mark" transform="translate(60,0)" x2="0" y2="120" stroke="gray" stroke-width="1" opacity="0.5"/></g><g class="mark-group role-title"><g transform="translate(60,-21)"><path class="background" aria-hidden="true" d="M0,0h0v0h0Z" pointer-events="none"/><g><g class="mark-text role-title-text" role="graphics-symbol" aria-roledescription="title" aria-label="Title text '197C'" pointer-events="none"><text text-anchor="middle" transform="translate(0,11)" font-family="sans-serif" font-size="14px" fill="#000" opacity="1">197C</text></g></g><path class="foreground" aria-hidden="true" d="" pointer-events="none" display="none"/></g></g></g><path class="foreground" aria-hidden="true" d="" display="none"/></g></g><g class="mark-group role-legend" role="graphics-symbol" aria-roledescription="legend" aria-label="Symbol legend titled 'variant' for fill color with 6 values: WT, S145K, Y159N, T160K, K189E, S193D"><g transform="translate(140,0)"><path class="background" aria-hidden="true" d="M0,0h47v92h-47Z" pointer-events="none"/><g><g class="mark-group role-legend-entry"><g transform="translate(0,16)"><path class="background" aria-hidden="true" d="M0,0h0v0h0Z" pointer-events="none"/><g><g class="mark-group role-scope" role="graphics-object" aria-roledescription="group mark container"><g transform="translate(0,0)"><path class="background" aria-hidden="true" d="M0,0h46.576171875v11h-46.576171875Z" pointer-events="none" opacity="1"/><g><g class="mark-symbol role-legend-symbol" pointer-events="none"><path transform="translate(6,6)" d="M5,0A5,5,0,1,1,-5,0A5,5,0,1,1,5,0" fill="#333333" stroke-width="1.5" opacity="0.7"/></g><g class="mark-text role-legend-label" pointer-events="none"><text text-anchor="start" transform="translate(16,9)" font-family="sans-serif" font-size="10px" fill="#000" opacity="1">WT</text></g></g><path class="foreground" aria-hidden="true" d="" pointer-events="none" display="none"/></g><g transform="translate(0,13)"><path class="background" aria-hidden="true" d="M0,0h46.576171875v11h-46.576171875Z" pointer-events="none" opacity="1"/><g><g class="mark-symbol role-legend-symbol" pointer-events="none"><path transform="translate(6,6)" d="M5,0A5,5,0,1,1,-5,0A5,5,0,1,1,5,0" fill="#44AA99" stroke-width="1.5" opacity="0.7"/></g><g class="mark-text role-legend-label" pointer-events="none"><text text-anchor="start" transform="translate(16,9)" font-family="sans-serif" font-size="10px" fill="#000" opacity="1">S145K</text></g></g><path class="foreground" aria-hidden="true" d="" pointer-events="none" display="none"/></g><g transform="translate(0,26)"><path class="background" aria-hidden="true" d="M0,0h46.576171875v11h-46.576171875Z" pointer-events="none" opacity="1"/><g><g class="mark-symbol role-legend-symbol" pointer-events="none"><path transform="translate(6,6)" d="M5,0A5,5,0,1,1,-5,0A5,5,0,1,1,5,0" fill="#CC6677" stroke-width="1.5" opacity="0.7"/></g><g class="mark-text role-legend-label" pointer-events="none"><text text-anchor="start" transform="translate(16,9)" font-family="sans-serif" font-size="10px" fill="#000" opacity="1">Y159N</text></g></g><path class="foreground" aria-hidden="true" d="" pointer-events="none" display="none"/></g><g transform="translate(0,39)"><path class="background" aria-hidden="true" d="M0,0h46.576171875v11h-46.576171875Z" pointer-events="none" opacity="1"/><g><g class="mark-symbol role-legend-symbol" pointer-events="none"><path transform="translate(6,6)" d="M5,0A5,5,0,1,1,-5,0A5,5,0,1,1,5,0" fill="#882255" stroke-width="1.5" opacity="0.7"/></g><g class="mark-text role-legend-label" pointer-events="none"><text text-anchor="start" transform="translate(16,9)" font-family="sans-serif" font-size="10px" fill="#000" opacity="1">T160K</text></g></g><path class="foreground" aria-hidden="true" d="" pointer-events="none" display="none"/></g><g transform="translate(0,52)"><path class="background" aria-hidden="true" d="M0,0h46.576171875v11h-46.576171875Z" pointer-events="none" opacity="1"/><g><g class="mark-symbol role-legend-symbol" pointer-events="none"><path transform="translate(6,6)" d="M5,0A5,5,0,1,1,-5,0A5,5,0,1,1,5,0" fill="#88CCEE" stroke-width="1.5" opacity="0.7"/></g><g class="mark-text role-legend-label" pointer-events="none"><text text-anchor="start" transform="translate(16,9)" font-family="sans-serif" font-size="10px" fill="#000" opacity="1">K189E</text></g></g><path class="foreground" aria-hidden="true" d="" pointer-events="none" display="none"/></g><g transform="translate(0,65)"><path class="background" aria-hidden="true" d="M0,0h46.576171875v11h-46.576171875Z" pointer-events="none" opacity="1"/><g><g class="mark-symbol role-legend-symbol" pointer-events="none"><path transform="translate(6,6)" d="M5,0A5,5,0,1,1,-5,0A5,5,0,1,1,5,0" fill="#332288" stroke-width="1.5" opacity="0.7"/></g><g class="mark-text role-legend-label" pointer-events="none"><text text-anchor="start" transform="translate(16,9)" font-family="sans-serif" font-size="10px" fill="#000" opacity="1">S193D</text></g></g><path class="foreground" aria-hidden="true" d="" pointer-events="none" display="none"/></g></g></g><path class="foreground" aria-hidden="true" d="" pointer-events="none" display="none"/></g></g><g class="mark-text role-legend-title" pointer-events="none"><text text-anchor="start" transform="translate(0,9)" font-family="sans-serif" font-size="11px" font-weight="bold" fill="#000" opacity="1">variant</text></g></g><path class="foreground" aria-hidden="true" d="" pointer-events="none" display="none"/></g></g><g class="mark-group role-legend" role="graphics-symbol" aria-roledescription="legend" aria-label="Symbol legend titled 'cohort' for shape with 1 value: 40-45 years"><g transform="translate(140,100)"><path class="background" aria-hidden="true" d="M0,0h69v29h-69Z" pointer-events="none"/><g><g class="mark-group role-legend-entry"><g transform="translate(0,16)"><path class="background" aria-hidden="true" d="M0,0h0v0h0Z" pointer-events="none"/><g><g class="mark-group role-scope" role="graphics-object" aria-roledescription="group mark container"><g transform="translate(0,0)"><path class="background" aria-hidden="true" d="M0,0h68.8076171875v12.5h-68.8076171875Z" pointer-events="none" opacity="1"/><g><g class="mark-symbol role-legend-symbol" pointer-events="none"><path transform="translate(6,6)" d="M5,0A5,5,0,1,1,-5,0A5,5,0,1,1,5,0" fill="black" fill-opacity="0.7" stroke-width="1.5" opacity="0.7"/></g><g class="mark-text role-legend-label" pointer-events="none"><text text-anchor="start" transform="translate(16,9)" font-family="sans-serif" font-size="10px" fill="#000" opacity="1">40-45 years</text></g></g><path class="foreground" aria-hidden="true" d="" pointer-events="none" display="none"/></g></g></g><path class="foreground" aria-hidden="true" d="" pointer-events="none" display="none"/></g></g><g class="mark-text role-legend-title" pointer-events="none"><text text-anchor="start" transform="translate(0,9)" font-family="sans-serif" font-size="11px" font-weight="bold" fill="#000" opacity="1">cohort</text></g></g><path class="foreground" aria-hidden="true" d="" pointer-events="none" display="none"/></g></g></g><path class="foreground" aria-hidden="true" d="" display="none"/></g></g></g></svg>