<?xml version="1.0" encoding="utf-8"?>
<!-- Generator: Adobe Illustrator 27.7.0, SVG Export Plug-In . SVG Version: 6.00 Build 0)  -->
<svg version="1.1" id="Layer_1" xmlns="http://www.w3.org/2000/svg" xmlns:xlink="http://www.w3.org/1999/xlink" x="0px" y="0px"
	 viewBox="0 0 705 442" style="enable-background:new 0 0 705 442;" xml:space="preserve">
<style type="text/css">
	.st0{display:none;}
	.st1{fill:none;}
	.st2{fill:none;stroke:#888888;stroke-miterlimit:10;}
	.st3{font-family:'Helvetica';}
	.st4{font-size:14px;}
	.st5{fill:none;stroke:#DDDDDD;stroke-miterlimit:10;}
	.st6{opacity:0.7;fill:#882255;enable-background:new    ;}
	.st7{opacity:0.7;fill:#332288;enable-background:new    ;}
	.st8{opacity:0.7;fill:#88CCEE;enable-background:new    ;}
	.st9{opacity:0.7;fill:#CC6677;enable-background:new    ;}
	.st10{font-family:'Helvetica-Light';}
	.st11{font-size:12px;}
	.st12{opacity:0.7;fill:#117733;enable-background:new    ;}
	.st13{font-size:12.5083px;}
	.st14{font-family:'Helvetica-Bold';}
	.st15{font-size:13.7592px;}
	.st16{opacity:0.7;fill-opacity:0.7;enable-background:new    ;}
	.st17{font-size:17.3386px;}
</style>
<path pointer-events="none" class="st0" d="M310,5"/>
<path class="st0" d="M310,35"/>
<path pointer-events="none" class="st0" d="M39.5,51.5"/>
<path class="st0" d="M39,51"/>
<path pointer-events="none" class="st0" d="M39.5,171.5"/>
<path class="st0" d="M39,171"/>
<path pointer-events="none" class="st0" d="M39.5,291.5"/>
<path class="st0" d="M39,291"/>
<path pointer-events="none" class="st0" d="M40.5,397.5"/>
<path class="st0" d="M40,397"/>
<path pointer-events="none" class="st0" d="M150.5,397.5"/>
<path class="st0" d="M150,397"/>
<path pointer-events="none" class="st0" d="M260.5,397.5"/>
<path class="st0" d="M260,397"/>
<path pointer-events="none" class="st0" d="M370.5,397.5"/>
<path class="st0" d="M370,397"/>
<path pointer-events="none" class="st0" d="M480.5,397.5"/>
<path class="st0" d="M480,397"/>
<path pointer-events="none" class="st0" d="M90,40"/>
<path class="st0" d="M40,51"/>
<path pointer-events="none" class="st0" d="M200,40"/>
<path class="st0" d="M150,51"/>
<path pointer-events="none" class="st0" d="M310,40"/>
<path class="st0" d="M260,51"/>
<path pointer-events="none" class="st0" d="M420,38"/>
<path class="st0" d="M370,51"/>
<path pointer-events="none" class="st0" d="M530,36.9"/>
<path class="st0" d="M480,51"/>
<path pointer-events="none" class="st0" d="M90,159.4"/>
<path class="st0" d="M40,171"/>
<path pointer-events="none" class="st0" d="M200,160"/>
<path class="st0" d="M150,171"/>
<path pointer-events="none" class="st0" d="M310,160"/>
<path class="st0" d="M260,171"/>
<path pointer-events="none" class="st0" d="M420,160"/>
<path class="st0" d="M370,171"/>
<path pointer-events="none" class="st0" d="M530,160"/>
<path class="st0" d="M480,171"/>
<path pointer-events="none" class="st0" d="M90,280"/>
<path class="st0" d="M40,291"/>
<path pointer-events="none" class="st0" d="M200,280"/>
<path class="st0" d="M150,291"/>
<path pointer-events="none" class="st0" d="M310,280"/>
<path class="st0" d="M260,291"/>
<path pointer-events="none" class="st0" d="M631,67"/>
<path pointer-events="none" class="st0" d="M631,80"/>
<path pointer-events="none" class="st0" d="M631,93"/>
<path pointer-events="none" class="st0" d="M631,106"/>
<path pointer-events="none" class="st0" d="M631,119"/>
<path pointer-events="none" class="st0" d="M631,67"/>
<path pointer-events="none" class="st0" d="M631,51"/>
<path pointer-events="none" class="st0" d="M631,154"/>
<path pointer-events="none" class="st0" d="M631,170"/>
<path pointer-events="none" class="st0" d="M631,185"/>
<path pointer-events="none" class="st0" d="M631,154"/>
<path pointer-events="none" class="st0" d="M631,138"/>
<path class="st0" d="M40,51"/>
<g>
	<path pointer-events="none" class="st1" d="M326,5L326,5L326,5L326,5z"/>
	<g>
		<path class="st1" d="M56,51L56,51L56,51L56,51z"/>
		<path class="st1" d="M326,35L326,35L326,35L326,35z"/>
		<path class="st1" d="M55,51L55,51v100l0,0V51z"/>
		<path pointer-events="none" class="st1" d="M55.5,51.5L55.5,51.5L55.5,51.5L55.5,51.5z"/>
		<line class="st2" x1="55.5" y1="151.5" x2="50.5" y2="151.5"/>
		<line class="st2" x1="55.5" y1="107.5" x2="50.5" y2="107.5"/>
		<line class="st2" x1="55.5" y1="62.5" x2="50.5" y2="62.5"/>
		<text transform="matrix(1 0 0 1 40.7139 155.5)" class="st3 st4">0</text>
		<text transform="matrix(1 0 0 1 40.7139 111.0555)" class="st3 st4">2</text>
		<text transform="matrix(1 0 0 1 40.7139 66.6111)" class="st3 st4">4</text>
		<line class="st2" x1="55.5" y1="151.5" x2="55.5" y2="51.5"/>
		<path class="st1" d="M55,166L55,166v100l0,0V166z"/>
		<path pointer-events="none" class="st1" d="M55.5,166.5L55.5,166.5L55.5,166.5L55.5,166.5z"/>
		<line class="st2" x1="55.5" y1="266.5" x2="50.5" y2="266.5"/>
		<line class="st2" x1="55.5" y1="222.5" x2="50.5" y2="222.5"/>
		<line class="st2" x1="55.5" y1="177.5" x2="50.5" y2="177.5"/>
		<text transform="matrix(1 0 0 1 40.7139 270.5)" class="st3 st4">0</text>
		<text transform="matrix(1 0 0 1 40.7139 226.0555)" class="st3 st4">2</text>
		<text transform="matrix(1 0 0 1 40.7139 181.6111)" class="st3 st4">4</text>
		<line class="st2" x1="55.5" y1="266.5" x2="55.5" y2="166.5"/>
		<path class="st1" d="M55,281L55,281v100l0,0V281z"/>
		<path pointer-events="none" class="st1" d="M55.5,281.5L55.5,281.5L55.5,281.5L55.5,281.5z"/>
		<line class="st2" x1="55.5" y1="381.5" x2="50.5" y2="381.5"/>
		<line class="st2" x1="55.5" y1="337.5" x2="50.5" y2="337.5"/>
		<line class="st2" x1="55.5" y1="292.5" x2="50.5" y2="292.5"/>
		<text transform="matrix(1 0 0 1 40.7139 385.5)" class="st3 st4">0</text>
		<text transform="matrix(1 0 0 1 40.7139 341.0555)" class="st3 st4">2</text>
		<text transform="matrix(1 0 0 1 40.7139 296.6111)" class="st3 st4">4</text>
		<line class="st2" x1="55.5" y1="381.5" x2="55.5" y2="281.5"/>
		<path class="st1" d="M56,387h100l0,0H56z"/>
		<path pointer-events="none" class="st1" d="M56.5,387.5L56.5,387.5L56.5,387.5L56.5,387.5z"/>
		<line class="st2" x1="77.5" y1="387.5" x2="77.5" y2="392.5"/>
		<line class="st2" x1="106.5" y1="387.5" x2="106.5" y2="392.5"/>
		<line class="st2" x1="135.5" y1="387.5" x2="135.5" y2="392.5"/>
		<text transform="matrix(1 0 0 1 74.0355 405.5)" class="st3 st4">0</text>
		<text transform="matrix(1 0 0 1 102.6069 405.5)" class="st3 st4">2</text>
		<text transform="matrix(1 0 0 1 131.1784 405.5)" class="st3 st4">4</text>
		<line class="st2" x1="56.5" y1="387.5" x2="156.5" y2="387.5"/>
		<path class="st1" d="M166,387h100l0,0H166z"/>
		<path pointer-events="none" class="st1" d="M166.5,387.5L166.5,387.5L166.5,387.5L166.5,387.5z"/>
		<line class="st2" x1="187.5" y1="387.5" x2="187.5" y2="392.5"/>
		<line class="st2" x1="216.5" y1="387.5" x2="216.5" y2="392.5"/>
		<line class="st2" x1="245.5" y1="387.5" x2="245.5" y2="392.5"/>
		<text transform="matrix(1 0 0 1 184.0355 405.5)" class="st3 st4">0</text>
		<text transform="matrix(1 0 0 1 212.6069 405.5)" class="st3 st4">2</text>
		<text transform="matrix(1 0 0 1 241.1784 405.5)" class="st3 st4">4</text>
		<line class="st2" x1="166.5" y1="387.5" x2="266.5" y2="387.5"/>
		<path class="st1" d="M276,387h100l0,0H276z"/>
		<path pointer-events="none" class="st1" d="M276.5,387.5L276.5,387.5L276.5,387.5L276.5,387.5z"/>
		<line class="st2" x1="297.5" y1="387.5" x2="297.5" y2="392.5"/>
		<line class="st2" x1="326.5" y1="387.5" x2="326.5" y2="392.5"/>
		<line class="st2" x1="355.5" y1="387.5" x2="355.5" y2="392.5"/>
		<text transform="matrix(1 0 0 1 294.0355 405.5)" class="st3 st4">0</text>
		<text transform="matrix(1 0 0 1 322.6069 405.5)" class="st3 st4">2</text>
		<text transform="matrix(1 0 0 1 351.1783 405.5)" class="st3 st4">4</text>
		<line class="st2" x1="276.5" y1="387.5" x2="376.5" y2="387.5"/>
		<path class="st1" d="M386,387h100l0,0H386z"/>
		<path pointer-events="none" class="st1" d="M386.5,387.5L386.5,387.5L386.5,387.5L386.5,387.5z"/>
		<line class="st2" x1="407.5" y1="387.5" x2="407.5" y2="392.5"/>
		<line class="st2" x1="436.5" y1="387.5" x2="436.5" y2="392.5"/>
		<line class="st2" x1="465.5" y1="387.5" x2="465.5" y2="392.5"/>
		<text transform="matrix(1 0 0 1 404.0355 405.5)" class="st3 st4">0</text>
		<text transform="matrix(1 0 0 1 432.6069 405.5)" class="st3 st4">2</text>
		<text transform="matrix(1 0 0 1 461.1783 405.5)" class="st3 st4">4</text>
		<line class="st2" x1="386.5" y1="387.5" x2="486.5" y2="387.5"/>
		<path class="st1" d="M496,387h100l0,0H496z"/>
		<path pointer-events="none" class="st1" d="M496.5,387.5L496.5,387.5L496.5,387.5L496.5,387.5z"/>
		<line class="st2" x1="517.5" y1="387.5" x2="517.5" y2="392.5"/>
		<line class="st2" x1="546.5" y1="387.5" x2="546.5" y2="392.5"/>
		<line class="st2" x1="575.5" y1="387.5" x2="575.5" y2="392.5"/>
		<text transform="matrix(1 0 0 1 514.0355 405.5)" class="st3 st4">0</text>
		<text transform="matrix(1 0 0 1 542.6069 405.5)" class="st3 st4">2</text>
		<text transform="matrix(1 0 0 1 571.1783 405.5)" class="st3 st4">4</text>
		<line class="st2" x1="496.5" y1="387.5" x2="596.5" y2="387.5"/>
		<path class="st5" d="M56.5,51.5h100v100h-100V51.5z"/>
		<path class="st6" d="M81,151c0,2.8-2.2,5-5,5c-2.8,0-5-2.2-5-5s2.2-5,5-5C78.7,146,81,148.2,81,151"/>
		<path class="st7" d="M95.3,99.1c0,2.8-2.2,5-5,5c-2.8,0-5-2.2-5-5s2.2-5,5-5C93,94.1,95.3,96.3,95.3,99.1"/>
		<path class="st8" d="M91.1,119.8c0,2.8-2.2,5-5,5c-2.8,0-5-2.2-5-5s2.2-5,5-5C88.9,114.8,91.1,117.1,91.1,119.8"/>
		<path class="st9" d="M91.8,147.4c0,2.8-2.2,5-5,5c-2.8,0-5-2.2-5-5c0-2.8,2.2-5,5-5C89.5,142.4,91.8,144.7,91.8,147.4"/>
		<text transform="matrix(1 0 0 1 120.976 143)" class="st10 st11">0.738</text>
		<text transform="matrix(1 0 0 1 120.976 143)" class="st10 st11">0.738</text>
		<text transform="matrix(1 0 0 1 120.976 143)" class="st10 st11">0.738</text>
		<text transform="matrix(1 0 0 1 120.976 143)" class="st10 st11">0.738</text>
		<path pointer-events="none" class="st1" d="M106,40L106,40L106,40L106,40z"/>
		<path class="st5" d="M166.5,51.5h100v100h-100V51.5z"/>
		<path class="st6" d="M191.9,151c0,2.8-2.2,5-5,5s-5-2.2-5-5s2.2-5,5-5S191.9,148.2,191.9,151"/>
		<path class="st7" d="M211.9,66.7c0,2.8-2.2,5-5,5s-5-2.2-5-5c0-2.8,2.2-5,5-5S211.9,63.9,211.9,66.7"/>
		<path class="st8" d="M210.7,74.8c0,2.8-2.2,5-5,5c-2.8,0-5-2.2-5-5c0-2.8,2.2-5,5-5C208.5,69.8,210.7,72,210.7,74.8"/>
		<path class="st9" d="M214.6,97.7c0,2.8-2.2,5-5,5c-2.8,0-5-2.2-5-5s2.2-5,5-5C212.4,92.7,214.6,94.9,214.6,97.7"/>
		<path class="st12" d="M190.8,101.6c0,2.8-2.2,5-5,5c-2.8,0-5-2.2-5-5c0-2.8,2.2-5,5-5C188.6,96.6,190.8,98.8,190.8,101.6"/>
		<text transform="matrix(1 0 0 1 230.976 143)" class="st10 st11">0.716</text>
		<text transform="matrix(1 0 0 1 230.976 143)" class="st10 st11">0.716</text>
		<text transform="matrix(1 0 0 1 230.976 143)" class="st10 st11">0.716</text>
		<text transform="matrix(1 0 0 1 230.976 143)" class="st10 st11">0.716</text>
		<text transform="matrix(1 0 0 1 230.976 143)" class="st10 st11">0.716</text>
		<path pointer-events="none" class="st1" d="M216,40L216,40L216,40L216,40z"/>
		<path class="st5" d="M276.5,51.5h100v100h-100V51.5z"/>
		<path class="st6" d="M303.8,151c0,2.8-2.2,5-5,5s-5-2.2-5-5s2.2-5,5-5S303.8,148.2,303.8,151"/>
		<path class="st9" d="M379.2,73.9c0,2.8-2.2,5-5,5c-2.8,0-5-2.2-5-5c0-2.8,2.2-5,5-5C377,68.9,379.2,71.2,379.2,73.9"/>
		<path class="st8" d="M352.2,84c0,2.8-2.2,5-5,5c-2.8,0-5-2.2-5-5c0-2.8,2.2-5,5-5C350,79,352.2,81.2,352.2,84"/>
		<path class="st7" d="M319.1,110.9c0,2.8-2.2,5-5,5c-2.8,0-5-2.2-5-5s2.2-5,5-5C316.8,105.9,319.1,108.2,319.1,110.9"/>
		<path class="st12" d="M319.8,107.6c0,2.8-2.2,5-5,5c-2.8,0-5-2.2-5-5s2.2-5,5-5C317.6,102.6,319.8,104.9,319.8,107.6"/>
		<text transform="matrix(1 0 0 1 340.976 143)" class="st10 st11">0.909</text>
		<text transform="matrix(1 0 0 1 340.976 143)" class="st10 st11">0.909</text>
		<text transform="matrix(1 0 0 1 340.976 143)" class="st10 st11">0.909</text>
		<text transform="matrix(1 0 0 1 340.976 143)" class="st10 st11">0.909</text>
		<text transform="matrix(1 0 0 1 340.976 143)" class="st10 st11">0.909</text>
		<path pointer-events="none" class="st1" d="M326,40L326,40L326,40L326,40z"/>
		<path class="st5" d="M386.5,51.5h100v100h-100V51.5z"/>
		<path class="st6" d="M406.4,151c0,2.8-2.2,5-5,5s-5-2.2-5-5s2.2-5,5-5S406.4,148.2,406.4,151"/>
		<path class="st7" d="M457.5,54c0,2.8-2.2,5-5,5c-2.8,0-5-2.2-5-5s2.2-5,5-5C455.3,49,457.5,51.2,457.5,54"/>
		<path class="st8" d="M443.3,76.2c0,2.8-2.2,5-5,5s-5-2.2-5-5s2.2-5,5-5S443.3,73.5,443.3,76.2"/>
		<path class="st9" d="M456.1,94.1c0,2.8-2.2,5-5,5c-2.8,0-5-2.2-5-5s2.2-5,5-5C453.9,89.1,456.1,91.3,456.1,94.1"/>
		<text transform="matrix(1 0 0 1 450.976 143)" class="st10 st11">0.901</text>
		<text transform="matrix(1 0 0 1 450.976 143)" class="st10 st11">0.901</text>
		<text transform="matrix(1 0 0 1 450.976 143)" class="st10 st11">0.901</text>
		<text transform="matrix(1 0 0 1 450.976 143)" class="st10 st11">0.901</text>
		<path pointer-events="none" class="st1" d="M436,38L436,38L436,38L436,38z"/>
		<path class="st5" d="M496.5,51.5h100v100h-100V51.5z"/>
		<path class="st6" d="M515.8,151c0,2.8-2.2,5-5,5c-2.8,0-5-2.2-5-5s2.2-5,5-5C513.6,146,515.8,148.2,515.8,151"/>
		<path class="st9" d="M544.1,109.4c0,2.8-2.2,5-5,5c-2.8,0-5-2.2-5-5c0-2.8,2.2-5,5-5C541.8,104.4,544.1,106.6,544.1,109.4"/>
		<path class="st7" d="M549.5,52.9c0,2.8-2.2,5-5,5c-2.8,0-5-2.2-5-5s2.2-5,5-5C547.2,47.9,549.5,50.1,549.5,52.9"/>
		<path class="st8" d="M535.7,88.6c0,2.8-2.2,5-5,5s-5-2.2-5-5s2.2-5,5-5S535.7,85.8,535.7,88.6"/>
		<text transform="matrix(1 0 0 1 560.976 143)" class="st10 st11">0.874</text>
		<text transform="matrix(1 0 0 1 560.976 143)" class="st10 st11">0.874</text>
		<text transform="matrix(1 0 0 1 560.976 143)" class="st10 st11">0.874</text>
		<text transform="matrix(1 0 0 1 560.976 143)" class="st10 st11">0.874</text>
		<path pointer-events="none" class="st1" d="M546,36.9L546,36.9L546,36.9L546,36.9z"/>
		<path class="st5" d="M56.5,166.5h100v100h-100V166.5z"/>
		<path class="st6" d="M89.9,266c0,2.8-2.2,5-5,5c-2.8,0-5-2.2-5-5s2.2-5,5-5C87.6,261,89.9,263.2,89.9,266"/>
		<path class="st9" d="M133.1,185.6c0,2.8-2.2,5-5,5c-2.8,0-5-2.2-5-5c0-2.8,2.2-5,5-5C130.9,180.6,133.1,182.8,133.1,185.6"/>
		<path class="st7" d="M97.3,266c0,2.8-2.2,5-5,5c-2.8,0-5-2.2-5-5s2.2-5,5-5C95,261,97.3,263.2,97.3,266"/>
		<path class="st8" d="M86.9,170.4c0,2.8-2.2,5-5,5s-5-2.2-5-5c0-2.8,2.2-5,5-5S86.9,167.6,86.9,170.4"/>
		<text transform="matrix(1 0 0 1 120.976 258)" class="st10 st11">0.334</text>
		<text transform="matrix(1 0 0 1 120.976 258)" class="st10 st11">0.334</text>
		<text transform="matrix(1 0 0 1 120.976 258)" class="st10 st11">0.334</text>
		<text transform="matrix(1 0 0 1 120.976 258)" class="st10 st11">0.334</text>
		<path pointer-events="none" class="st1" d="M106,159.4L106,159.4L106,159.4L106,159.4z"/>
		<path class="st5" d="M166.5,166.5h100v100h-100V166.5z"/>
		<path class="st6" d="M188.8,266c0,2.8-2.2,5-5,5c-2.8,0-5-2.2-5-5s2.2-5,5-5C186.5,261,188.8,263.2,188.8,266"/>
		<path class="st9" d="M224,214.4c0,2.8-2.2,5-5,5c-2.8,0-5-2.2-5-5s2.2-5,5-5C221.8,209.4,224,211.6,224,214.4"/>
		<path class="st7" d="M198.9,241.4c0,2.8-2.2,5-5,5c-2.8,0-5-2.2-5-5s2.2-5,5-5C196.7,236.4,198.9,238.7,198.9,241.4"/>
		<path class="st8" d="M195.4,260.3c0,2.8-2.2,5-5,5s-5-2.2-5-5c0-2.8,2.2-5,5-5S195.4,257.6,195.4,260.3"/>
		<text transform="matrix(1 0 0 1 230.976 258)" class="st10 st11">0.968</text>
		<text transform="matrix(1 0 0 1 230.976 258)" class="st10 st11">0.968</text>
		<text transform="matrix(1 0 0 1 230.976 258)" class="st10 st11">0.968</text>
		<text transform="matrix(1 0 0 1 230.976 258)" class="st10 st11">0.968</text>
		<path pointer-events="none" class="st1" d="M216,160L216,160L216,160L216,160z"/>
		<path class="st5" d="M276.5,166.5h100v100h-100V166.5z"/>
		<path class="st6" d="M299.4,266c0,2.8-2.2,5-5,5c-2.8,0-5-2.2-5-5s2.2-5,5-5C297.2,261,299.4,263.2,299.4,266"/>
		<path class="st9" d="M374,196.5c0,2.8-2.2,5-5,5c-2.8,0-5-2.2-5-5s2.2-5,5-5C371.8,191.5,374,193.7,374,196.5"/>
		<path class="st8" d="M341.1,196.2c0,2.8-2.2,5-5,5s-5-2.2-5-5c0-2.8,2.2-5,5-5S341.1,193.4,341.1,196.2"/>
		<path class="st7" d="M311.3,251.3c0,2.8-2.2,5-5,5c-2.8,0-5-2.2-5-5c0-2.8,2.2-5,5-5C309.1,246.3,311.3,248.5,311.3,251.3"/>
		<path class="st12" d="M320.4,229.6c0,2.8-2.2,5-5,5c-2.8,0-5-2.2-5-5c0-2.8,2.2-5,5-5C318.2,224.6,320.4,226.9,320.4,229.6"/>
		<text transform="matrix(1 0 0 1 340.976 258)" class="st10 st11">0.906</text>
		<text transform="matrix(1 0 0 1 340.976 258)" class="st10 st11">0.906</text>
		<text transform="matrix(1 0 0 1 340.976 258)" class="st10 st11">0.906</text>
		<text transform="matrix(1 0 0 1 340.976 258)" class="st10 st11">0.906</text>
		<text transform="matrix(1 0 0 1 340.976 258)" class="st10 st11">0.906</text>
		<path pointer-events="none" class="st1" d="M326,160L326,160L326,160L326,160z"/>
		<path class="st5" d="M386.5,166.5h100v100h-100V166.5z"/>
		<path class="st6" d="M407.9,266c0,2.8-2.2,5-5,5c-2.8,0-5-2.2-5-5s2.2-5,5-5C405.6,261,407.9,263.2,407.9,266"/>
		<path class="st7" d="M437.5,201.1c0,2.8-2.2,5-5,5c-2.8,0-5-2.2-5-5s2.2-5,5-5C435.3,196.1,437.5,198.3,437.5,201.1"/>
		<path class="st8" d="M438.4,178.6c0,2.8-2.2,5-5,5c-2.8,0-5-2.2-5-5s2.2-5,5-5C436.2,173.6,438.4,175.8,438.4,178.6"/>
		<path class="st9" d="M424.1,266c0,2.8-2.2,5-5,5c-2.8,0-5-2.2-5-5s2.2-5,5-5C421.8,261,424.1,263.2,424.1,266"/>
		<path class="st12" d="M405,235.4c0,2.8-2.2,5-5,5s-5-2.2-5-5s2.2-5,5-5S405,232.7,405,235.4"/>
		<text transform="matrix(1 0 0 1 450.976 258)" class="st10 st11">0.736</text>
		<text transform="matrix(1 0 0 1 450.976 258)" class="st10 st11">0.736</text>
		<text transform="matrix(1 0 0 1 450.976 258)" class="st10 st11">0.736</text>
		<text transform="matrix(1 0 0 1 450.976 258)" class="st10 st11">0.736</text>
		<text transform="matrix(1 0 0 1 450.976 258)" class="st10 st11">0.736</text>
		<path pointer-events="none" class="st1" d="M436,160L436,160L436,160L436,160z"/>
		<path class="st5" d="M496.5,166.5h100v100h-100V166.5z"/>
		<path class="st6" d="M508.1,261h10v10h-10V261z"/>
		<path class="st9" d="M547.7,183.6h10v10h-10V183.6z"/>
		<path class="st7" d="M493.6,261h10v10h-10V261z"/>
		<path class="st8" d="M522.5,251.3h10v10h-10V251.3z"/>
		<text transform="matrix(1 0 0 1 560.976 258)" class="st10 st11">0.907</text>
		<text transform="matrix(1 0 0 1 560.976 258)" class="st10 st11">0.907</text>
		<text transform="matrix(1 0 0 1 560.976 258)" class="st10 st11">0.907</text>
		<text transform="matrix(1 0 0 1 560.976 258)" class="st10 st11">0.907</text>
		<path pointer-events="none" class="st1" d="M546,160L546,160L546,160L546,160z"/>
		<path class="st5" d="M56.5,281.5h100v100h-100V281.5z"/>
		<path class="st6" d="M69,376h10v10H69V376z"/>
		<path class="st9" d="M122.8,296.6h10v10h-10V296.6z"/>
		<path class="st7" d="M81.8,352.8h10v10h-10V352.8z"/>
		<path class="st8" d="M122.8,290.3h10v10h-10V290.3z"/>
		<path class="st12" d="M122.8,292.1h10v10h-10V292.1z"/>
		<text transform="matrix(1 0 0 1 120.976 373)" class="st10 st11">0.998</text>
		<text transform="matrix(1 0 0 1 120.976 373)" class="st10 st11">0.998</text>
		<text transform="matrix(1 0 0 1 120.976 373)" class="st10 st11">0.998</text>
		<text transform="matrix(1 0 0 1 120.976 373)" class="st10 st11">0.998</text>
		<text transform="matrix(1 0 0 1 120.976 373)" class="st10 st11">0.998</text>
		<path pointer-events="none" class="st1" d="M106,275L106,275L106,275L106,275z"/>
		<path class="st5" d="M166.5,281.5h100v100h-100V281.5z"/>
		<path class="st6" d="M180,376h10v10h-10V376z"/>
		<path class="st7" d="M200.5,344.8h10v10h-10V344.8z"/>
		<path class="st8" d="M190.7,365.6h10v10h-10V365.6z"/>
		<path class="st9" d="M191.1,374.1h10v10h-10V374.1z"/>
		<path class="st12" d="M180.4,376h10v10h-10V376z"/>
		<text transform="matrix(1 0 0 1 230.976 373)" class="st10 st11">0.879</text>
		<text transform="matrix(1 0 0 1 230.976 373)" class="st10 st11">0.879</text>
		<text transform="matrix(1 0 0 1 230.976 373)" class="st10 st11">0.879</text>
		<text transform="matrix(1 0 0 1 230.976 373)" class="st10 st11">0.879</text>
		<text transform="matrix(1 0 0 1 230.976 373)" class="st10 st11">0.879</text>
		<path pointer-events="none" class="st1" d="M216,275L216,275L216,275L216,275z"/>
		<path class="st5" d="M276.5,281.5h100v100h-100V281.5z"/>
		<path class="st6" d="M290.8,376.7l-5,8.7h10L290.8,376.7z"/>
		<path class="st7" d="M319.1,309.5l-5,8.7h10L319.1,309.5z"/>
		<path class="st8" d="M325.4,300.9l-5,8.7h10L325.4,300.9z"/>
		<text transform="matrix(1 0 0 1 340.976 373)" class="st10 st11">0.998</text>
		<text transform="matrix(1 0 0 1 340.976 373)" class="st10 st11">0.998</text>
		<text transform="matrix(1 0 0 1 340.976 373)" class="st10 st11">0.998</text>
		<path pointer-events="none" class="st1" d="M326,275L326,275L326,275L326,275z"/>
	</g>
	<g>
		<path pointer-events="none" class="st1" d="M611.7,49.1h58.8v98.8h-58.8V49.1z"/>
		<path pointer-events="none" class="st1" d="M611.7,69.1L611.7,69.1L611.7,69.1L611.7,69.1z"/>
		<path pointer-events="none" class="st1" d="M611.7,69.1H670v13.8h-58.3V69.1z"/>
		<path class="st9" d="M625.5,76.6c0,3.5-2.8,6.3-6.3,6.3s-6.3-2.8-6.3-6.3s2.8-6.3,6.3-6.3S625.5,73.2,625.5,76.6"/>
		<text transform="matrix(1 0 0 1 631.707 80.3862)" class="st3 st13">F159G</text>
		<path pointer-events="none" class="st1" d="M611.7,85.4H670v13.8h-58.3V85.4z"/>
		<path class="st7" d="M625.5,92.9c0,3.5-2.8,6.3-6.3,6.3s-6.3-2.8-6.3-6.3s2.8-6.3,6.3-6.3S625.5,89.4,625.5,92.9"/>
		<text transform="matrix(1 0 0 1 631.707 96.647)" class="st3 st13">K189D</text>
		<path pointer-events="none" class="st1" d="M611.7,101.6H670v13.8h-58.3V101.6z"/>
		<path class="st12" d="M625.5,109.2c0,3.5-2.8,6.3-6.3,6.3s-6.3-2.8-6.3-6.3s2.8-6.3,6.3-6.3S625.5,105.7,625.5,109.2"/>
		<text transform="matrix(1 0 0 1 631.707 112.9077)" class="st3 st13">I192E</text>
		<path pointer-events="none" class="st1" d="M611.7,117.9H670v13.8h-58.3V117.9z"/>
		<path class="st8" d="M625.5,125.4c0,3.5-2.8,6.3-6.3,6.3s-6.3-2.8-6.3-6.3c0-3.5,2.8-6.3,6.3-6.3S625.5,122,625.5,125.4"/>
		<text transform="matrix(1 0 0 1 631.707 129.1694)" class="st3 st13">F193D</text>
		<path pointer-events="none" class="st1" d="M611.7,134.2H670v13.8h-58.3V134.2z"/>
		<path class="st6" d="M625.5,141.7c0,3.5-2.8,6.3-6.3,6.3s-6.3-2.8-6.3-6.3c0-3.5,2.8-6.3,6.3-6.3S625.5,138.2,625.5,141.7"/>
		<text transform="matrix(1 0 0 1 631.707 145.4292)" class="st3 st13">F193F</text>
		<text transform="matrix(1 0 0 1 611.6934 60.3735)" class="st14 st15">variant</text>
	</g>
	<g>
		<path pointer-events="none" class="st1" d="M611.7,168.9H698v73.8h-86.3V168.9z"/>
		<path pointer-events="none" class="st1" d="M611.7,189L611.7,189L611.7,189L611.7,189z"/>
		<path pointer-events="none" class="st1" d="M611.7,189h86.1v15.6h-86.1V189z"/>
		<path class="st16" d="M625.5,196.5c0,3.5-2.8,6.3-6.3,6.3s-6.3-2.8-6.3-6.3c0-3.5,2.8-6.3,6.3-6.3S625.5,193,625.5,196.5"/>
		<text transform="matrix(1 0 0 1 631.707 200.2085)" class="st3 st13">2-4 years</text>
		<path pointer-events="none" class="st1" d="M611.7,209h86.1v15.6h-86.1V209z"/>
		<path class="st16" d="M612.9,210.2h12.5v12.5h-12.5V210.2z"/>
		<text transform="matrix(1 0 0 1 631.707 220.2222)" class="st3 st13">30-33 years</text>
		<path pointer-events="none" class="st1" d="M611.7,227.7h86.1v14.8h-86.1V227.7z"/>
		<path class="st16" d="M619.2,229.8l-6.3,10.8h12.5L619.2,229.8z"/>
		<text transform="matrix(1 0 0 1 631.707 238.9854)" class="st3 st13">ferret</text>
		<text transform="matrix(1 0 0 1 611.6934 180.1958)" class="st14 st15">cohort</text>
	</g>
	<text transform="matrix(0 -1 1 0 28.4565 298.3119)" class="st14 st17">DMS escape score</text>
	<text transform="matrix(1 0 0 1 226.8126 429.8045)" class="st14 st17">log2 fold change in IC50</text>
</g>
</svg>
