<svg xmlns="http://www.w3.org/2000/svg" xmlns:xlink="http://www.w3.org/1999/xlink" version="1.1" class="marks" width="443" height="357" viewBox="0 0 443 357"><rect width="443" height="357" fill="white"/><g fill="none" stroke-miterlimit="10" transform="translate(51,12)"><g class="mark-group role-frame root" role="graphics-object" aria-roledescription="group mark container"><g transform="translate(0,0)"><path class="background" aria-hidden="true" d="M0.5,0.5h300v300h-300Z" stroke="#ddd"/><g><g class="mark-group role-axis" role="graphics-symbol" aria-roledescription="axis" aria-label="X-axis titled 'log2_fold_change_ic50' for a linear scale with values from −2 to 6"><g transform="translate(0.5,300.5)"><path class="background" aria-hidden="true" d="M0,0h0v0h0Z" pointer-events="none"/><g><g class="mark-rule role-axis-tick" pointer-events="none"><line transform="translate(21,0)" x2="0" y2="5" stroke="#888" stroke-width="1" opacity="1"/><line transform="translate(64,0)" x2="0" y2="5" stroke="#888" stroke-width="1" opacity="1"/><line transform="translate(107,0)" x2="0" y2="5" stroke="#888" stroke-width="1" opacity="1"/><line transform="translate(150,0)" x2="0" y2="5" stroke="#888" stroke-width="1" opacity="1"/><line transform="translate(193,0)" x2="0" y2="5" stroke="#888" stroke-width="1" opacity="1"/><line transform="translate(236,0)" x2="0" y2="5" stroke="#888" stroke-width="1" opacity="1"/><line transform="translate(279,0)" x2="0" y2="5" stroke="#888" stroke-width="1" opacity="1"/></g><g class="mark-text role-axis-label" pointer-events="none"><text text-anchor="middle" transform="translate(21.428571428571427,18)" font-family="sans-serif" font-size="14px" fill="#000" opacity="1">−1</text><text text-anchor="middle" transform="translate(64.28571428571428,18)" font-family="sans-serif" font-size="14px" fill="#000" opacity="1">0</text><text text-anchor="middle" transform="translate(107.14285714285714,18)" font-family="sans-serif" font-size="14px" fill="#000" opacity="1">1</text><text text-anchor="middle" transform="translate(150,18)" font-family="sans-serif" font-size="14px" fill="#000" opacity="1">2</text><text text-anchor="middle" transform="translate(192.85714285714286,18)" font-family="sans-serif" font-size="14px" fill="#000" opacity="1">3</text><text text-anchor="middle" transform="translate(235.71428571428572,18)" font-family="sans-serif" font-size="14px" fill="#000" opacity="1">4</text><text text-anchor="middle" transform="translate(278.57142857142856,18)" font-family="sans-serif" font-size="14px" fill="#000" opacity="1">5</text></g><g class="mark-rule role-axis-domain" pointer-events="none"><line transform="translate(0,0)" x2="300" y2="0" stroke="#888" stroke-width="1" opacity="1"/></g><g class="mark-text role-axis-title" pointer-events="none"><text text-anchor="middle" transform="translate(150,37)" font-family="sans-serif" font-size="15px" font-weight="bold" fill="#000" opacity="1">log2_fold_change_ic50</text></g></g><path class="foreground" aria-hidden="true" d="" pointer-events="none" display="none"/></g></g><g class="mark-group role-axis" role="graphics-symbol" aria-roledescription="axis" aria-label="Y-axis titled 'DMS escape score' for a linear scale with values from 0 to 5"><g transform="translate(0.5,0.5)"><path class="background" aria-hidden="true" d="M0,0h0v0h0Z" pointer-events="none"/><g><g class="mark-rule role-axis-tick" pointer-events="none"><line transform="translate(0,300)" x2="-5" y2="0" stroke="#888" stroke-width="1" opacity="1"/><line transform="translate(0,267)" x2="-5" y2="0" stroke="#888" stroke-width="1" opacity="1"/><line transform="translate(0,233)" x2="-5" y2="0" stroke="#888" stroke-width="1" opacity="1"/><line transform="translate(0,200)" x2="-5" y2="0" stroke="#888" stroke-width="1" opacity="1"/><line transform="translate(0,167)" x2="-5" y2="0" stroke="#888" stroke-width="1" opacity="1"/><line transform="translate(0,133)" x2="-5" y2="0" stroke="#888" stroke-width="1" opacity="1"/><line transform="translate(0,100)" x2="-5" y2="0" stroke="#888" stroke-width="1" opacity="1"/><line transform="translate(0,67)" x2="-5" y2="0" stroke="#888" stroke-width="1" opacity="1"/><line transform="translate(0,33)" x2="-5" y2="0" stroke="#888" stroke-width="1" opacity="1"/><line transform="translate(0,0)" x2="-5" y2="0" stroke="#888" stroke-width="1" opacity="1"/></g><g class="mark-text role-axis-label" pointer-events="none"><text text-anchor="end" transform="translate(-7,304)" font-family="sans-serif" font-size="14px" fill="#000" opacity="1">0.0</text><text text-anchor="end" transform="translate(-7,270.66666666666663)" font-family="sans-serif" font-size="14px" fill="#000" opacity="1">0.5</text><text text-anchor="end" transform="translate(-7,237.33333333333334)" font-family="sans-serif" font-size="14px" fill="#000" opacity="1">1.0</text><text text-anchor="end" transform="translate(-7,204.00000000000003)" font-family="sans-serif" font-size="14px" fill="#000" opacity="1">1.5</text><text text-anchor="end" transform="translate(-7,170.66666666666669)" font-family="sans-serif" font-size="14px" fill="#000" opacity="1">2.0</text><text text-anchor="end" transform="translate(-7,137.33333333333331)" font-family="sans-serif" font-size="14px" fill="#000" opacity="1">2.5</text><text text-anchor="end" transform="translate(-7,104.00000000000001)" font-family="sans-serif" font-size="14px" fill="#000" opacity="1">3.0</text><text text-anchor="end" transform="translate(-7,70.66666666666666)" font-family="sans-serif" font-size="14px" fill="#000" opacity="1">3.5</text><text text-anchor="end" transform="translate(-7,37.33333333333335)" font-family="sans-serif" font-size="14px" fill="#000" opacity="1">4.0</text><text text-anchor="end" transform="translate(-7,4)" font-family="sans-serif" font-size="14px" fill="#000" opacity="1">4.5</text></g><g class="mark-rule role-axis-domain" pointer-events="none"><line transform="translate(0,300)" x2="0" y2="-300" stroke="#888" stroke-width="1" opacity="1"/></g><g class="mark-text role-axis-title" pointer-events="none"><text text-anchor="middle" transform="translate(-30.4619140625,150) rotate(-90) translate(0,-3)" font-family="sans-serif" font-size="15px" font-weight="bold" fill="#000" opacity="1">DMS escape score</text></g></g><path class="foreground" aria-hidden="true" d="" pointer-events="none" display="none"/></g></g><g class="mark-symbol role-mark layer_0_marks" role="graphics-object" aria-roledescription="symbol mark container"><path aria-label="log2_fold_change_ic50: −0.10090591045; DMS escape score: 0; variant: F193F; cohort: 2-4 years; serum: age-2.1; escape: 0" role="graphics-symbol" aria-roledescription="point" transform="translate(59.961175266417094,300)" d="M7.071,0A7.071,7.071,0,1,1,-7.071,0A7.071,7.071,0,1,1,7.071,0" fill="#882255" stroke-width="2" opacity="0.7"/><path aria-label="log2_fold_change_ic50: 0.898353139377; DMS escape score: 2.336; variant: K189D; cohort: 2-4 years; serum: age-2.1; escape: 2.336" role="graphics-symbol" aria-roledescription="point" transform="translate(102.78656311614274,144.26666666666668)" d="M7.071,0A7.071,7.071,0,1,1,-7.071,0A7.071,7.071,0,1,1,7.071,0" fill="#332288" stroke-width="2" opacity="0.7"/><path aria-label="log2_fold_change_ic50: 0.606342160926; DMS escape score: 1.402; variant: F193D; cohort: 2-4 years; serum: age-2.1; escape: 1.402" role="graphics-symbol" aria-roledescription="point" transform="translate(90.2718068968444,206.53333333333333)" d="M7.071,0A7.071,7.071,0,1,1,-7.071,0A7.071,7.071,0,1,1,7.071,0" fill="#88CCEE" stroke-width="2" opacity="0.7"/><path aria-label="log2_fold_change_ic50: 0.653438665639; DMS escape score: 0.1604; variant: F159G; cohort: 2-4 years; serum: age-2.1; escape: 0.1604" role="graphics-symbol" aria-roledescription="point" transform="translate(92.29022852737975,289.3066666666667)" d="M7.071,0A7.071,7.071,0,1,1,-7.071,0A7.071,7.071,0,1,1,7.071,0" fill="#CC6677" stroke-width="2" opacity="0.7"/><path aria-label="log2_fold_change_ic50: −0.0387766127529; DMS escape score: 0; variant: F193F; cohort: 2-4 years; serum: age-2.2; escape: 0" role="graphics-symbol" aria-roledescription="point" transform="translate(62.623859453448006,300)" d="M7.071,0A7.071,7.071,0,1,1,-7.071,0A7.071,7.071,0,1,1,7.071,0" fill="#882255" stroke-width="2" opacity="0.7"/><path aria-label="log2_fold_change_ic50: 1.36448539219; DMS escape score: 3.793; variant: K189D; cohort: 2-4 years; serum: age-2.2; escape: 3.793" role="graphics-symbol" aria-roledescription="point" transform="translate(122.76365966525908,47.133333333333326)" d="M7.071,0A7.071,7.071,0,1,1,-7.071,0A7.071,7.071,0,1,1,7.071,0" fill="#332288" stroke-width="2" opacity="0.7"/><path aria-label="log2_fold_change_ic50: 1.2792728535; DMS escape score: 3.431; variant: F193D; cohort: 2-4 years; serum: age-2.2; escape: 3.431" role="graphics-symbol" aria-roledescription="point" transform="translate(119.11169372141434,71.26666666666665)" d="M7.071,0A7.071,7.071,0,1,1,-7.071,0A7.071,7.071,0,1,1,7.071,0" fill="#88CCEE" stroke-width="2" opacity="0.7"/><path aria-label="log2_fold_change_ic50: 1.55293990519; DMS escape score: 2.399; variant: F159G; cohort: 2-4 years; serum: age-2.2; escape: 2.399" role="graphics-symbol" aria-roledescription="point" transform="translate(130.84028165084308,140.06666666666666)" d="M7.071,0A7.071,7.071,0,1,1,-7.071,0A7.071,7.071,0,1,1,7.071,0" fill="#CC6677" stroke-width="2" opacity="0.7"/><path aria-label="log2_fold_change_ic50: −0.111827699777; DMS escape score: 2.224; variant: I192E; cohort: 2-4 years; serum: age-2.2; escape: 2.224" role="graphics-symbol" aria-roledescription="point" transform="translate(59.49309858099195,151.7333333333333)" d="M7.071,0A7.071,7.071,0,1,1,-7.071,0A7.071,7.071,0,1,1,7.071,0" fill="#117733" stroke-width="2" opacity="0.7"/><path aria-label="log2_fold_change_ic50: 0.0989062748738; DMS escape score: 0; variant: F193F; cohort: 2-4 years; serum: age-2.4; escape: 0" role="graphics-symbol" aria-roledescription="point" transform="translate(68.5245546374484,300)" d="M7.071,0A7.071,7.071,0,1,1,-7.071,0A7.071,7.071,0,1,1,7.071,0" fill="#882255" stroke-width="2" opacity="0.7"/><path aria-label="log2_fold_change_ic50: 5.37642067099; DMS escape score: 3.468; variant: F159G; cohort: 2-4 years; serum: age-2.4; escape: 3.468" role="graphics-symbol" aria-roledescription="point" transform="translate(294.70374304255154,68.80000000000001)" d="M7.071,0A7.071,7.071,0,1,1,-7.071,0A7.071,7.071,0,1,1,7.071,0" fill="#CC6677" stroke-width="2" opacity="0.7"/><path aria-label="log2_fold_change_ic50: 3.48369456297; DMS escape score: 3.016; variant: F193D; cohort: 2-4 years; serum: age-2.4; escape: 3.016" role="graphics-symbol" aria-roledescription="point" transform="translate(213.5869098414141,98.93333333333332)" d="M7.071,0A7.071,7.071,0,1,1,-7.071,0A7.071,7.071,0,1,1,7.071,0" fill="#88CCEE" stroke-width="2" opacity="0.7"/><path aria-label="log2_fold_change_ic50: 1.16438621417; DMS escape score: 1.803; variant: K189D; cohort: 2-4 years; serum: age-2.4; escape: 1.803" role="graphics-symbol" aria-roledescription="point" transform="translate(114.18798060723955,179.79999999999998)" d="M7.071,0A7.071,7.071,0,1,1,-7.071,0A7.071,7.071,0,1,1,7.071,0" fill="#332288" stroke-width="2" opacity="0.7"/><path aria-label="log2_fold_change_ic50: 1.21611743208; DMS escape score: 1.952; variant: I192E; cohort: 2-4 years; serum: age-2.4; escape: 1.952" role="graphics-symbol" aria-roledescription="point" transform="translate(116.40503280361365,169.86666666666665)" d="M7.071,0A7.071,7.071,0,1,1,-7.071,0A7.071,7.071,0,1,1,7.071,0" fill="#117733" stroke-width="2" opacity="0.7"/><path aria-label="log2_fold_change_ic50: −0.422844244235; DMS escape score: 0; variant: F193F; cohort: 2-4 years; serum: age-2.5; escape: 0" role="graphics-symbol" aria-roledescription="point" transform="translate(46.16381810421328,300)" d="M7.071,0A7.071,7.071,0,1,1,-7.071,0A7.071,7.071,0,1,1,7.071,0" fill="#882255" stroke-width="2" opacity="0.7"/><path aria-label="log2_fold_change_ic50: 3.15791428329; DMS escape score: 4.367; variant: K189D; cohort: 2-4 years; serum: age-2.5; escape: 4.367" role="graphics-symbol" aria-roledescription="point" transform="translate(199.62489785548422,8.866666666666667)" d="M7.071,0A7.071,7.071,0,1,1,-7.071,0A7.071,7.071,0,1,1,7.071,0" fill="#332288" stroke-width="2" opacity="0.7"/><path aria-label="log2_fold_change_ic50: 2.15791428329; DMS escape score: 3.365; variant: F193D; cohort: 2-4 years; serum: age-2.5; escape: 3.365" role="graphics-symbol" aria-roledescription="point" transform="translate(156.7677549983414,75.66666666666664)" d="M7.071,0A7.071,7.071,0,1,1,-7.071,0A7.071,7.071,0,1,1,7.071,0" fill="#88CCEE" stroke-width="2" opacity="0.7"/><path aria-label="log2_fold_change_ic50: 3.06046360458; DMS escape score: 2.562; variant: F159G; cohort: 2-4 years; serum: age-2.5; escape: 2.562" role="graphics-symbol" aria-roledescription="point" transform="translate(195.4484401962278,129.20000000000002)" d="M7.071,0A7.071,7.071,0,1,1,-7.071,0A7.071,7.071,0,1,1,7.071,0" fill="#CC6677" stroke-width="2" opacity="0.7"/><path aria-label="log2_fold_change_ic50: −0.462846124653; DMS escape score: 0; variant: F193F; cohort: 2-4 years; serum: age-2.5-b; escape: 0" role="graphics-symbol" aria-roledescription="point" transform="translate(44.44945180057982,300)" d="M7.071,0A7.071,7.071,0,1,1,-7.071,0A7.071,7.071,0,1,1,7.071,0" fill="#882255" stroke-width="2" opacity="0.7"/><path aria-label="log2_fold_change_ic50: 1.51446750428; DMS escape score: 1.874; variant: F159G; cohort: 2-4 years; serum: age-2.5-b; escape: 1.874" role="graphics-symbol" aria-roledescription="point" transform="translate(129.19146446928033,175.0666666666667)" d="M7.071,0A7.071,7.071,0,1,1,-7.071,0A7.071,7.071,0,1,1,7.071,0" fill="#CC6677" stroke-width="2" opacity="0.7"/><path aria-label="log2_fold_change_ic50: 1.89312211828; DMS escape score: 4.415; variant: K189D; cohort: 2-4 years; serum: age-2.5-b; escape: 4.415" role="graphics-symbol" aria-roledescription="point" transform="translate(145.41951935482334,5.666666666666654)" d="M7.071,0A7.071,7.071,0,1,1,-7.071,0A7.071,7.071,0,1,1,7.071,0" fill="#332288" stroke-width="2" opacity="0.7"/><path aria-label="log2_fold_change_ic50: 0.930954691477; DMS escape score: 2.81; variant: F193D; cohort: 2-4 years; serum: age-2.5-b; escape: 2.81" role="graphics-symbol" aria-roledescription="point" transform="translate(104.18377249188889,112.66666666666666)" d="M7.071,0A7.071,7.071,0,1,1,-7.071,0A7.071,7.071,0,1,1,7.071,0" fill="#88CCEE" stroke-width="2" opacity="0.7"/><path aria-label="log2_fold_change_ic50: 0.521693570726; DMS escape score: 0; variant: F193F; cohort: 2-4 years; serum: age-3.3; escape: 0" role="graphics-symbol" aria-roledescription="point" transform="translate(86.64401017398413,300)" d="M7.071,0A7.071,7.071,0,1,1,-7.071,0A7.071,7.071,0,1,1,7.071,0" fill="#882255" stroke-width="2" opacity="0.7"/><path aria-label="log2_fold_change_ic50: 3.54708123319; DMS escape score: 3.619; variant: F159G; cohort: 2-4 years; serum: age-3.3; escape: 3.619" role="graphics-symbol" aria-roledescription="point" transform="translate(216.3034814224119,58.73333333333331)" d="M7.071,0A7.071,7.071,0,1,1,-7.071,0A7.071,7.071,0,1,1,7.071,0" fill="#CC6677" stroke-width="2" opacity="0.7"/><path aria-label="log2_fold_change_ic50: 1.03851330739; DMS escape score: 0; variant: K189D; cohort: 2-4 years; serum: age-3.3; escape: 0" role="graphics-symbol" aria-roledescription="point" transform="translate(108.79342745969352,300)" d="M7.071,0A7.071,7.071,0,1,1,-7.071,0A7.071,7.071,0,1,1,7.071,0" fill="#332288" stroke-width="2" opacity="0.7"/><path aria-label="log2_fold_change_ic50: 0.31032231511; DMS escape score: 4.302; variant: F193D; cohort: 2-4 years; serum: age-3.3; escape: 4.302" role="graphics-symbol" aria-roledescription="point" transform="translate(77.58524207613934,13.200000000000012)" d="M7.071,0A7.071,7.071,0,1,1,-7.071,0A7.071,7.071,0,1,1,7.071,0" fill="#88CCEE" stroke-width="2" opacity="0.7"/><path aria-label="log2_fold_change_ic50: −0.255214812086; DMS escape score: 0; variant: F193F; cohort: 2-4 years; serum: age-3.3-b; escape: 0" role="graphics-symbol" aria-roledescription="point" transform="translate(53.3479366248869,300)" d="M7.071,0A7.071,7.071,0,1,1,-7.071,0A7.071,7.071,0,1,1,7.071,0" fill="#882255" stroke-width="2" opacity="0.7"/><path aria-label="log2_fold_change_ic50: 2.21076987486; DMS escape score: 2.323; variant: F159G; cohort: 2-4 years; serum: age-3.3-b; escape: 2.323" role="graphics-symbol" aria-roledescription="point" transform="translate(159.03299463699935,145.13333333333333)" d="M7.071,0A7.071,7.071,0,1,1,-7.071,0A7.071,7.071,0,1,1,7.071,0" fill="#CC6677" stroke-width="2" opacity="0.7"/><path aria-label="log2_fold_change_ic50: 0.452559207427; DMS escape score: 1.105; variant: K189D; cohort: 2-4 years; serum: age-3.3-b; escape: 1.105" role="graphics-symbol" aria-roledescription="point" transform="translate(83.68110888972647,226.33333333333334)" d="M7.071,0A7.071,7.071,0,1,1,-7.071,0A7.071,7.071,0,1,1,7.071,0" fill="#332288" stroke-width="2" opacity="0.7"/><path aria-label="log2_fold_change_ic50: 0.207872438119; DMS escape score: 0.2549; variant: F193D; cohort: 2-4 years; serum: age-3.3-b; escape: 0.2549" role="graphics-symbol" aria-roledescription="point" transform="translate(73.19453306223915,283.00666666666666)" d="M7.071,0A7.071,7.071,0,1,1,-7.071,0A7.071,7.071,0,1,1,7.071,0" fill="#88CCEE" stroke-width="2" opacity="0.7"/><path aria-label="log2_fold_change_ic50: −0.209231441238; DMS escape score: 0; variant: F193F; cohort: 2-4 years; serum: age-3.4; escape: 0" role="graphics-symbol" aria-roledescription="point" transform="translate(55.31865251838057,300)" d="M7.071,0A7.071,7.071,0,1,1,-7.071,0A7.071,7.071,0,1,1,7.071,0" fill="#882255" stroke-width="2" opacity="0.7"/><path aria-label="log2_fold_change_ic50: 5.00979736176; DMS escape score: 3.128; variant: F159G; cohort: 2-4 years; serum: age-3.4; escape: 3.128" role="graphics-symbol" aria-roledescription="point" transform="translate(278.991315503883,91.46666666666667)" d="M7.071,0A7.071,7.071,0,1,1,-7.071,0A7.071,7.071,0,1,1,7.071,0" fill="#CC6677" stroke-width="2" opacity="0.7"/><path aria-label="log2_fold_change_ic50: 2.71048853038; DMS escape score: 3.143; variant: F193D; cohort: 2-4 years; serum: age-3.4; escape: 3.143" role="graphics-symbol" aria-roledescription="point" transform="translate(180.44950844479968,90.46666666666667)" d="M7.071,0A7.071,7.071,0,1,1,-7.071,0A7.071,7.071,0,1,1,7.071,0" fill="#88CCEE" stroke-width="2" opacity="0.7"/><path aria-label="log2_fold_change_ic50: 0.622943489615; DMS escape score: 0.6625; variant: K189D; cohort: 2-4 years; serum: age-3.4; escape: 0.6625" role="graphics-symbol" aria-roledescription="point" transform="translate(90.98329241206321,255.83333333333331)" d="M7.071,0A7.071,7.071,0,1,1,-7.071,0A7.071,7.071,0,1,1,7.071,0" fill="#332288" stroke-width="2" opacity="0.7"/><path aria-label="log2_fold_change_ic50: 1.26103187439; DMS escape score: 1.636; variant: I192E; cohort: 2-4 years; serum: age-3.4; escape: 1.636" role="graphics-symbol" aria-roledescription="point" transform="translate(118.32993747367243,190.93333333333334)" d="M7.071,0A7.071,7.071,0,1,1,-7.071,0A7.071,7.071,0,1,1,7.071,0" fill="#117733" stroke-width="2" opacity="0.7"/><path aria-label="log2_fold_change_ic50: −0.31910599201; DMS escape score: 0; variant: F193F; cohort: 2-4 years; serum: age-3.5; escape: 0" role="graphics-symbol" aria-roledescription="point" transform="translate(50.60974319955386,300)" d="M7.071,0A7.071,7.071,0,1,1,-7.071,0A7.071,7.071,0,1,1,7.071,0" fill="#882255" stroke-width="2" opacity="0.7"/><path aria-label="log2_fold_change_ic50: 1.75464620859; DMS escape score: 2.922; variant: K189D; cohort: 2-4 years; serum: age-3.5; escape: 2.922" role="graphics-symbol" aria-roledescription="point" transform="translate(139.48483751096578,105.2)" d="M7.071,0A7.071,7.071,0,1,1,-7.071,0A7.071,7.071,0,1,1,7.071,0" fill="#332288" stroke-width="2" opacity="0.7"/><path aria-label="log2_fold_change_ic50: 1.8203797822; DMS escape score: 3.935; variant: F193D; cohort: 2-4 years; serum: age-3.5; escape: 3.935" role="graphics-symbol" aria-roledescription="point" transform="translate(142.301990665755,37.66666666666666)" d="M7.071,0A7.071,7.071,0,1,1,-7.071,0A7.071,7.071,0,1,1,7.071,0" fill="#88CCEE" stroke-width="2" opacity="0.7"/><path aria-label="log2_fold_change_ic50: 0.813555414831; DMS escape score: 0; variant: F159G; cohort: 2-4 years; serum: age-3.5; escape: 0" role="graphics-symbol" aria-roledescription="point" transform="translate(99.15237492132928,300)" d="M7.071,0A7.071,7.071,0,1,1,-7.071,0A7.071,7.071,0,1,1,7.071,0" fill="#CC6677" stroke-width="2" opacity="0.7"/><path aria-label="log2_fold_change_ic50: −0.520487154917; DMS escape score: 1.376; variant: I192E; cohort: 2-4 years; serum: age-3.5; escape: 1.376" role="graphics-symbol" aria-roledescription="point" transform="translate(41.979121932108,208.26666666666668)" d="M7.071,0A7.071,7.071,0,1,1,-7.071,0A7.071,7.071,0,1,1,7.071,0" fill="#117733" stroke-width="2" opacity="0.7"/><path aria-label="log2_fold_change_ic50: −0.303205536309; DMS escape score: 0; variant: F193F; cohort: 30-33 years; serum: age-30.5; escape: 0" role="graphics-symbol" aria-roledescription="point" transform="translate(51.29119130102697,300)" d="M-7.071,-7.071h14.142v14.142h-14.142Z" fill="#882255" stroke-width="2" opacity="0.7"/><path aria-label="log2_fold_change_ic50: 2.47172602549; DMS escape score: 3.482; variant: F159G; cohort: 30-33 years; serum: age-30.5; escape: 3.482" role="graphics-symbol" aria-roledescription="point" transform="translate(170.21682966398626,67.86666666666666)" d="M-7.071,-7.071h14.142v14.142h-14.142Z" fill="#CC6677" stroke-width="2" opacity="0.7"/><path aria-label="log2_fold_change_ic50: −1.31948113101; DMS escape score: 0; variant: K189D; cohort: 30-33 years; serum: age-30.5; escape: 0" role="graphics-symbol" aria-roledescription="point" transform="translate(7.7365229565522595,300)" d="M-7.071,-7.071h14.142v14.142h-14.142Z" fill="#332288" stroke-width="2" opacity="0.7"/><path aria-label="log2_fold_change_ic50: 0.708120855005; DMS escape score: 0.4366; variant: F193D; cohort: 30-33 years; serum: age-30.5; escape: 0.4366" role="graphics-symbol" aria-roledescription="point" transform="translate(94.63375092878384,270.8933333333333)" d="M-7.071,-7.071h14.142v14.142h-14.142Z" fill="#88CCEE" stroke-width="2" opacity="0.7"/><path aria-label="log2_fold_change_ic50: −0.239396503909; DMS escape score: 0; variant: F193F; cohort: 30-33 years; serum: age-31.5; escape: 0" role="graphics-symbol" aria-roledescription="point" transform="translate(54.025864118194235,300)" d="M-7.071,-7.071h14.142v14.142h-14.142Z" fill="#882255" stroke-width="2" opacity="0.7"/><path aria-label="log2_fold_change_ic50: 3.52866042948; DMS escape score: 3.574; variant: F159G; cohort: 30-33 years; serum: age-31.5; escape: 3.574" role="graphics-symbol" aria-roledescription="point" transform="translate(215.51401840638127,61.73333333333335)" d="M-7.071,-7.071h14.142v14.142h-14.142Z" fill="#CC6677" stroke-width="2" opacity="0.7"/><path aria-label="log2_fold_change_ic50: 0.652743439232; DMS escape score: 1.043; variant: K189D; cohort: 30-33 years; serum: age-31.5; escape: 1.043" role="graphics-symbol" aria-roledescription="point" transform="translate(92.2604331099314,230.46666666666667)" d="M-7.071,-7.071h14.142v14.142h-14.142Z" fill="#332288" stroke-width="2" opacity="0.7"/><path aria-label="log2_fold_change_ic50: 3.52866042948; DMS escape score: 3.857; variant: F193D; cohort: 30-33 years; serum: age-31.5; escape: 3.857" role="graphics-symbol" aria-roledescription="point" transform="translate(215.51401840638127,42.86666666666665)" d="M-7.071,-7.071h14.142v14.142h-14.142Z" fill="#88CCEE" stroke-width="2" opacity="0.7"/><path aria-label="log2_fold_change_ic50: 3.52866042948; DMS escape score: 3.774; variant: I192E; cohort: 30-33 years; serum: age-31.5; escape: 3.774" role="graphics-symbol" aria-roledescription="point" transform="translate(215.51401840638127,48.4)" d="M-7.071,-7.071h14.142v14.142h-14.142Z" fill="#117733" stroke-width="2" opacity="0.7"/><path aria-label="log2_fold_change_ic50: −0.171721674087; DMS escape score: 0; variant: F193F; cohort: 30-33 years; serum: age-33.5; escape: 0" role="graphics-symbol" aria-roledescription="point" transform="translate(56.92621396768971,300)" d="M-7.071,-7.071h14.142v14.142h-14.142Z" fill="#882255" stroke-width="2" opacity="0.7"/><path aria-label="log2_fold_change_ic50: 1.26164313989; DMS escape score: 1.403; variant: K189D; cohort: 30-33 years; serum: age-33.5; escape: 1.403" role="graphics-symbol" aria-roledescription="point" transform="translate(118.3561345666256,206.4666666666667)" d="M-7.071,-7.071h14.142v14.142h-14.142Z" fill="#332288" stroke-width="2" opacity="0.7"/><path aria-label="log2_fold_change_ic50: 0.575919691093; DMS escape score: 0.466; variant: F193D; cohort: 30-33 years; serum: age-33.5; escape: 0.466" role="graphics-symbol" aria-roledescription="point" transform="translate(88.96798676114771,268.93333333333334)" d="M-7.071,-7.071h14.142v14.142h-14.142Z" fill="#88CCEE" stroke-width="2" opacity="0.7"/><path aria-label="log2_fold_change_ic50: 0.606824581049; DMS escape score: 0.08695; variant: F159G; cohort: 30-33 years; serum: age-33.5; escape: 0.08695" role="graphics-symbol" aria-roledescription="point" transform="translate(90.2924820449645,294.2033333333333)" d="M-7.071,-7.071h14.142v14.142h-14.142Z" fill="#CC6677" stroke-width="2" opacity="0.7"/><path aria-label="log2_fold_change_ic50: −0.144634829691; DMS escape score: 0; variant: I192E; cohort: 30-33 years; serum: age-33.5; escape: 0" role="graphics-symbol" aria-roledescription="point" transform="translate(58.08707872752994,300)" d="M-7.071,-7.071h14.142v14.142h-14.142Z" fill="#117733" stroke-width="2" opacity="0.7"/><path aria-label="log2_fold_change_ic50: −0.464861716572; DMS escape score: 0; variant: F193F; cohort: ferret; serum: ferret-Pitt2; escape: 0" role="graphics-symbol" aria-roledescription="point" transform="translate(44.36306928975701,300)" d="M0,-6.124L-7.071,6.124L7.071,6.124Z" fill="#882255" stroke-width="2" opacity="0.7"/><path aria-label="log2_fold_change_ic50: 1.51426981426; DMS escape score: 3.023; variant: K189D; cohort: ferret; serum: ferret-Pitt2; escape: 3.023" role="graphics-symbol" aria-roledescription="point" transform="translate(129.18299203953057,98.46666666666665)" d="M0,-6.124L-7.071,6.124L7.071,6.124Z" fill="#332288" stroke-width="2" opacity="0.7"/><path aria-label="log2_fold_change_ic50: 1.95953323252; DMS escape score: 3.411; variant: F193D; cohort: ferret; serum: ferret-Pitt2; escape: 3.411" role="graphics-symbol" aria-roledescription="point" transform="translate(148.26570996493194,72.6)" d="M0,-6.124L-7.071,6.124L7.071,6.124Z" fill="#88CCEE" stroke-width="2" opacity="0.7"/></g><g class="mark-text role-mark layer_1_marks" role="graphics-object" aria-roledescription="text mark container"><text text-anchor="start" transform="translate(10,17)" font-family="sans-serif" font-size="14px" font-weight="400" fill="black">R=0.757</text></g><g class="mark-group role-legend" role="graphics-symbol" aria-roledescription="legend" aria-label="Symbol legend titled 'variant' for fill color with 5 values: F159G, K189D, I192E, F193D, F193F"><g transform="translate(318,0)"><path class="background" aria-hidden="true" d="M0,0h47v79h-47Z" pointer-events="none"/><g><g class="mark-group role-legend-entry"><g transform="translate(0,16)"><path class="background" aria-hidden="true" d="M0,0h0v0h0Z" pointer-events="none"/><g><g class="mark-group role-scope" role="graphics-object" aria-roledescription="group mark container"><g transform="translate(0,0)"><path class="background" aria-hidden="true" d="M0,0h46.576171875v11h-46.576171875Z" pointer-events="none" opacity="1"/><g><g class="mark-symbol role-legend-symbol" pointer-events="none"><path transform="translate(6,6)" d="M5,0A5,5,0,1,1,-5,0A5,5,0,1,1,5,0" fill="#CC6677" stroke-width="1.5" opacity="0.7"/></g><g class="mark-text role-legend-label" pointer-events="none"><text text-anchor="start" transform="translate(16,9)" font-family="sans-serif" font-size="10px" fill="#000" opacity="1">F159G</text></g></g><path class="foreground" aria-hidden="true" d="" pointer-events="none" display="none"/></g><g transform="translate(0,13)"><path class="background" aria-hidden="true" d="M0,0h46.576171875v11h-46.576171875Z" pointer-events="none" opacity="1"/><g><g class="mark-symbol role-legend-symbol" pointer-events="none"><path transform="translate(6,6)" d="M5,0A5,5,0,1,1,-5,0A5,5,0,1,1,5,0" fill="#332288" stroke-width="1.5" opacity="0.7"/></g><g class="mark-text role-legend-label" pointer-events="none"><text text-anchor="start" transform="translate(16,9)" font-family="sans-serif" font-size="10px" fill="#000" opacity="1">K189D</text></g></g><path class="foreground" aria-hidden="true" d="" pointer-events="none" display="none"/></g><g transform="translate(0,26)"><path class="background" aria-hidden="true" d="M0,0h46.576171875v11h-46.576171875Z" pointer-events="none" opacity="1"/><g><g class="mark-symbol role-legend-symbol" pointer-events="none"><path transform="translate(6,6)" d="M5,0A5,5,0,1,1,-5,0A5,5,0,1,1,5,0" fill="#117733" stroke-width="1.5" opacity="0.7"/></g><g class="mark-text role-legend-label" pointer-events="none"><text text-anchor="start" transform="translate(16,9)" font-family="sans-serif" font-size="10px" fill="#000" opacity="1">I192E</text></g></g><path class="foreground" aria-hidden="true" d="" pointer-events="none" display="none"/></g><g transform="translate(0,39)"><path class="background" aria-hidden="true" d="M0,0h46.576171875v11h-46.576171875Z" pointer-events="none" opacity="1"/><g><g class="mark-symbol role-legend-symbol" pointer-events="none"><path transform="translate(6,6)" d="M5,0A5,5,0,1,1,-5,0A5,5,0,1,1,5,0" fill="#88CCEE" stroke-width="1.5" opacity="0.7"/></g><g class="mark-text role-legend-label" pointer-events="none"><text text-anchor="start" transform="translate(16,9)" font-family="sans-serif" font-size="10px" fill="#000" opacity="1">F193D</text></g></g><path class="foreground" aria-hidden="true" d="" pointer-events="none" display="none"/></g><g transform="translate(0,52)"><path class="background" aria-hidden="true" d="M0,0h46.576171875v11h-46.576171875Z" pointer-events="none" opacity="1"/><g><g class="mark-symbol role-legend-symbol" pointer-events="none"><path transform="translate(6,6)" d="M5,0A5,5,0,1,1,-5,0A5,5,0,1,1,5,0" fill="#882255" stroke-width="1.5" opacity="0.7"/></g><g class="mark-text role-legend-label" pointer-events="none"><text text-anchor="start" transform="translate(16,9)" font-family="sans-serif" font-size="10px" fill="#000" opacity="1">F193F</text></g></g><path class="foreground" aria-hidden="true" d="" pointer-events="none" display="none"/></g></g></g><path class="foreground" aria-hidden="true" d="" pointer-events="none" display="none"/></g></g><g class="mark-text role-legend-title" pointer-events="none"><text text-anchor="start" transform="translate(0,9)" font-family="sans-serif" font-size="11px" font-weight="bold" fill="#000" opacity="1">variant</text></g></g><path class="foreground" aria-hidden="true" d="" pointer-events="none" display="none"/></g></g><g class="mark-group role-legend" role="graphics-symbol" aria-roledescription="legend" aria-label="Symbol legend titled 'cohort' for shape with 3 values: 2-4 years, 30-33 years, ferret"><g transform="translate(318,87)"><path class="background" aria-hidden="true" d="M0,0h69v59h-69Z" pointer-events="none"/><g><g class="mark-group role-legend-entry"><g transform="translate(0,16)"><path class="background" aria-hidden="true" d="M0,0h0v0h0Z" pointer-events="none"/><g><g class="mark-group role-scope" role="graphics-object" aria-roledescription="group mark container"><g transform="translate(0,0)"><path class="background" aria-hidden="true" d="M0,0h68.8076171875v12.5h-68.8076171875Z" pointer-events="none" opacity="1"/><g><g class="mark-symbol role-legend-symbol" pointer-events="none"><path transform="translate(6,6)" d="M5,0A5,5,0,1,1,-5,0A5,5,0,1,1,5,0" fill="black" fill-opacity="0.7" stroke-width="1.5" opacity="0.7"/></g><g class="mark-text role-legend-label" pointer-events="none"><text text-anchor="start" transform="translate(16,9)" font-family="sans-serif" font-size="10px" fill="#000" opacity="1">2-4 years</text></g></g><path class="foreground" aria-hidden="true" d="" pointer-events="none" display="none"/></g><g transform="translate(0,16)"><path class="background" aria-hidden="true" d="M0,0h68.8076171875v12.5h-68.8076171875Z" pointer-events="none" opacity="1"/><g><g class="mark-symbol role-legend-symbol" pointer-events="none"><path transform="translate(6,6)" d="M-5,-5h10v10h-10Z" fill="black" fill-opacity="0.7" stroke-width="1.5" opacity="0.7"/></g><g class="mark-text role-legend-label" pointer-events="none"><text text-anchor="start" transform="translate(16,9)" font-family="sans-serif" font-size="10px" fill="#000" opacity="1">30-33 years</text></g></g><path class="foreground" aria-hidden="true" d="" pointer-events="none" display="none"/></g><g transform="translate(0,31)"><path class="background" aria-hidden="true" d="M0,0h68.8076171875v11.830127018922191h-68.8076171875Z" pointer-events="none" opacity="1"/><g><g class="mark-symbol role-legend-symbol" pointer-events="none"><path transform="translate(6,6)" d="M0,-4.33L-5,4.33L5,4.33Z" fill="black" fill-opacity="0.7" stroke-width="1.5" opacity="0.7"/></g><g class="mark-text role-legend-label" pointer-events="none"><text text-anchor="start" transform="translate(16,9)" font-family="sans-serif" font-size="10px" fill="#000" opacity="1">ferret</text></g></g><path class="foreground" aria-hidden="true" d="" pointer-events="none" display="none"/></g></g></g><path class="foreground" aria-hidden="true" d="" pointer-events="none" display="none"/></g></g><g class="mark-text role-legend-title" pointer-events="none"><text text-anchor="start" transform="translate(0,9)" font-family="sans-serif" font-size="11px" font-weight="bold" fill="#000" opacity="1">cohort</text></g></g><path class="foreground" aria-hidden="true" d="" pointer-events="none" display="none"/></g></g></g><path class="foreground" aria-hidden="true" d="" display="none"/></g></g></g></svg>