<?xml version="1.0" encoding="UTF-8" standalone="no"?>
<!DOCTYPE svg PUBLIC "-//W3C//DTD SVG 1.1//EN"
 "http://www.w3.org/Graphics/SVG/1.1/DTD/svg11.dtd">
<!-- Generated by graphviz version 7.1.0 (20230122.1345)
 -->
<!-- Title: snakemake_dag Pages: 1 -->
<svg width="1181pt" height="1124pt"
 viewBox="0.00 0.00 1181.00 1124.00" xmlns="http://www.w3.org/2000/svg" xmlns:xlink="http://www.w3.org/1999/xlink">
<g id="graph0" class="graph" transform="scale(1 1) rotate(0) translate(4 1120)">
<title>snakemake_dag</title>
<polygon fill="white" stroke="none" points="-4,4 -4,-1120 1177,-1120 1177,4 -4,4"/>
<!-- 0 -->
<g id="node1" class="node">
<title>0</title>
<path fill="none" stroke="#56d8b1" stroke-width="2" d="M1055,-36C1055,-36 1025,-36 1025,-36 1019,-36 1013,-30 1013,-24 1013,-24 1013,-12 1013,-12 1013,-6 1019,0 1025,0 1025,0 1055,0 1055,0 1061,0 1067,-6 1067,-12 1067,-12 1067,-24 1067,-24 1067,-30 1061,-36 1055,-36"/>
<text text-anchor="middle" x="1040" y="-15.5" font-family="sans" font-size="10.00">all</text>
</g>
<!-- 1 -->
<g id="node2" class="node">
<title>1</title>
<path fill="none" stroke="#d8bc56" stroke-width="2" d="M689.5,-756C689.5,-756 624.5,-756 624.5,-756 618.5,-756 612.5,-750 612.5,-744 612.5,-744 612.5,-732 612.5,-732 612.5,-726 618.5,-720 624.5,-720 624.5,-720 689.5,-720 689.5,-720 695.5,-720 701.5,-726 701.5,-732 701.5,-732 701.5,-744 701.5,-744 701.5,-750 695.5,-756 689.5,-756"/>
<text text-anchor="middle" x="657" y="-735.5" font-family="sans" font-size="10.00">variant_counts</text>
</g>
<!-- 1&#45;&gt;0 -->
<g id="edge1" class="edge">
<title>1&#45;&gt;0</title>
<path fill="none" stroke="grey" stroke-width="2" d="M702.5,-730.6C746.19,-723.29 813.31,-708.99 867,-684 953.44,-643.77 976.93,-621.74 1026,-540 1086.84,-438.66 1126.21,-405.22 1111,-288 1099.5,-199.37 1067.53,-98.33 1050.69,-49.12"/>
<polygon fill="grey" stroke="grey" stroke-width="2" points="1054.04,-48.1 1047.46,-39.8 1047.43,-50.4 1054.04,-48.1"/>
</g>
<!-- 9 -->
<g id="node10" class="node">
<title>9</title>
<path fill="none" stroke="#56d8a2" stroke-width="2" d="M578,-684C578,-684 470,-684 470,-684 464,-684 458,-678 458,-672 458,-672 458,-660 458,-660 458,-654 464,-648 470,-648 470,-648 578,-648 578,-648 584,-648 590,-654 590,-660 590,-660 590,-672 590,-672 590,-678 584,-684 578,-684"/>
<text text-anchor="middle" x="524" y="-663.5" font-family="sans" font-size="10.00">analyze_variant_counts</text>
</g>
<!-- 1&#45;&gt;9 -->
<g id="edge16" class="edge">
<title>1&#45;&gt;9</title>
<path fill="none" stroke="grey" stroke-width="2" d="M623.09,-719.15C606.76,-710.56 586.93,-700.12 569.32,-690.85"/>
<polygon fill="grey" stroke="grey" stroke-width="2" points="571,-687.78 560.52,-686.22 567.74,-693.98 571,-687.78"/>
</g>
<!-- 12 -->
<g id="node13" class="node">
<title>12</title>
<path fill="none" stroke="#d8d356" stroke-width="2" d="M963,-540C963,-540 909,-540 909,-540 903,-540 897,-534 897,-528 897,-528 897,-516 897,-516 897,-510 903,-504 909,-504 909,-504 963,-504 963,-504 969,-504 975,-510 975,-516 975,-516 975,-528 975,-528 975,-534 969,-540 963,-540"/>
<text text-anchor="middle" x="936" y="-519.5" font-family="sans" font-size="10.00">prob_escape</text>
</g>
<!-- 1&#45;&gt;12 -->
<g id="edge21" class="edge">
<title>1&#45;&gt;12</title>
<path fill="none" stroke="grey" stroke-width="2" d="M702.22,-720.36C751.34,-700.52 829.86,-663.47 883,-612 900.4,-595.15 914.16,-571.39 923.3,-552.65"/>
<polygon fill="grey" stroke="grey" stroke-width="2" points="926.44,-554.21 927.47,-543.66 920.09,-551.26 926.44,-554.21"/>
</g>
<!-- 13 -->
<g id="node14" class="node">
<title>13</title>
<path fill="none" stroke="#56d0d8" stroke-width="2" d="M934,-108C934,-108 880,-108 880,-108 874,-108 868,-102 868,-96 868,-96 868,-84 868,-84 868,-78 874,-72 880,-72 880,-72 934,-72 934,-72 940,-72 946,-78 946,-84 946,-84 946,-96 946,-96 946,-102 940,-108 934,-108"/>
<text text-anchor="middle" x="907" y="-87.5" font-family="sans" font-size="10.00">sphinx_build</text>
</g>
<!-- 1&#45;&gt;13 -->
<g id="edge31" class="edge">
<title>1&#45;&gt;13</title>
<path fill="none" stroke="grey" stroke-width="2" d="M702.18,-727.47C736.65,-719.06 784.58,-704.86 823,-684 996.73,-589.68 1059,-504.68 1059,-307 1059,-307 1059,-307 1059,-233 1059,-176.64 1002.52,-136.23 958.41,-113.26"/>
<polygon fill="grey" stroke="grey" stroke-width="2" points="960.15,-110.22 949.64,-108.88 957.02,-116.48 960.15,-110.22"/>
</g>
<!-- 19 -->
<g id="node20" class="node">
<title>19</title>
<path fill="none" stroke="#78d856" stroke-width="2" d="M451.5,-180C451.5,-180 404.5,-180 404.5,-180 398.5,-180 392.5,-174 392.5,-168 392.5,-168 392.5,-156 392.5,-156 392.5,-150 398.5,-144 404.5,-144 404.5,-144 451.5,-144 451.5,-144 457.5,-144 463.5,-150 463.5,-156 463.5,-156 463.5,-168 463.5,-168 463.5,-174 457.5,-180 451.5,-180"/>
<text text-anchor="middle" x="428" y="-159.5" font-family="sans" font-size="10.00">docs_index</text>
</g>
<!-- 1&#45;&gt;19 -->
<g id="edge55" class="edge">
<title>1&#45;&gt;19</title>
<path fill="none" stroke="grey" stroke-width="2" d="M656.89,-719.16C656.25,-688.97 652.91,-626.21 637,-576 609.62,-489.57 583.06,-476.32 541,-396 507.62,-332.25 497.9,-316.98 467,-252 457.72,-232.48 447.96,-210.21 440.52,-192.82"/>
<polygon fill="grey" stroke="grey" stroke-width="2" points="443.76,-191.5 436.63,-183.66 437.32,-194.24 443.76,-191.5"/>
</g>
<!-- 2 -->
<g id="node3" class="node">
<title>2</title>
<path fill="none" stroke="#5682d8" stroke-width="2" d="M578.5,-828C578.5,-828 509.5,-828 509.5,-828 503.5,-828 497.5,-822 497.5,-816 497.5,-816 497.5,-804 497.5,-804 497.5,-798 503.5,-792 509.5,-792 509.5,-792 578.5,-792 578.5,-792 584.5,-792 590.5,-798 590.5,-804 590.5,-804 590.5,-816 590.5,-816 590.5,-822 584.5,-828 578.5,-828"/>
<text text-anchor="middle" x="544" y="-807.5" font-family="sans" font-size="10.00">count_barcodes</text>
</g>
<!-- 2&#45;&gt;1 -->
<g id="edge5" class="edge">
<title>2&#45;&gt;1</title>
<path fill="none" stroke="grey" stroke-width="2" d="M572.81,-791.15C586.35,-782.76 602.72,-772.62 617.41,-763.52"/>
<polygon fill="grey" stroke="grey" stroke-width="2" points="619.01,-766.65 625.67,-758.41 615.33,-760.7 619.01,-766.65"/>
</g>
<!-- 2&#45;&gt;9 -->
<g id="edge15" class="edge">
<title>2&#45;&gt;9</title>
<path fill="none" stroke="grey" stroke-width="2" d="M541.47,-791.02C538.16,-767.54 532.32,-726.11 528.32,-697.64"/>
<polygon fill="grey" stroke="grey" stroke-width="2" points="531.8,-697.25 526.93,-687.84 524.86,-698.23 531.8,-697.25"/>
</g>
<!-- 3 -->
<g id="node4" class="node">
<title>3</title>
<path fill="none" stroke="#56d88a" stroke-width="2" d="M554,-900C554,-900 458,-900 458,-900 452,-900 446,-894 446,-888 446,-888 446,-876 446,-876 446,-870 452,-864 458,-864 458,-864 554,-864 554,-864 560,-864 566,-870 566,-876 566,-876 566,-888 566,-888 566,-894 560,-900 554,-900"/>
<text text-anchor="middle" x="506" y="-879.5" font-family="sans" font-size="10.00">build_codon_variants</text>
</g>
<!-- 3&#45;&gt;1 -->
<g id="edge6" class="edge">
<title>3&#45;&gt;1</title>
<path fill="none" stroke="grey" stroke-width="2" d="M546.79,-863.11C564.16,-854.2 583.85,-842.27 599,-828 617.17,-810.88 632.34,-786.99 642.6,-768.26"/>
<polygon fill="grey" stroke="grey" stroke-width="2" points="645.65,-769.99 647.21,-759.51 639.45,-766.73 645.65,-769.99"/>
</g>
<!-- 3&#45;&gt;2 -->
<g id="edge8" class="edge">
<title>3&#45;&gt;2</title>
<path fill="none" stroke="grey" stroke-width="2" d="M515.59,-863.34C519.39,-856.34 523.85,-848.12 528.11,-840.28"/>
<polygon fill="grey" stroke="grey" stroke-width="2" points="531.14,-842.02 532.84,-831.56 524.99,-838.68 531.14,-842.02"/>
</g>
<!-- 3&#45;&gt;9 -->
<g id="edge17" class="edge">
<title>3&#45;&gt;9</title>
<path fill="none" stroke="grey" stroke-width="2" d="M498.33,-863.22C494.39,-853.11 490,-840.08 488,-828 480.34,-781.6 497.31,-728.48 510.48,-696.36"/>
<polygon fill="grey" stroke="grey" stroke-width="2" points="513.54,-698.09 514.26,-687.52 507.11,-695.34 513.54,-698.09"/>
</g>
<!-- 3&#45;&gt;12 -->
<g id="edge22" class="edge">
<title>3&#45;&gt;12</title>
<path fill="none" stroke="grey" stroke-width="2" d="M566.9,-875.75C695.49,-862.99 983,-824.86 983,-739 983,-739 983,-739 983,-665 983,-624.28 965.37,-580.17 951.7,-552.1"/>
<polygon fill="grey" stroke="grey" stroke-width="2" points="954.97,-550.8 947.33,-543.46 948.72,-553.96 954.97,-550.8"/>
</g>
<!-- 3&#45;&gt;13 -->
<g id="edge33" class="edge">
<title>3&#45;&gt;13</title>
<path fill="none" stroke="grey" stroke-width="2" d="M566.83,-877.17C663.9,-870.37 848.99,-854.36 909,-828 1030.83,-774.49 1097,-728.06 1097,-595 1097,-595 1097,-595 1097,-233 1097,-163.9 1015.36,-124.37 959.11,-105.34"/>
<polygon fill="grey" stroke="grey" stroke-width="2" points="960.3,-102.05 949.71,-102.3 958.15,-108.71 960.3,-102.05"/>
</g>
<!-- 16 -->
<g id="node17" class="node">
<title>16</title>
<path fill="none" stroke="#d86e56" stroke-width="2" d="M426.5,-324C426.5,-324 371.5,-324 371.5,-324 365.5,-324 359.5,-318 359.5,-312 359.5,-312 359.5,-300 359.5,-300 359.5,-294 365.5,-288 371.5,-288 371.5,-288 426.5,-288 426.5,-288 432.5,-288 438.5,-294 438.5,-300 438.5,-300 438.5,-312 438.5,-312 438.5,-318 432.5,-324 426.5,-324"/>
<text text-anchor="middle" x="399" y="-303.5" font-family="sans" font-size="10.00">make_nblink</text>
</g>
<!-- 3&#45;&gt;16 -->
<g id="edge45" class="edge">
<title>3&#45;&gt;16</title>
<path fill="none" stroke="grey" stroke-width="2" d="M476.09,-863.04C426.34,-830.63 332,-757.26 332,-667 332,-667 332,-667 332,-593 332,-532.83 369.49,-526.4 384,-468 395.08,-423.42 398.12,-370.06 398.88,-337.35"/>
<polygon fill="grey" stroke="grey" stroke-width="2" points="402.37,-337.76 399.03,-327.71 395.37,-337.65 402.37,-337.76"/>
</g>
<!-- 3&#45;&gt;19 -->
<g id="edge57" class="edge">
<title>3&#45;&gt;19</title>
<path fill="none" stroke="grey" stroke-width="2" d="M451.45,-863.12C430.77,-854.61 407.92,-842.98 390,-828 312.36,-763.1 328.61,-712.64 318,-612 299.51,-436.59 192.47,-361.61 292,-216 311.39,-187.63 348.41,-174.44 378.93,-168.31"/>
<polygon fill="grey" stroke="grey" stroke-width="2" points="379.32,-171.8 388.57,-166.62 378.11,-164.91 379.32,-171.8"/>
</g>
<!-- 4 -->
<g id="node5" class="node">
<title>4</title>
<path fill="none" stroke="#61d856" stroke-width="2" d="M292,-972C292,-972 182,-972 182,-972 176,-972 170,-966 170,-960 170,-960 170,-948 170,-948 170,-942 176,-936 182,-936 182,-936 292,-936 292,-936 298,-936 304,-942 304,-948 304,-948 304,-960 304,-960 304,-966 298,-972 292,-972"/>
<text text-anchor="middle" x="237" y="-951.5" font-family="sans" font-size="10.00">build_pacbio_consensus</text>
</g>
<!-- 4&#45;&gt;3 -->
<g id="edge10" class="edge">
<title>4&#45;&gt;3</title>
<path fill="none" stroke="grey" stroke-width="2" d="M304.88,-935.34C343.78,-925.21 392.63,-912.5 432.45,-902.14"/>
<polygon fill="grey" stroke="grey" stroke-width="2" points="433.31,-905.53 442.1,-899.63 431.54,-898.76 433.31,-905.53"/>
</g>
<!-- 4&#45;&gt;13 -->
<g id="edge38" class="edge">
<title>4&#45;&gt;13</title>
<path fill="none" stroke="grey" stroke-width="2" d="M214.97,-935.36C186.9,-910.74 142,-863.2 142,-811 142,-811 142,-811 142,-593 142,-425.44 8.84,-313.66 145,-216 224.15,-159.23 256.84,-164.78 352,-144 533.5,-104.37 754.8,-94.37 854.21,-91.85"/>
<polygon fill="grey" stroke="grey" stroke-width="2" points="854.19,-95.35 864.11,-91.62 854.03,-88.35 854.19,-95.35"/>
</g>
<!-- 4&#45;&gt;16 -->
<g id="edge47" class="edge">
<title>4&#45;&gt;16</title>
<path fill="none" stroke="grey" stroke-width="2" d="M240.94,-935.17C246.5,-908.36 256,-856.02 256,-811 256,-811 256,-811 256,-665 256,-534.18 339.37,-394.42 378.8,-335.64"/>
<polygon fill="grey" stroke="grey" stroke-width="2" points="381.61,-337.72 384.35,-327.49 375.83,-333.78 381.61,-337.72"/>
</g>
<!-- 4&#45;&gt;19 -->
<g id="edge61" class="edge">
<title>4&#45;&gt;19</title>
<path fill="none" stroke="grey" stroke-width="2" d="M233.06,-935.17C227.5,-908.36 218,-856.02 218,-811 218,-811 218,-811 218,-521 218,-383.71 172.23,-315.34 267,-216 296.22,-185.37 343.43,-172.43 379.19,-166.97"/>
<polygon fill="grey" stroke="grey" stroke-width="2" points="379.35,-170.48 388.79,-165.68 378.41,-163.54 379.35,-170.48"/>
</g>
<!-- 5 -->
<g id="node6" class="node">
<title>5</title>
<path fill="none" stroke="#d87d56" stroke-width="2" d="M129.5,-1044C129.5,-1044 40.5,-1044 40.5,-1044 34.5,-1044 28.5,-1038 28.5,-1032 28.5,-1032 28.5,-1020 28.5,-1020 28.5,-1014 34.5,-1008 40.5,-1008 40.5,-1008 129.5,-1008 129.5,-1008 135.5,-1008 141.5,-1014 141.5,-1020 141.5,-1020 141.5,-1032 141.5,-1032 141.5,-1038 135.5,-1044 129.5,-1044"/>
<text text-anchor="middle" x="85" y="-1023.5" font-family="sans" font-size="10.00">analyze_pacbio_ccs</text>
</g>
<!-- 5&#45;&gt;4 -->
<g id="edge11" class="edge">
<title>5&#45;&gt;4</title>
<path fill="none" stroke="grey" stroke-width="2" d="M123.75,-1007.15C142.79,-998.38 165.98,-987.71 186.4,-978.3"/>
<polygon fill="grey" stroke="grey" stroke-width="2" points="187.69,-981.56 195.31,-974.2 184.76,-975.2 187.69,-981.56"/>
</g>
<!-- 5&#45;&gt;13 -->
<g id="edge32" class="edge">
<title>5&#45;&gt;13</title>
<path fill="none" stroke="grey" stroke-width="2" d="M65.71,-1007.31C40.63,-982.27 0,-933.86 0,-883 0,-883 0,-883 0,-233 0,-134.89 106.82,-167.8 202,-144 325.57,-113.1 712.19,-97.47 854.09,-92.66"/>
<polygon fill="grey" stroke="grey" stroke-width="2" points="854.14,-96.16 864.02,-92.33 853.9,-89.16 854.14,-96.16"/>
</g>
<!-- 5&#45;&gt;16 -->
<g id="edge44" class="edge">
<title>5&#45;&gt;16</title>
<path fill="none" stroke="grey" stroke-width="2" d="M99.22,-1007.03C125.72,-971.67 180,-889.66 180,-811 180,-811 180,-811 180,-521 180,-428.04 282.18,-362.23 346.95,-329.85"/>
<polygon fill="grey" stroke="grey" stroke-width="2" points="348.39,-333.04 355.85,-325.52 345.33,-326.75 348.39,-333.04"/>
</g>
<!-- 5&#45;&gt;19 -->
<g id="edge56" class="edge">
<title>5&#45;&gt;19</title>
<path fill="none" stroke="grey" stroke-width="2" d="M81.06,-1007.17C75.5,-980.36 66,-928.02 66,-883 66,-883 66,-883 66,-593 66,-415.76 46.93,-311.87 196,-216 251.86,-180.07 329.05,-168.37 378.76,-164.63"/>
<polygon fill="grey" stroke="grey" stroke-width="2" points="378.92,-168.13 388.68,-163.99 378.47,-161.14 378.92,-168.13"/>
</g>
<!-- 6 -->
<g id="node7" class="node">
<title>6</title>
<path fill="none" stroke="#c6d856" stroke-width="2" d="M138.5,-1116C138.5,-1116 31.5,-1116 31.5,-1116 25.5,-1116 19.5,-1110 19.5,-1104 19.5,-1104 19.5,-1092 19.5,-1092 19.5,-1086 25.5,-1080 31.5,-1080 31.5,-1080 138.5,-1080 138.5,-1080 144.5,-1080 150.5,-1086 150.5,-1092 150.5,-1092 150.5,-1104 150.5,-1104 150.5,-1110 144.5,-1116 138.5,-1116"/>
<text text-anchor="middle" x="85" y="-1095.5" font-family="sans" font-size="10.00">align_parse_PacBio_ccs</text>
</g>
<!-- 6&#45;&gt;5 -->
<g id="edge13" class="edge">
<title>6&#45;&gt;5</title>
<path fill="none" stroke="grey" stroke-width="2" d="M85,-1079.34C85,-1072.75 85,-1065.08 85,-1057.67"/>
<polygon fill="grey" stroke="grey" stroke-width="2" points="88.5,-1057.93 85,-1047.93 81.5,-1057.93 88.5,-1057.93"/>
</g>
<!-- 7 -->
<g id="node8" class="node">
<title>7</title>
<path fill="none" stroke="#56d8c9" stroke-width="2" d="M540,-1044C540,-1044 472,-1044 472,-1044 466,-1044 460,-1038 460,-1032 460,-1032 460,-1020 460,-1020 460,-1014 466,-1008 472,-1008 472,-1008 540,-1008 540,-1008 546,-1008 552,-1014 552,-1020 552,-1020 552,-1032 552,-1032 552,-1038 546,-1044 540,-1044"/>
<text text-anchor="middle" x="506" y="-1023.5" font-family="sans" font-size="10.00">gene_sequence</text>
</g>
<!-- 7&#45;&gt;1 -->
<g id="edge7" class="edge">
<title>7&#45;&gt;1</title>
<path fill="none" stroke="grey" stroke-width="2" d="M519.15,-1007.09C543.38,-973.45 595.55,-897.87 628,-828 636.78,-809.09 644.04,-786.78 649.11,-769.23"/>
<polygon fill="grey" stroke="grey" stroke-width="2" points="652.42,-770.36 651.73,-759.79 645.68,-768.49 652.42,-770.36"/>
</g>
<!-- 7&#45;&gt;3 -->
<g id="edge9" class="edge">
<title>7&#45;&gt;3</title>
<path fill="none" stroke="grey" stroke-width="2" d="M506,-1007.02C506,-983.54 506,-942.11 506,-913.64"/>
<polygon fill="grey" stroke="grey" stroke-width="2" points="509.5,-913.87 506,-903.87 502.5,-913.87 509.5,-913.87"/>
</g>
<!-- 7&#45;&gt;4 -->
<g id="edge12" class="edge">
<title>7&#45;&gt;4</title>
<path fill="none" stroke="grey" stroke-width="2" d="M459.14,-1012.81C420.12,-1002.65 363.67,-987.96 317.44,-975.93"/>
<polygon fill="grey" stroke="grey" stroke-width="2" points="318.49,-972.59 307.93,-973.46 316.73,-979.36 318.49,-972.59"/>
</g>
<!-- 7&#45;&gt;9 -->
<g id="edge18" class="edge">
<title>7&#45;&gt;9</title>
<path fill="none" stroke="grey" stroke-width="2" d="M492.32,-1007.2C475.45,-984.01 447.7,-941.53 437,-900 433.01,-884.51 434.29,-879.77 437,-864 448.5,-797.09 457.34,-780.58 488,-720 492.18,-711.73 497.46,-703.23 502.67,-695.53"/>
<polygon fill="grey" stroke="grey" stroke-width="2" points="505.49,-697.6 508.38,-687.4 499.77,-693.57 505.49,-697.6"/>
</g>
<!-- 7&#45;&gt;12 -->
<g id="edge23" class="edge">
<title>7&#45;&gt;12</title>
<path fill="none" stroke="grey" stroke-width="2" d="M552.67,-1023C685.99,-1016.03 1059,-987.2 1059,-883 1059,-883 1059,-883 1059,-665 1059,-614.31 1013.66,-572.83 978.04,-548.06"/>
<polygon fill="grey" stroke="grey" stroke-width="2" points="980.13,-545.25 969.87,-542.6 976.24,-551.07 980.13,-545.25"/>
</g>
<!-- 7&#45;&gt;13 -->
<g id="edge37" class="edge">
<title>7&#45;&gt;13</title>
<path fill="none" stroke="grey" stroke-width="2" d="M552.9,-1025.03C704.73,-1023.86 1173,-1009.98 1173,-883 1173,-883 1173,-883 1173,-521 1173,-434.33 1139.45,-199.65 1073,-144 1040.88,-117.1 994.93,-103.8 959.51,-97.25"/>
<polygon fill="grey" stroke="grey" stroke-width="2" points="960.42,-93.85 949.97,-95.63 959.25,-100.75 960.42,-93.85"/>
</g>
<!-- 7&#45;&gt;19 -->
<g id="edge60" class="edge">
<title>7&#45;&gt;19</title>
<path fill="none" stroke="grey" stroke-width="2" d="M459.18,-1023.21C376.06,-1019.18 207.12,-1006.83 161,-972 100.42,-926.26 104,-886.91 104,-811 104,-811 104,-811 104,-593 104,-415.62 102.58,-334.02 235,-216 274.76,-180.56 336.1,-168.56 378.92,-164.64"/>
<polygon fill="grey" stroke="grey" stroke-width="2" points="379.13,-168.13 388.83,-163.87 378.59,-161.15 379.13,-168.13"/>
</g>
<!-- 8 -->
<g id="node9" class="node">
<title>8</title>
<path fill="none" stroke="#566bd8" stroke-width="2" d="M616.5,-612C616.5,-612 467.5,-612 467.5,-612 461.5,-612 455.5,-606 455.5,-600 455.5,-600 455.5,-588 455.5,-588 455.5,-582 461.5,-576 467.5,-576 467.5,-576 616.5,-576 616.5,-576 622.5,-576 628.5,-582 628.5,-588 628.5,-588 628.5,-600 628.5,-600 628.5,-606 622.5,-612 616.5,-612"/>
<text text-anchor="middle" x="542" y="-591.5" font-family="sans" font-size="10.00">check_adequate_variant_counts</text>
</g>
<!-- 8&#45;&gt;0 -->
<g id="edge4" class="edge">
<title>8&#45;&gt;0</title>
<path fill="none" stroke="grey" stroke-width="2" d="M505.28,-575.14C405.15,-523.91 140.56,-370.24 229,-216 307.97,-78.28 845.99,-31.99 999.31,-21.51"/>
<polygon fill="grey" stroke="grey" stroke-width="2" points="999.35,-25.02 1009.09,-20.86 998.88,-18.03 999.35,-25.02"/>
</g>
<!-- 8&#45;&gt;12 -->
<g id="edge24" class="edge">
<title>8&#45;&gt;12</title>
<path fill="none" stroke="grey" stroke-width="2" d="M629.44,-577.46C707.28,-563.64 818.58,-543.86 883.46,-532.33"/>
<polygon fill="grey" stroke="grey" stroke-width="2" points="883.97,-535.8 893.2,-530.6 882.75,-528.91 883.97,-535.8"/>
</g>
<!-- 9&#45;&gt;8 -->
<g id="edge14" class="edge">
<title>9&#45;&gt;8</title>
<path fill="none" stroke="grey" stroke-width="2" d="M528.54,-647.34C530.26,-640.67 532.26,-632.89 534.19,-625.39"/>
<polygon fill="grey" stroke="grey" stroke-width="2" points="537.54,-626.39 536.64,-615.83 530.76,-624.65 537.54,-626.39"/>
</g>
<!-- 9&#45;&gt;13 -->
<g id="edge34" class="edge">
<title>9&#45;&gt;13</title>
<path fill="none" stroke="grey" stroke-width="2" d="M566.08,-647.08C587.68,-637.44 614.17,-624.89 637,-612 731.89,-558.42 1021,-415.98 1021,-307 1021,-307 1021,-307 1021,-233 1021,-183.65 978.61,-141.68 945.53,-116.45"/>
<polygon fill="grey" stroke="grey" stroke-width="2" points="947.75,-113.74 937.62,-110.64 943.61,-119.38 947.75,-113.74"/>
</g>
<!-- 9&#45;&gt;16 -->
<g id="edge46" class="edge">
<title>9&#45;&gt;16</title>
<path fill="none" stroke="grey" stroke-width="2" d="M484.15,-647.12C469.73,-638.59 454.84,-626.93 446,-612 388.69,-515.18 450.07,-468.95 422,-360 419.98,-352.16 416.95,-343.99 413.74,-336.49"/>
<polygon fill="grey" stroke="grey" stroke-width="2" points="416.93,-335.05 409.59,-327.41 410.56,-337.96 416.93,-335.05"/>
</g>
<!-- 9&#45;&gt;19 -->
<g id="edge58" class="edge">
<title>9&#45;&gt;19</title>
<path fill="none" stroke="grey" stroke-width="2" d="M474.68,-647.08C457.31,-638.7 438.92,-627.16 426,-612 316.04,-482.99 328.4,-419.12 300,-252 297.32,-236.23 291.11,-229.3 300,-216 317.56,-189.73 350.81,-176.46 379.02,-169.77"/>
<polygon fill="grey" stroke="grey" stroke-width="2" points="379.52,-173.24 388.59,-167.76 378.08,-166.39 379.52,-173.24"/>
</g>
<!-- 10 -->
<g id="node11" class="node">
<title>10</title>
<path fill="none" stroke="#56d863" stroke-width="2" d="M847,-396C847,-396 749,-396 749,-396 743,-396 737,-390 737,-384 737,-384 737,-372 737,-372 737,-366 743,-360 749,-360 749,-360 847,-360 847,-360 853,-360 859,-366 859,-372 859,-372 859,-384 859,-384 859,-390 853,-396 847,-396"/>
<text text-anchor="middle" x="798" y="-375.5" font-family="sans" font-size="10.00">avg_antibody_escape</text>
</g>
<!-- 10&#45;&gt;0 -->
<g id="edge2" class="edge">
<title>10&#45;&gt;0</title>
<path fill="none" stroke="grey" stroke-width="2" d="M845.07,-359.12C863.43,-350.51 883.69,-338.79 899,-324 980.73,-245.03 1019.73,-109.61 1033.7,-49.4"/>
<polygon fill="grey" stroke="grey" stroke-width="2" points="1037.09,-50.24 1035.85,-39.71 1030.26,-48.71 1037.09,-50.24"/>
</g>
<!-- 10&#45;&gt;13 -->
<g id="edge27" class="edge">
<title>10&#45;&gt;13</title>
<path fill="none" stroke="grey" stroke-width="2" d="M825.55,-359.05C855.54,-337.68 901.79,-298.91 921,-252 938.65,-208.91 927.53,-154.02 917.52,-120.74"/>
<polygon fill="grey" stroke="grey" stroke-width="2" points="920.98,-120.05 914.59,-111.59 914.31,-122.19 920.98,-120.05"/>
</g>
<!-- 10&#45;&gt;16 -->
<g id="edge43" class="edge">
<title>10&#45;&gt;16</title>
<path fill="none" stroke="grey" stroke-width="2" d="M736.09,-366.14C658.14,-352.46 525.55,-329.2 452.04,-316.3"/>
<polygon fill="grey" stroke="grey" stroke-width="2" points="452.89,-312.9 442.44,-314.62 451.69,-319.8 452.89,-312.9"/>
</g>
<!-- 18 -->
<g id="node19" class="node">
<title>18</title>
<path fill="none" stroke="#5692d8" stroke-width="2" d="M866.5,-252C866.5,-252 729.5,-252 729.5,-252 723.5,-252 717.5,-246 717.5,-240 717.5,-240 717.5,-228 717.5,-228 717.5,-222 723.5,-216 729.5,-216 729.5,-216 866.5,-216 866.5,-216 872.5,-216 878.5,-222 878.5,-228 878.5,-228 878.5,-240 878.5,-240 878.5,-246 872.5,-252 866.5,-252"/>
<text text-anchor="middle" x="798" y="-231.5" font-family="sans" font-size="10.00">format_antibody_escape_plot</text>
</g>
<!-- 10&#45;&gt;18 -->
<g id="edge48" class="edge">
<title>10&#45;&gt;18</title>
<path fill="none" stroke="grey" stroke-width="2" d="M798,-359.02C798,-335.54 798,-294.11 798,-265.64"/>
<polygon fill="grey" stroke="grey" stroke-width="2" points="801.5,-265.87 798,-255.87 794.5,-265.87 801.5,-265.87"/>
</g>
<!-- 10&#45;&gt;19 -->
<g id="edge51" class="edge">
<title>10&#45;&gt;19</title>
<path fill="none" stroke="grey" stroke-width="2" d="M780.7,-359.16C760.43,-339.21 725.01,-307.17 689,-288 640.23,-262.03 618.61,-278.27 570,-252 548.07,-240.15 547.65,-229.96 527,-216 510.86,-205.09 492.23,-194.62 475.52,-185.91"/>
<polygon fill="grey" stroke="grey" stroke-width="2" points="477.5,-183 467.01,-181.56 474.32,-189.23 477.5,-183"/>
</g>
<!-- 11 -->
<g id="node12" class="node">
<title>11</title>
<path fill="none" stroke="#b6d856" stroke-width="2" d="M827,-468C827,-468 769,-468 769,-468 763,-468 757,-462 757,-456 757,-456 757,-444 757,-444 757,-438 763,-432 769,-432 769,-432 827,-432 827,-432 833,-432 839,-438 839,-444 839,-444 839,-456 839,-456 839,-462 833,-468 827,-468"/>
<text text-anchor="middle" x="798" y="-447.5" font-family="sans" font-size="10.00">fit_polyclonal</text>
</g>
<!-- 11&#45;&gt;10 -->
<g id="edge19" class="edge">
<title>11&#45;&gt;10</title>
<path fill="none" stroke="grey" stroke-width="2" d="M798,-431.34C798,-424.75 798,-417.08 798,-409.67"/>
<polygon fill="grey" stroke="grey" stroke-width="2" points="801.5,-409.93 798,-399.93 794.5,-409.93 801.5,-409.93"/>
</g>
<!-- 11&#45;&gt;13 -->
<g id="edge26" class="edge">
<title>11&#45;&gt;13</title>
<path fill="none" stroke="grey" stroke-width="2" d="M839.98,-437.25C894.56,-419.11 983,-378.66 983,-307 983,-307 983,-307 983,-233 983,-189.06 954.36,-145.56 932.25,-118.52"/>
<polygon fill="grey" stroke="grey" stroke-width="2" points="934.97,-116.31 925.83,-110.96 929.64,-120.85 934.97,-116.31"/>
</g>
<!-- 11&#45;&gt;16 -->
<g id="edge42" class="edge">
<title>11&#45;&gt;16</title>
<path fill="none" stroke="grey" stroke-width="2" d="M756.18,-445C704.21,-439 613.51,-425.1 541,-396 500.95,-379.93 459.65,-352.61 431.98,-332.47"/>
<polygon fill="grey" stroke="grey" stroke-width="2" points="434.27,-329.81 424.15,-326.67 430.11,-335.43 434.27,-329.81"/>
</g>
<!-- 11&#45;&gt;19 -->
<g id="edge50" class="edge">
<title>11&#45;&gt;19</title>
<path fill="none" stroke="grey" stroke-width="2" d="M774.32,-431.12C760.75,-420.86 743.4,-407.73 728,-396 707.07,-380.06 702.22,-375.56 681,-360 613.58,-310.57 587.56,-309.63 527,-252 512.32,-238.03 513.47,-230.19 499,-216 488.93,-206.13 476.96,-196.53 465.75,-188.27"/>
<polygon fill="grey" stroke="grey" stroke-width="2" points="467.95,-185.54 457.78,-182.56 463.88,-191.23 467.95,-185.54"/>
</g>
<!-- 12&#45;&gt;11 -->
<g id="edge20" class="edge">
<title>12&#45;&gt;11</title>
<path fill="none" stroke="grey" stroke-width="2" d="M900.82,-503.15C883.71,-494.47 862.91,-483.92 844.5,-474.59"/>
<polygon fill="grey" stroke="grey" stroke-width="2" points="846.32,-471.58 835.82,-470.18 843.15,-477.83 846.32,-471.58"/>
</g>
<!-- 14 -->
<g id="node15" class="node">
<title>14</title>
<path fill="none" stroke="#d85656" stroke-width="2" d="M660,-396C660,-396 562,-396 562,-396 556,-396 550,-390 550,-384 550,-384 550,-372 550,-372 550,-366 556,-360 562,-360 562,-360 660,-360 660,-360 666,-360 672,-366 672,-372 672,-372 672,-384 672,-384 672,-390 666,-396 660,-396"/>
<text text-anchor="middle" x="611" y="-375.5" font-family="sans" font-size="10.00">analyze_prob_escape</text>
</g>
<!-- 12&#45;&gt;14 -->
<g id="edge39" class="edge">
<title>12&#45;&gt;14</title>
<path fill="none" stroke="grey" stroke-width="2" d="M896.27,-513.45C857.36,-505.21 796.96,-490.18 748,-468 710.08,-450.82 670.61,-424.08 643.83,-404.4"/>
<polygon fill="grey" stroke="grey" stroke-width="2" points="646.05,-401.69 635.94,-398.51 641.87,-407.3 646.05,-401.69"/>
</g>
<!-- 13&#45;&gt;0 -->
<g id="edge3" class="edge">
<title>13&#45;&gt;0</title>
<path fill="none" stroke="grey" stroke-width="2" d="M940.91,-71.15C959.26,-61.49 982.02,-49.52 1001.09,-39.48"/>
<polygon fill="grey" stroke="grey" stroke-width="2" points="1002.52,-42.68 1009.74,-34.92 999.26,-36.48 1002.52,-42.68"/>
</g>
<!-- 14&#45;&gt;13 -->
<g id="edge25" class="edge">
<title>14&#45;&gt;13</title>
<path fill="none" stroke="grey" stroke-width="2" d="M672.8,-367.03C737.27,-353.14 835.94,-321.37 887,-252 915.01,-213.95 914.9,-156.65 911.5,-121.65"/>
<polygon fill="grey" stroke="grey" stroke-width="2" points="915,-121.53 910.37,-112 908.05,-122.34 915,-121.53"/>
</g>
<!-- 14&#45;&gt;16 -->
<g id="edge41" class="edge">
<title>14&#45;&gt;16</title>
<path fill="none" stroke="grey" stroke-width="2" d="M556.68,-359.06C524.41,-348.41 483.67,-334.96 451.69,-324.4"/>
<polygon fill="grey" stroke="grey" stroke-width="2" points="452.92,-321.12 442.33,-321.31 450.72,-327.76 452.92,-321.12"/>
</g>
<!-- 14&#45;&gt;19 -->
<g id="edge49" class="edge">
<title>14&#45;&gt;19</title>
<path fill="none" stroke="grey" stroke-width="2" d="M594.35,-359.07C572.17,-335.05 531.93,-290.94 499,-252 482.09,-232 463.66,-208.86 449.82,-191.19"/>
<polygon fill="grey" stroke="grey" stroke-width="2" points="452.62,-189.09 443.71,-183.36 447.1,-193.4 452.62,-189.09"/>
</g>
<!-- 15 -->
<g id="node16" class="node">
<title>15</title>
<path fill="none" stroke="#56d873" stroke-width="2" d="M358.5,-252C358.5,-252 321.5,-252 321.5,-252 315.5,-252 309.5,-246 309.5,-240 309.5,-240 309.5,-228 309.5,-228 309.5,-222 315.5,-216 321.5,-216 321.5,-216 358.5,-216 358.5,-216 364.5,-216 370.5,-222 370.5,-228 370.5,-228 370.5,-240 370.5,-240 370.5,-246 364.5,-252 358.5,-252"/>
<text text-anchor="middle" x="340" y="-231.5" font-family="sans" font-size="10.00">subindex</text>
</g>
<!-- 15&#45;&gt;13 -->
<g id="edge29" class="edge">
<title>15&#45;&gt;13</title>
<path fill="none" stroke="grey" stroke-width="2" d="M343.21,-215.28C347.98,-194.49 359.1,-160.73 383,-144 421.08,-117.34 729.26,-99.59 854.44,-93.42"/>
<polygon fill="grey" stroke="grey" stroke-width="2" points="854.53,-96.92 864.35,-92.94 854.19,-89.93 854.53,-96.92"/>
</g>
<!-- 15&#45;&gt;19 -->
<g id="edge53" class="edge">
<title>15&#45;&gt;19</title>
<path fill="none" stroke="grey" stroke-width="2" d="M362.21,-215.34C372.24,-207.36 384.29,-197.77 395.33,-188.99"/>
<polygon fill="grey" stroke="grey" stroke-width="2" points="397.48,-191.75 403.13,-182.79 393.12,-186.27 397.48,-191.75"/>
</g>
<!-- 16&#45;&gt;13 -->
<g id="edge28" class="edge">
<title>16&#45;&gt;13</title>
<path fill="none" stroke="grey" stroke-width="2" d="M439.41,-304.05C494.46,-301.26 594.78,-290.75 670,-252 690.68,-241.34 689.62,-230.26 708,-216 758.54,-176.81 821.8,-138.74 863.26,-115.12"/>
<polygon fill="grey" stroke="grey" stroke-width="2" points="864.72,-118.31 871.71,-110.34 861.28,-112.22 864.72,-118.31"/>
</g>
<!-- 16&#45;&gt;15 -->
<g id="edge40" class="edge">
<title>16&#45;&gt;15</title>
<path fill="none" stroke="grey" stroke-width="2" d="M384.11,-287.34C377.8,-279.85 370.3,-270.95 363.29,-262.63"/>
<polygon fill="grey" stroke="grey" stroke-width="2" points="366.16,-260.61 357.04,-255.22 360.81,-265.12 366.16,-260.61"/>
</g>
<!-- 16&#45;&gt;19 -->
<g id="edge52" class="edge">
<title>16&#45;&gt;19</title>
<path fill="none" stroke="grey" stroke-width="2" d="M402.67,-287.02C407.49,-263.44 416.01,-221.73 421.82,-193.25"/>
<polygon fill="grey" stroke="grey" stroke-width="2" points="425.18,-194.3 423.75,-183.8 418.32,-192.9 425.18,-194.3"/>
</g>
<!-- 17 -->
<g id="node18" class="node">
<title>17</title>
<path fill="none" stroke="#9fd856" stroke-width="2" d="M649,-252C649,-252 591,-252 591,-252 585,-252 579,-246 579,-240 579,-240 579,-228 579,-228 579,-222 585,-216 591,-216 591,-216 649,-216 649,-216 655,-216 661,-222 661,-228 661,-228 661,-240 661,-240 661,-246 655,-252 649,-252"/>
<text text-anchor="middle" x="620" y="-231.5" font-family="sans" font-size="10.00">make_graphs</text>
</g>
<!-- 17&#45;&gt;13 -->
<g id="edge30" class="edge">
<title>17&#45;&gt;13</title>
<path fill="none" stroke="grey" stroke-width="2" d="M626.09,-215.34C634.06,-194.93 650.03,-161.86 675,-144 728.06,-106.05 803.92,-94.75 854.27,-91.66"/>
<polygon fill="grey" stroke="grey" stroke-width="2" points="854.29,-95.17 864.1,-91.17 853.94,-88.18 854.29,-95.17"/>
</g>
<!-- 17&#45;&gt;19 -->
<g id="edge54" class="edge">
<title>17&#45;&gt;19</title>
<path fill="none" stroke="grey" stroke-width="2" d="M578.34,-217.81C548.35,-206.88 507.81,-192.1 476.39,-180.64"/>
<polygon fill="grey" stroke="grey" stroke-width="2" points="477.84,-177.45 467.25,-177.31 475.44,-184.02 477.84,-177.45"/>
</g>
<!-- 18&#45;&gt;13 -->
<g id="edge35" class="edge">
<title>18&#45;&gt;13</title>
<path fill="none" stroke="grey" stroke-width="2" d="M811.8,-215.02C830.4,-190.8 863.67,-147.45 885.54,-118.96"/>
<polygon fill="grey" stroke="grey" stroke-width="2" points="888.15,-121.3 891.46,-111.24 882.6,-117.04 888.15,-121.3"/>
</g>
<!-- 18&#45;&gt;19 -->
<g id="edge59" class="edge">
<title>18&#45;&gt;19</title>
<path fill="none" stroke="grey" stroke-width="2" d="M716.8,-217.64C643.47,-203.77 537.98,-183.81 476.86,-172.24"/>
<polygon fill="grey" stroke="grey" stroke-width="2" points="477.61,-168.82 467.13,-170.4 476.31,-175.7 477.61,-168.82"/>
</g>
<!-- 19&#45;&gt;13 -->
<g id="edge36" class="edge">
<title>19&#45;&gt;13</title>
<path fill="none" stroke="grey" stroke-width="2" d="M464.4,-155.68C548.51,-143.39 756.67,-112.97 854.55,-98.67"/>
<polygon fill="grey" stroke="grey" stroke-width="2" points="854.94,-102.15 864.33,-97.24 853.93,-95.22 854.94,-102.15"/>
</g>
</g>
</svg>
