<?xml version="1.0" encoding="UTF-8" standalone="no"?>
<!DOCTYPE svg PUBLIC "-//W3C//DTD SVG 1.1//EN"
 "http://www.w3.org/Graphics/SVG/1.1/DTD/svg11.dtd">
<!-- Generated by graphviz version 6.0.1 (20220911.2005)
 -->
<!-- Title: snakemake_dag Pages: 1 -->
<svg width="1181pt" height="1124pt"
 viewBox="0.00 0.00 1181.00 1124.00" xmlns="http://www.w3.org/2000/svg" xmlns:xlink="http://www.w3.org/1999/xlink">
<g id="graph0" class="graph" transform="scale(1 1) rotate(0) translate(4 1120)">
<title>snakemake_dag</title>
<polygon fill="white" stroke="none" points="-4,4 -4,-1120 1177,-1120 1177,4 -4,4"/>
<!-- 0 -->
<g id="node1" class="node">
<title>0</title>
<path fill="none" stroke="#d8d356" stroke-width="2" d="M1055,-36C1055,-36 1025,-36 1025,-36 1019,-36 1013,-30 1013,-24 1013,-24 1013,-12 1013,-12 1013,-6 1019,0 1025,0 1025,0 1055,0 1055,0 1061,0 1067,-6 1067,-12 1067,-12 1067,-24 1067,-24 1067,-30 1061,-36 1055,-36"/>
<text text-anchor="middle" x="1040" y="-15.5" font-family="sans" font-size="10.00">all</text>
</g>
<!-- 1 -->
<g id="node2" class="node">
<title>1</title>
<path fill="none" stroke="#56d8c9" stroke-width="2" d="M689.5,-756C689.5,-756 624.5,-756 624.5,-756 618.5,-756 612.5,-750 612.5,-744 612.5,-744 612.5,-732 612.5,-732 612.5,-726 618.5,-720 624.5,-720 624.5,-720 689.5,-720 689.5,-720 695.5,-720 701.5,-726 701.5,-732 701.5,-732 701.5,-744 701.5,-744 701.5,-750 695.5,-756 689.5,-756"/>
<text text-anchor="middle" x="657" y="-735.5" font-family="sans" font-size="10.00">variant_counts</text>
</g>
<!-- 1&#45;&gt;0 -->
<g id="edge4" class="edge">
<title>1&#45;&gt;0</title>
<path fill="none" stroke="grey" stroke-width="2" d="M701.67,-730.74C745.34,-723.47 812.97,-709.15 867,-684 953.44,-643.77 976.93,-621.74 1026,-540 1086.84,-438.66 1126.21,-405.22 1111,-288 1099.22,-197.19 1065.95,-93.35 1049.48,-45.58"/>
<polygon fill="grey" stroke="grey" stroke-width="2" points="1052.73,-44.29 1046.14,-36 1046.12,-46.6 1052.73,-44.29"/>
</g>
<!-- 9 -->
<g id="node10" class="node">
<title>9</title>
<path fill="none" stroke="#56d88a" stroke-width="2" d="M578,-684C578,-684 470,-684 470,-684 464,-684 458,-678 458,-672 458,-672 458,-660 458,-660 458,-654 464,-648 470,-648 470,-648 578,-648 578,-648 584,-648 590,-654 590,-660 590,-660 590,-672 590,-672 590,-678 584,-684 578,-684"/>
<text text-anchor="middle" x="524" y="-663.5" font-family="sans" font-size="10.00">analyze_variant_counts</text>
</g>
<!-- 1&#45;&gt;9 -->
<g id="edge18" class="edge">
<title>1&#45;&gt;9</title>
<path fill="none" stroke="grey" stroke-width="2" d="M624.46,-719.88C606.75,-710.55 584.65,-698.92 565.68,-688.94"/>
<polygon fill="grey" stroke="grey" stroke-width="2" points="567.14,-685.75 556.66,-684.19 563.88,-691.94 567.14,-685.75"/>
</g>
<!-- 12 -->
<g id="node13" class="node">
<title>12</title>
<path fill="none" stroke="#56d8b1" stroke-width="2" d="M963,-540C963,-540 909,-540 909,-540 903,-540 897,-534 897,-528 897,-528 897,-516 897,-516 897,-510 903,-504 909,-504 909,-504 963,-504 963,-504 969,-504 975,-510 975,-516 975,-516 975,-528 975,-528 975,-534 969,-540 963,-540"/>
<text text-anchor="middle" x="936" y="-519.5" font-family="sans" font-size="10.00">prob_escape</text>
</g>
<!-- 1&#45;&gt;12 -->
<g id="edge21" class="edge">
<title>1&#45;&gt;12</title>
<path fill="none" stroke="grey" stroke-width="2" d="M701.78,-720.54C750.86,-700.75 829.7,-663.63 883,-612 901.37,-594.21 915.69,-568.72 924.78,-549.57"/>
<polygon fill="grey" stroke="grey" stroke-width="2" points="928.09,-550.77 929.06,-540.22 921.72,-547.86 928.09,-550.77"/>
</g>
<!-- 13 -->
<g id="node14" class="node">
<title>13</title>
<path fill="none" stroke="#d86e56" stroke-width="2" d="M934,-108C934,-108 880,-108 880,-108 874,-108 868,-102 868,-96 868,-96 868,-84 868,-84 868,-78 874,-72 880,-72 880,-72 934,-72 934,-72 940,-72 946,-78 946,-84 946,-84 946,-96 946,-96 946,-102 940,-108 934,-108"/>
<text text-anchor="middle" x="907" y="-87.5" font-family="sans" font-size="10.00">sphinx_build</text>
</g>
<!-- 1&#45;&gt;13 -->
<g id="edge37" class="edge">
<title>1&#45;&gt;13</title>
<path fill="none" stroke="grey" stroke-width="2" d="M701.82,-727.55C736.31,-719.15 784.45,-704.93 823,-684 996.73,-589.68 1059,-504.68 1059,-307 1059,-307 1059,-307 1059,-233 1059,-175.35 999.89,-134.38 955.39,-111.7"/>
<polygon fill="grey" stroke="grey" stroke-width="2" points="956.66,-108.43 946.14,-107.14 953.56,-114.71 956.66,-108.43"/>
</g>
<!-- 19 -->
<g id="node20" class="node">
<title>19</title>
<path fill="none" stroke="#56a9d8" stroke-width="2" d="M451.5,-180C451.5,-180 404.5,-180 404.5,-180 398.5,-180 392.5,-174 392.5,-168 392.5,-168 392.5,-156 392.5,-156 392.5,-150 398.5,-144 404.5,-144 404.5,-144 451.5,-144 451.5,-144 457.5,-144 463.5,-150 463.5,-156 463.5,-156 463.5,-168 463.5,-168 463.5,-174 457.5,-180 451.5,-180"/>
<text text-anchor="middle" x="428" y="-159.5" font-family="sans" font-size="10.00">docs_index</text>
</g>
<!-- 1&#45;&gt;19 -->
<g id="edge60" class="edge">
<title>1&#45;&gt;19</title>
<path fill="none" stroke="grey" stroke-width="2" d="M656.9,-719.64C656.28,-689.65 652.99,-626.48 637,-576 609.62,-489.57 583.06,-476.32 541,-396 507.62,-332.25 497.9,-316.98 467,-252 457.19,-231.37 446.85,-207.66 439.28,-189.9"/>
<polygon fill="grey" stroke="grey" stroke-width="2" points="442.29,-188.05 435.17,-180.2 435.85,-190.78 442.29,-188.05"/>
</g>
<!-- 2 -->
<g id="node3" class="node">
<title>2</title>
<path fill="none" stroke="#78d856" stroke-width="2" d="M578.5,-828C578.5,-828 509.5,-828 509.5,-828 503.5,-828 497.5,-822 497.5,-816 497.5,-816 497.5,-804 497.5,-804 497.5,-798 503.5,-792 509.5,-792 509.5,-792 578.5,-792 578.5,-792 584.5,-792 590.5,-798 590.5,-804 590.5,-804 590.5,-816 590.5,-816 590.5,-822 584.5,-828 578.5,-828"/>
<text text-anchor="middle" x="544" y="-807.5" font-family="sans" font-size="10.00">count_barcodes</text>
</g>
<!-- 2&#45;&gt;1 -->
<g id="edge6" class="edge">
<title>2&#45;&gt;1</title>
<path fill="none" stroke="grey" stroke-width="2" d="M571.64,-791.88C586.42,-782.72 604.79,-771.34 620.7,-761.48"/>
<polygon fill="grey" stroke="grey" stroke-width="2" points="622.59,-764.43 629.25,-756.19 618.91,-758.48 622.59,-764.43"/>
</g>
<!-- 2&#45;&gt;9 -->
<g id="edge17" class="edge">
<title>2&#45;&gt;9</title>
<path fill="none" stroke="grey" stroke-width="2" d="M541.59,-791.87C538.18,-767.67 531.92,-723.21 527.86,-694.39"/>
<polygon fill="grey" stroke="grey" stroke-width="2" points="531.28,-693.6 526.42,-684.19 524.35,-694.58 531.28,-693.6"/>
</g>
<!-- 3 -->
<g id="node4" class="node">
<title>3</title>
<path fill="none" stroke="#88d856" stroke-width="2" d="M554,-900C554,-900 458,-900 458,-900 452,-900 446,-894 446,-888 446,-888 446,-876 446,-876 446,-870 452,-864 458,-864 458,-864 554,-864 554,-864 560,-864 566,-870 566,-876 566,-876 566,-888 566,-888 566,-894 560,-900 554,-900"/>
<text text-anchor="middle" x="506" y="-879.5" font-family="sans" font-size="10.00">build_codon_variants</text>
</g>
<!-- 3&#45;&gt;1 -->
<g id="edge7" class="edge">
<title>3&#45;&gt;1</title>
<path fill="none" stroke="grey" stroke-width="2" d="M545.4,-863.81C563.1,-854.84 583.44,-842.65 599,-828 618.18,-809.93 634.01,-784.31 644.27,-765.2"/>
<polygon fill="grey" stroke="grey" stroke-width="2" points="647.47,-766.62 648.97,-756.13 641.26,-763.39 647.47,-766.62"/>
</g>
<!-- 3&#45;&gt;2 -->
<g id="edge8" class="edge">
<title>3&#45;&gt;2</title>
<path fill="none" stroke="grey" stroke-width="2" d="M515.39,-863.7C519.76,-855.64 525.06,-845.89 529.9,-836.98"/>
<polygon fill="grey" stroke="grey" stroke-width="2" points="533.02,-838.56 534.71,-828.1 526.87,-835.22 533.02,-838.56"/>
</g>
<!-- 3&#45;&gt;9 -->
<g id="edge16" class="edge">
<title>3&#45;&gt;9</title>
<path fill="none" stroke="grey" stroke-width="2" d="M498.52,-863.7C494.53,-853.52 490.03,-840.27 488,-828 480.12,-780.32 498.27,-725.55 511.56,-693.75"/>
<polygon fill="grey" stroke="grey" stroke-width="2" points="514.9,-694.83 515.66,-684.27 508.48,-692.05 514.9,-694.83"/>
</g>
<!-- 3&#45;&gt;12 -->
<g id="edge22" class="edge">
<title>3&#45;&gt;12</title>
<path fill="none" stroke="grey" stroke-width="2" d="M566.41,-875.8C694.77,-863.09 983,-824.97 983,-739 983,-739 983,-739 983,-665 983,-622.96 964.2,-577.29 950.38,-549.41"/>
<polygon fill="grey" stroke="grey" stroke-width="2" points="953.4,-547.63 945.74,-540.32 947.17,-550.82 953.4,-547.63"/>
</g>
<!-- 3&#45;&gt;13 -->
<g id="edge30" class="edge">
<title>3&#45;&gt;13</title>
<path fill="none" stroke="grey" stroke-width="2" d="M566.05,-877.23C662.9,-870.46 848.83,-854.43 909,-828 1030.83,-774.49 1097,-728.06 1097,-595 1097,-595 1097,-595 1097,-233 1097,-162.68 1012.48,-123 956.18,-104.36"/>
<polygon fill="grey" stroke="grey" stroke-width="2" points="956.96,-100.94 946.37,-101.23 954.83,-107.6 956.96,-100.94"/>
</g>
<!-- 16 -->
<g id="node17" class="node">
<title>16</title>
<path fill="none" stroke="#61d856" stroke-width="2" d="M426.5,-324C426.5,-324 371.5,-324 371.5,-324 365.5,-324 359.5,-318 359.5,-312 359.5,-312 359.5,-300 359.5,-300 359.5,-294 365.5,-288 371.5,-288 371.5,-288 426.5,-288 426.5,-288 432.5,-288 438.5,-294 438.5,-300 438.5,-300 438.5,-312 438.5,-312 438.5,-318 432.5,-324 426.5,-324"/>
<text text-anchor="middle" x="399" y="-303.5" font-family="sans" font-size="10.00">make_nblink</text>
</g>
<!-- 3&#45;&gt;16 -->
<g id="edge43" class="edge">
<title>3&#45;&gt;16</title>
<path fill="none" stroke="grey" stroke-width="2" d="M477.27,-863.8C427.85,-831.79 332,-757.98 332,-667 332,-667 332,-667 332,-593 332,-532.83 369.49,-526.4 384,-468 395.43,-421.98 398.31,-366.6 398.94,-334.25"/>
<polygon fill="grey" stroke="grey" stroke-width="2" points="402.44,-334.25 399.08,-324.2 395.44,-334.15 402.44,-334.25"/>
</g>
<!-- 3&#45;&gt;19 -->
<g id="edge53" class="edge">
<title>3&#45;&gt;19</title>
<path fill="none" stroke="grey" stroke-width="2" d="M453.5,-863.95C432.3,-855.38 408.52,-843.48 390,-828 312.36,-763.1 328.61,-712.64 318,-612 299.51,-436.59 192.47,-361.61 292,-216 312.11,-186.58 351.15,-173.49 382.27,-167.67"/>
<polygon fill="grey" stroke="grey" stroke-width="2" points="383.19,-171.06 392.48,-165.96 382.04,-164.16 383.19,-171.06"/>
</g>
<!-- 4 -->
<g id="node5" class="node">
<title>4</title>
<path fill="none" stroke="#5692d8" stroke-width="2" d="M292,-972C292,-972 182,-972 182,-972 176,-972 170,-966 170,-960 170,-960 170,-948 170,-948 170,-942 176,-936 182,-936 182,-936 292,-936 292,-936 298,-936 304,-942 304,-948 304,-948 304,-960 304,-960 304,-966 298,-972 292,-972"/>
<text text-anchor="middle" x="237" y="-951.5" font-family="sans" font-size="10.00">build_pacbio_consensus</text>
</g>
<!-- 4&#45;&gt;3 -->
<g id="edge10" class="edge">
<title>4&#45;&gt;3</title>
<path fill="none" stroke="grey" stroke-width="2" d="M302.46,-935.97C342.92,-925.44 394.81,-911.93 436.07,-901.2"/>
<polygon fill="grey" stroke="grey" stroke-width="2" points="436.98,-904.58 445.78,-898.67 435.22,-897.8 436.98,-904.58"/>
</g>
<!-- 4&#45;&gt;13 -->
<g id="edge31" class="edge">
<title>4&#45;&gt;13</title>
<path fill="none" stroke="grey" stroke-width="2" d="M215.44,-935.78C187.41,-911.28 142,-863.5 142,-811 142,-811 142,-811 142,-593 142,-425.44 8.84,-313.66 145,-216 224.15,-159.23 256.84,-164.78 352,-144 535.62,-103.91 759.99,-94.14 857.65,-91.77"/>
<polygon fill="grey" stroke="grey" stroke-width="2" points="857.9,-95.26 867.82,-91.53 857.74,-88.26 857.9,-95.26"/>
</g>
<!-- 4&#45;&gt;16 -->
<g id="edge44" class="edge">
<title>4&#45;&gt;16</title>
<path fill="none" stroke="grey" stroke-width="2" d="M240.84,-935.61C246.4,-908.94 256,-856.27 256,-811 256,-811 256,-811 256,-665 256,-531.91 342.29,-389.56 380.81,-332.65"/>
<polygon fill="grey" stroke="grey" stroke-width="2" points="383.79,-334.49 386.56,-324.27 378.02,-330.53 383.79,-334.49"/>
</g>
<!-- 4&#45;&gt;19 -->
<g id="edge54" class="edge">
<title>4&#45;&gt;19</title>
<path fill="none" stroke="grey" stroke-width="2" d="M233.16,-935.61C227.6,-908.94 218,-856.27 218,-811 218,-811 218,-811 218,-521 218,-383.71 172.23,-315.34 267,-216 297.04,-184.51 346.11,-171.71 382.19,-166.52"/>
<polygon fill="grey" stroke="grey" stroke-width="2" points="383,-169.95 392.47,-165.2 382.1,-163.01 383,-169.95"/>
</g>
<!-- 5 -->
<g id="node6" class="node">
<title>5</title>
<path fill="none" stroke="#d89556" stroke-width="2" d="M129.5,-1044C129.5,-1044 40.5,-1044 40.5,-1044 34.5,-1044 28.5,-1038 28.5,-1032 28.5,-1032 28.5,-1020 28.5,-1020 28.5,-1014 34.5,-1008 40.5,-1008 40.5,-1008 129.5,-1008 129.5,-1008 135.5,-1008 141.5,-1014 141.5,-1020 141.5,-1020 141.5,-1032 141.5,-1032 141.5,-1038 135.5,-1044 129.5,-1044"/>
<text text-anchor="middle" x="85" y="-1023.5" font-family="sans" font-size="10.00">analyze_pacbio_ccs</text>
</g>
<!-- 5&#45;&gt;4 -->
<g id="edge11" class="edge">
<title>5&#45;&gt;4</title>
<path fill="none" stroke="grey" stroke-width="2" d="M122.18,-1007.88C142.87,-998.35 168.8,-986.41 190.78,-976.28"/>
<polygon fill="grey" stroke="grey" stroke-width="2" points="192.32,-979.43 199.94,-972.07 189.39,-973.07 192.32,-979.43"/>
</g>
<!-- 5&#45;&gt;13 -->
<g id="edge35" class="edge">
<title>5&#45;&gt;13</title>
<path fill="none" stroke="grey" stroke-width="2" d="M66.14,-1007.73C41.09,-982.82 0,-934.14 0,-883 0,-883 0,-883 0,-233 0,-134.89 106.82,-167.8 202,-144 326.61,-112.84 718.7,-97.21 857.61,-92.54"/>
<polygon fill="grey" stroke="grey" stroke-width="2" points="858.07,-96.02 867.94,-92.19 857.83,-89.03 858.07,-96.02"/>
</g>
<!-- 5&#45;&gt;16 -->
<g id="edge46" class="edge">
<title>5&#45;&gt;16</title>
<path fill="none" stroke="grey" stroke-width="2" d="M98.61,-1007.84C124.88,-972.94 180,-890.27 180,-811 180,-811 180,-811 180,-521 180,-426.51 285.59,-360.06 350.13,-328.27"/>
<polygon fill="grey" stroke="grey" stroke-width="2" points="351.85,-331.33 359.34,-323.83 348.81,-325.02 351.85,-331.33"/>
</g>
<!-- 5&#45;&gt;19 -->
<g id="edge58" class="edge">
<title>5&#45;&gt;19</title>
<path fill="none" stroke="grey" stroke-width="2" d="M81.16,-1007.61C75.6,-980.94 66,-928.27 66,-883 66,-883 66,-883 66,-593 66,-415.76 46.93,-311.87 196,-216 253.1,-179.28 332.48,-167.86 382.01,-164.39"/>
<polygon fill="grey" stroke="grey" stroke-width="2" points="382.34,-167.88 392.11,-163.77 381.91,-160.89 382.34,-167.88"/>
</g>
<!-- 6 -->
<g id="node7" class="node">
<title>6</title>
<path fill="none" stroke="#d8bc56" stroke-width="2" d="M138.5,-1116C138.5,-1116 31.5,-1116 31.5,-1116 25.5,-1116 19.5,-1110 19.5,-1104 19.5,-1104 19.5,-1092 19.5,-1092 19.5,-1086 25.5,-1080 31.5,-1080 31.5,-1080 138.5,-1080 138.5,-1080 144.5,-1080 150.5,-1086 150.5,-1092 150.5,-1092 150.5,-1104 150.5,-1104 150.5,-1110 144.5,-1116 138.5,-1116"/>
<text text-anchor="middle" x="85" y="-1095.5" font-family="sans" font-size="10.00">align_parse_PacBio_ccs</text>
</g>
<!-- 6&#45;&gt;5 -->
<g id="edge13" class="edge">
<title>6&#45;&gt;5</title>
<path fill="none" stroke="grey" stroke-width="2" d="M85,-1079.7C85,-1071.98 85,-1062.71 85,-1054.11"/>
<polygon fill="grey" stroke="grey" stroke-width="2" points="88.5,-1054.1 85,-1044.1 81.5,-1054.1 88.5,-1054.1"/>
</g>
<!-- 7 -->
<g id="node8" class="node">
<title>7</title>
<path fill="none" stroke="#9fd856" stroke-width="2" d="M540,-1044C540,-1044 472,-1044 472,-1044 466,-1044 460,-1038 460,-1032 460,-1032 460,-1020 460,-1020 460,-1014 466,-1008 472,-1008 472,-1008 540,-1008 540,-1008 546,-1008 552,-1014 552,-1020 552,-1020 552,-1032 552,-1032 552,-1038 546,-1044 540,-1044"/>
<text text-anchor="middle" x="506" y="-1023.5" font-family="sans" font-size="10.00">gene_sequence</text>
</g>
<!-- 7&#45;&gt;1 -->
<g id="edge5" class="edge">
<title>7&#45;&gt;1</title>
<path fill="none" stroke="grey" stroke-width="2" d="M518.59,-1007.87C542.56,-974.63 595.3,-898.42 628,-828 637.33,-807.92 644.94,-784 650.02,-766.02"/>
<polygon fill="grey" stroke="grey" stroke-width="2" points="653.45,-766.76 652.72,-756.19 646.7,-764.91 653.45,-766.76"/>
</g>
<!-- 7&#45;&gt;3 -->
<g id="edge9" class="edge">
<title>7&#45;&gt;3</title>
<path fill="none" stroke="grey" stroke-width="2" d="M506,-1007.87C506,-983.67 506,-939.21 506,-910.39"/>
<polygon fill="grey" stroke="grey" stroke-width="2" points="509.5,-910.19 506,-900.19 502.5,-910.19 509.5,-910.19"/>
</g>
<!-- 7&#45;&gt;4 -->
<g id="edge12" class="edge">
<title>7&#45;&gt;4</title>
<path fill="none" stroke="grey" stroke-width="2" d="M459.76,-1012.97C419.3,-1002.44 359.76,-986.95 312.42,-974.62"/>
<polygon fill="grey" stroke="grey" stroke-width="2" points="313.07,-971.18 302.51,-972.05 311.3,-977.95 313.07,-971.18"/>
</g>
<!-- 7&#45;&gt;9 -->
<g id="edge15" class="edge">
<title>7&#45;&gt;9</title>
<path fill="none" stroke="grey" stroke-width="2" d="M492.9,-1007.99C476.09,-985 447.82,-942.01 437,-900 433.01,-884.51 434.29,-879.77 437,-864 448.5,-797.09 457.34,-780.58 488,-720 492.7,-710.72 498.77,-701.15 504.58,-692.73"/>
<polygon fill="grey" stroke="grey" stroke-width="2" points="507.53,-694.62 510.47,-684.45 501.83,-690.57 507.53,-694.62"/>
</g>
<!-- 7&#45;&gt;12 -->
<g id="edge23" class="edge">
<title>7&#45;&gt;12</title>
<path fill="none" stroke="grey" stroke-width="2" d="M552.2,-1023.02C685.11,-1016.09 1059,-987.33 1059,-883 1059,-883 1059,-883 1059,-665 1059,-612.61 1010.58,-570.06 974.5,-545.63"/>
<polygon fill="grey" stroke="grey" stroke-width="2" points="976.37,-542.67 966.09,-540.11 972.53,-548.52 976.37,-542.67"/>
</g>
<!-- 7&#45;&gt;13 -->
<g id="edge29" class="edge">
<title>7&#45;&gt;13</title>
<path fill="none" stroke="grey" stroke-width="2" d="M552.11,-1025.03C703.09,-1023.91 1173,-1010.2 1173,-883 1173,-883 1173,-883 1173,-521 1173,-434.33 1139.45,-199.65 1073,-144 1039.96,-116.33 992.3,-103.05 956.51,-96.7"/>
<polygon fill="grey" stroke="grey" stroke-width="2" points="956.72,-93.19 946.29,-95.02 955.59,-100.1 956.72,-93.19"/>
</g>
<!-- 7&#45;&gt;19 -->
<g id="edge52" class="edge">
<title>7&#45;&gt;19</title>
<path fill="none" stroke="grey" stroke-width="2" d="M459.83,-1023.24C376.94,-1019.24 207.25,-1006.92 161,-972 100.42,-926.26 104,-886.91 104,-811 104,-811 104,-811 104,-593 104,-415.62 102.58,-334.02 235,-216 275.74,-179.69 339.13,-167.99 382.05,-164.36"/>
<polygon fill="grey" stroke="grey" stroke-width="2" points="382.5,-167.84 392.22,-163.62 381.99,-160.85 382.5,-167.84"/>
</g>
<!-- 8 -->
<g id="node9" class="node">
<title>8</title>
<path fill="none" stroke="#56d0d8" stroke-width="2" d="M616.5,-612C616.5,-612 467.5,-612 467.5,-612 461.5,-612 455.5,-606 455.5,-600 455.5,-600 455.5,-588 455.5,-588 455.5,-582 461.5,-576 467.5,-576 467.5,-576 616.5,-576 616.5,-576 622.5,-576 628.5,-582 628.5,-588 628.5,-588 628.5,-600 628.5,-600 628.5,-606 622.5,-612 616.5,-612"/>
<text text-anchor="middle" x="542" y="-591.5" font-family="sans" font-size="10.00">check_adequate_variant_counts</text>
</g>
<!-- 8&#45;&gt;0 -->
<g id="edge3" class="edge">
<title>8&#45;&gt;0</title>
<path fill="none" stroke="grey" stroke-width="2" d="M506.71,-575.87C407.69,-525.38 140.14,-370.98 229,-216 308.54,-77.28 853.82,-31.32 1002.58,-21.29"/>
<polygon fill="grey" stroke="grey" stroke-width="2" points="1003.24,-24.75 1012.99,-20.6 1002.78,-17.77 1003.24,-24.75"/>
</g>
<!-- 8&#45;&gt;12 -->
<g id="edge24" class="edge">
<title>8&#45;&gt;12</title>
<path fill="none" stroke="grey" stroke-width="2" d="M628.95,-577.55C708.22,-563.47 822.49,-543.17 886.94,-531.72"/>
<polygon fill="grey" stroke="grey" stroke-width="2" points="887.61,-535.15 896.84,-529.96 886.38,-528.26 887.61,-535.15"/>
</g>
<!-- 9&#45;&gt;8 -->
<g id="edge14" class="edge">
<title>9&#45;&gt;8</title>
<path fill="none" stroke="grey" stroke-width="2" d="M528.45,-647.7C530.45,-639.9 532.87,-630.51 535.1,-621.83"/>
<polygon fill="grey" stroke="grey" stroke-width="2" points="538.5,-622.66 537.6,-612.1 531.72,-620.92 538.5,-622.66"/>
</g>
<!-- 9&#45;&gt;13 -->
<g id="edge27" class="edge">
<title>9&#45;&gt;13</title>
<path fill="none" stroke="grey" stroke-width="2" d="M564.22,-647.91C586.14,-638.16 613.51,-625.26 637,-612 731.89,-558.42 1021,-415.98 1021,-307 1021,-307 1021,-307 1021,-233 1021,-182 975.73,-138.88 942.24,-113.97"/>
<polygon fill="grey" stroke="grey" stroke-width="2" points="944.17,-111.05 934.02,-108.04 940.08,-116.73 944.17,-111.05"/>
</g>
<!-- 9&#45;&gt;16 -->
<g id="edge41" class="edge">
<title>9&#45;&gt;16</title>
<path fill="none" stroke="grey" stroke-width="2" d="M485.37,-647.83C470.58,-639.24 455.09,-627.36 446,-612 388.69,-515.18 450.07,-468.95 422,-360 419.7,-351.06 416.08,-341.71 412.39,-333.38"/>
<polygon fill="grey" stroke="grey" stroke-width="2" points="415.49,-331.76 408.1,-324.18 409.15,-334.72 415.49,-331.76"/>
</g>
<!-- 9&#45;&gt;19 -->
<g id="edge50" class="edge">
<title>9&#45;&gt;19</title>
<path fill="none" stroke="grey" stroke-width="2" d="M476.44,-647.93C458.57,-639.48 439.36,-627.68 426,-612 316.04,-482.99 328.4,-419.12 300,-252 297.32,-236.23 291.11,-229.3 300,-216 318.29,-188.63 353.61,-175.38 382.52,-168.97"/>
<polygon fill="grey" stroke="grey" stroke-width="2" points="383.33,-172.38 392.44,-166.98 381.95,-165.51 383.33,-172.38"/>
</g>
<!-- 10 -->
<g id="node11" class="node">
<title>10</title>
<path fill="none" stroke="#566bd8" stroke-width="2" d="M847,-396C847,-396 749,-396 749,-396 743,-396 737,-390 737,-384 737,-384 737,-372 737,-372 737,-366 743,-360 749,-360 749,-360 847,-360 847,-360 853,-360 859,-366 859,-372 859,-372 859,-384 859,-384 859,-390 853,-396 847,-396"/>
<text text-anchor="middle" x="798" y="-375.5" font-family="sans" font-size="10.00">avg_antibody_escape</text>
</g>
<!-- 10&#45;&gt;0 -->
<g id="edge1" class="edge">
<title>10&#45;&gt;0</title>
<path fill="none" stroke="grey" stroke-width="2" d="M843.29,-359.95C862.1,-351.27 883.19,-339.27 899,-324 982.33,-243.48 1021.24,-104.29 1034.49,-45.95"/>
<polygon fill="grey" stroke="grey" stroke-width="2" points="1037.94,-46.55 1036.67,-36.03 1031.1,-45.05 1037.94,-46.55"/>
</g>
<!-- 10&#45;&gt;13 -->
<g id="edge38" class="edge">
<title>10&#45;&gt;13</title>
<path fill="none" stroke="grey" stroke-width="2" d="M824.47,-359.81C854.42,-338.61 901.56,-299.47 921,-252 939.13,-207.72 926.89,-150.99 916.7,-118.04"/>
<polygon fill="grey" stroke="grey" stroke-width="2" points="919.93,-116.65 913.5,-108.23 913.27,-118.82 919.93,-116.65"/>
</g>
<!-- 10&#45;&gt;16 -->
<g id="edge47" class="edge">
<title>10&#45;&gt;16</title>
<path fill="none" stroke="grey" stroke-width="2" d="M736.97,-366.29C657.84,-352.41 521.37,-328.47 448.4,-315.67"/>
<polygon fill="grey" stroke="grey" stroke-width="2" points="449,-312.22 438.54,-313.94 447.79,-319.11 449,-312.22"/>
</g>
<!-- 18 -->
<g id="node19" class="node">
<title>18</title>
<path fill="none" stroke="#d87d56" stroke-width="2" d="M866.5,-252C866.5,-252 729.5,-252 729.5,-252 723.5,-252 717.5,-246 717.5,-240 717.5,-240 717.5,-228 717.5,-228 717.5,-222 723.5,-216 729.5,-216 729.5,-216 866.5,-216 866.5,-216 872.5,-216 878.5,-222 878.5,-228 878.5,-228 878.5,-240 878.5,-240 878.5,-246 872.5,-252 866.5,-252"/>
<text text-anchor="middle" x="798" y="-231.5" font-family="sans" font-size="10.00">format_antibody_escape_plot</text>
</g>
<!-- 10&#45;&gt;18 -->
<g id="edge48" class="edge">
<title>10&#45;&gt;18</title>
<path fill="none" stroke="grey" stroke-width="2" d="M798,-359.87C798,-335.67 798,-291.21 798,-262.39"/>
<polygon fill="grey" stroke="grey" stroke-width="2" points="801.5,-262.19 798,-252.19 794.5,-262.19 801.5,-262.19"/>
</g>
<!-- 10&#45;&gt;19 -->
<g id="edge61" class="edge">
<title>10&#45;&gt;19</title>
<path fill="none" stroke="grey" stroke-width="2" d="M781.42,-359.87C761.27,-339.98 725.44,-307.4 689,-288 640.23,-262.03 618.61,-278.27 570,-252 548.07,-240.15 547.65,-229.96 527,-216 510.1,-204.58 490.48,-193.64 473.18,-184.7"/>
<polygon fill="grey" stroke="grey" stroke-width="2" points="474.34,-181.36 463.84,-179.95 471.17,-187.6 474.34,-181.36"/>
</g>
<!-- 11 -->
<g id="node12" class="node">
<title>11</title>
<path fill="none" stroke="#56d8a2" stroke-width="2" d="M827,-468C827,-468 769,-468 769,-468 763,-468 757,-462 757,-456 757,-456 757,-444 757,-444 757,-438 763,-432 769,-432 769,-432 827,-432 827,-432 833,-432 839,-438 839,-444 839,-444 839,-456 839,-456 839,-462 833,-468 827,-468"/>
<text text-anchor="middle" x="798" y="-447.5" font-family="sans" font-size="10.00">fit_polyclonal</text>
</g>
<!-- 11&#45;&gt;10 -->
<g id="edge19" class="edge">
<title>11&#45;&gt;10</title>
<path fill="none" stroke="grey" stroke-width="2" d="M798,-431.7C798,-423.98 798,-414.71 798,-406.11"/>
<polygon fill="grey" stroke="grey" stroke-width="2" points="801.5,-406.1 798,-396.1 794.5,-406.1 801.5,-406.1"/>
</g>
<!-- 11&#45;&gt;13 -->
<g id="edge28" class="edge">
<title>11&#45;&gt;13</title>
<path fill="none" stroke="grey" stroke-width="2" d="M839.06,-437.56C893.56,-419.57 983,-379.07 983,-307 983,-307 983,-307 983,-233 983,-187.64 952.48,-142.75 930.12,-115.95"/>
<polygon fill="grey" stroke="grey" stroke-width="2" points="932.66,-113.53 923.49,-108.23 927.36,-118.09 932.66,-113.53"/>
</g>
<!-- 11&#45;&gt;16 -->
<g id="edge42" class="edge">
<title>11&#45;&gt;16</title>
<path fill="none" stroke="grey" stroke-width="2" d="M756.64,-445.05C704.74,-439.08 613.72,-425.18 541,-396 499.4,-379.31 456.44,-350.47 428.83,-330.16"/>
<polygon fill="grey" stroke="grey" stroke-width="2" points="430.88,-327.32 420.77,-324.15 426.69,-332.93 430.88,-327.32"/>
</g>
<!-- 11&#45;&gt;19 -->
<g id="edge51" class="edge">
<title>11&#45;&gt;19</title>
<path fill="none" stroke="grey" stroke-width="2" d="M775.28,-431.85C761.57,-421.49 743.77,-408.01 728,-396 707.07,-380.06 702.22,-375.56 681,-360 613.58,-310.57 587.56,-309.63 527,-252 512.32,-238.03 513.47,-230.19 499,-216 488.04,-205.26 474.84,-194.83 462.81,-186.12"/>
<polygon fill="grey" stroke="grey" stroke-width="2" points="464.48,-183.02 454.3,-180.09 460.44,-188.73 464.48,-183.02"/>
</g>
<!-- 12&#45;&gt;11 -->
<g id="edge20" class="edge">
<title>12&#45;&gt;11</title>
<path fill="none" stroke="grey" stroke-width="2" d="M902.24,-503.88C883.78,-494.51 860.72,-482.81 840.98,-472.8"/>
<polygon fill="grey" stroke="grey" stroke-width="2" points="842.39,-469.59 831.89,-468.19 839.22,-475.83 842.39,-469.59"/>
</g>
<!-- 14 -->
<g id="node15" class="node">
<title>14</title>
<path fill="none" stroke="#c6d856" stroke-width="2" d="M660,-396C660,-396 562,-396 562,-396 556,-396 550,-390 550,-384 550,-384 550,-372 550,-372 550,-366 556,-360 562,-360 562,-360 660,-360 660,-360 666,-360 672,-366 672,-372 672,-372 672,-384 672,-384 672,-390 666,-396 660,-396"/>
<text text-anchor="middle" x="611" y="-375.5" font-family="sans" font-size="10.00">analyze_prob_escape</text>
</g>
<!-- 12&#45;&gt;14 -->
<g id="edge39" class="edge">
<title>12&#45;&gt;14</title>
<path fill="none" stroke="grey" stroke-width="2" d="M896.63,-513.52C857.74,-505.31 797.11,-490.25 748,-468 708.84,-450.25 668.02,-422.32 641.23,-402.48"/>
<polygon fill="grey" stroke="grey" stroke-width="2" points="643.15,-399.54 633.05,-396.35 638.95,-405.15 643.15,-399.54"/>
</g>
<!-- 13&#45;&gt;0 -->
<g id="edge2" class="edge">
<title>13&#45;&gt;0</title>
<path fill="none" stroke="grey" stroke-width="2" d="M939.54,-71.88C959.01,-61.63 983.79,-48.58 1003.87,-38.01"/>
<polygon fill="grey" stroke="grey" stroke-width="2" points="1005.51,-41.11 1012.73,-33.35 1002.25,-34.91 1005.51,-41.11"/>
</g>
<!-- 14&#45;&gt;13 -->
<g id="edge34" class="edge">
<title>14&#45;&gt;13</title>
<path fill="none" stroke="grey" stroke-width="2" d="M672.21,-367.15C736.67,-353.33 835.78,-321.58 887,-252 915.85,-212.8 914.87,-153.17 911.18,-118.54"/>
<polygon fill="grey" stroke="grey" stroke-width="2" points="914.61,-117.74 909.92,-108.24 907.66,-118.59 914.61,-117.74"/>
</g>
<!-- 14&#45;&gt;16 -->
<g id="edge45" class="edge">
<title>14&#45;&gt;16</title>
<path fill="none" stroke="grey" stroke-width="2" d="M559.41,-359.97C525.61,-348.81 481.68,-334.3 448.34,-323.29"/>
<polygon fill="grey" stroke="grey" stroke-width="2" points="449.39,-319.95 438.8,-320.14 447.2,-326.6 449.39,-319.95"/>
</g>
<!-- 14&#45;&gt;19 -->
<g id="edge57" class="edge">
<title>14&#45;&gt;19</title>
<path fill="none" stroke="grey" stroke-width="2" d="M595.1,-359.89C573.1,-336.06 532.3,-291.38 499,-252 481.23,-230.99 461.79,-206.51 447.75,-188.55"/>
<polygon fill="grey" stroke="grey" stroke-width="2" points="450.23,-186.04 441.32,-180.3 444.71,-190.34 450.23,-186.04"/>
</g>
<!-- 15 -->
<g id="node16" class="node">
<title>15</title>
<path fill="none" stroke="#b6d856" stroke-width="2" d="M358.5,-252C358.5,-252 321.5,-252 321.5,-252 315.5,-252 309.5,-246 309.5,-240 309.5,-240 309.5,-228 309.5,-228 309.5,-222 315.5,-216 321.5,-216 321.5,-216 358.5,-216 358.5,-216 364.5,-216 370.5,-222 370.5,-228 370.5,-228 370.5,-240 370.5,-240 370.5,-246 364.5,-252 358.5,-252"/>
<text text-anchor="middle" x="340" y="-231.5" font-family="sans" font-size="10.00">subindex</text>
</g>
<!-- 15&#45;&gt;13 -->
<g id="edge26" class="edge">
<title>15&#45;&gt;13</title>
<path fill="none" stroke="grey" stroke-width="2" d="M343.12,-215.65C347.85,-194.89 358.96,-160.83 383,-144 421.39,-117.12 734.39,-99.3 857.51,-93.27"/>
<polygon fill="grey" stroke="grey" stroke-width="2" points="857.96,-96.75 867.78,-92.77 857.62,-89.76 857.96,-96.75"/>
</g>
<!-- 15&#45;&gt;19 -->
<g id="edge49" class="edge">
<title>15&#45;&gt;19</title>
<path fill="none" stroke="grey" stroke-width="2" d="M361.75,-215.7C372.84,-206.88 386.47,-196.03 398.49,-186.47"/>
<polygon fill="grey" stroke="grey" stroke-width="2" points="400.85,-189.07 406.5,-180.1 396.49,-183.59 400.85,-189.07"/>
</g>
<!-- 16&#45;&gt;13 -->
<g id="edge32" class="edge">
<title>16&#45;&gt;13</title>
<path fill="none" stroke="grey" stroke-width="2" d="M438.94,-304.08C493.9,-301.32 594.57,-290.86 670,-252 690.68,-241.34 689.62,-230.26 708,-216 760,-175.67 825.48,-136.54 866.8,-113.1"/>
<polygon fill="grey" stroke="grey" stroke-width="2" points="868.75,-116.02 875.75,-108.06 865.32,-109.92 868.75,-116.02"/>
</g>
<!-- 16&#45;&gt;15 -->
<g id="edge40" class="edge">
<title>16&#45;&gt;15</title>
<path fill="none" stroke="grey" stroke-width="2" d="M384.42,-287.7C377.34,-279.3 368.72,-269.07 360.95,-259.86"/>
<polygon fill="grey" stroke="grey" stroke-width="2" points="363.54,-257.49 354.42,-252.1 358.19,-262.01 363.54,-257.49"/>
</g>
<!-- 16&#45;&gt;19 -->
<g id="edge55" class="edge">
<title>16&#45;&gt;19</title>
<path fill="none" stroke="grey" stroke-width="2" d="M402.5,-287.87C407.46,-263.56 416.6,-218.82 422.48,-190.01"/>
<polygon fill="grey" stroke="grey" stroke-width="2" points="425.92,-190.69 424.49,-180.19 419.06,-189.29 425.92,-190.69"/>
</g>
<!-- 17 -->
<g id="node18" class="node">
<title>17</title>
<path fill="none" stroke="#56d863" stroke-width="2" d="M649,-252C649,-252 591,-252 591,-252 585,-252 579,-246 579,-240 579,-240 579,-228 579,-228 579,-222 585,-216 591,-216 591,-216 649,-216 649,-216 655,-216 661,-222 661,-228 661,-228 661,-240 661,-240 661,-246 655,-252 649,-252"/>
<text text-anchor="middle" x="620" y="-231.5" font-family="sans" font-size="10.00">make_graphs</text>
</g>
<!-- 17&#45;&gt;13 -->
<g id="edge36" class="edge">
<title>17&#45;&gt;13</title>
<path fill="none" stroke="grey" stroke-width="2" d="M625.95,-215.7C633.87,-195.32 649.89,-161.96 675,-144 729.27,-105.18 807.41,-94.25 857.7,-91.46"/>
<polygon fill="grey" stroke="grey" stroke-width="2" points="858.16,-94.95 867.98,-90.99 857.83,-87.95 858.16,-94.95"/>
</g>
<!-- 17&#45;&gt;19 -->
<g id="edge59" class="edge">
<title>17&#45;&gt;19</title>
<path fill="none" stroke="grey" stroke-width="2" d="M578.81,-217.98C547.76,-206.66 505.19,-191.14 473.2,-179.48"/>
<polygon fill="grey" stroke="grey" stroke-width="2" points="474.23,-176.13 463.63,-175.99 471.83,-182.71 474.23,-176.13"/>
</g>
<!-- 18&#45;&gt;13 -->
<g id="edge33" class="edge">
<title>18&#45;&gt;13</title>
<path fill="none" stroke="grey" stroke-width="2" d="M811.15,-215.87C830.22,-191.03 865.67,-144.85 887.7,-116.14"/>
<polygon fill="grey" stroke="grey" stroke-width="2" points="890.49,-118.25 893.81,-108.19 884.94,-113.99 890.49,-118.25"/>
</g>
<!-- 18&#45;&gt;19 -->
<g id="edge56" class="edge">
<title>18&#45;&gt;19</title>
<path fill="none" stroke="grey" stroke-width="2" d="M717.26,-217.72C642.69,-203.62 534.55,-183.16 473.83,-171.67"/>
<polygon fill="grey" stroke="grey" stroke-width="2" points="474.26,-168.19 463.78,-169.77 472.96,-175.07 474.26,-168.19"/>
</g>
<!-- 19&#45;&gt;13 -->
<g id="edge25" class="edge">
<title>19&#45;&gt;13</title>
<path fill="none" stroke="grey" stroke-width="2" d="M463.61,-155.8C548.13,-143.45 760.95,-112.34 857.73,-98.2"/>
<polygon fill="grey" stroke="grey" stroke-width="2" points="858.44,-101.63 867.83,-96.72 857.43,-94.71 858.44,-101.63"/>
</g>
</g>
</svg>
