<?xml version="1.0" encoding="UTF-8" standalone="no"?>
<!DOCTYPE svg PUBLIC "-//W3C//DTD SVG 1.1//EN"
 "http://www.w3.org/Graphics/SVG/1.1/DTD/svg11.dtd">
<!-- Generated by graphviz version 5.0.0 (20220707.2338)
 -->
<!-- Title: snakemake_dag Pages: 1 -->
<svg width="1110pt" height="1124pt"
 viewBox="0.00 0.00 1109.57 1124.00" xmlns="http://www.w3.org/2000/svg" xmlns:xlink="http://www.w3.org/1999/xlink">
<g id="graph0" class="graph" transform="scale(1 1) rotate(0) translate(4 1120)">
<title>snakemake_dag</title>
<polygon fill="white" stroke="transparent" points="-4,4 -4,-1120 1105.57,-1120 1105.57,4 -4,4"/>
<!-- 0 -->
<g id="node1" class="node">
<title>0</title>
<path fill="none" stroke="#569ad8" stroke-width="2" d="M963.5,-36C963.5,-36 933.5,-36 933.5,-36 927.5,-36 921.5,-30 921.5,-24 921.5,-24 921.5,-12 921.5,-12 921.5,-6 927.5,0 933.5,0 933.5,0 963.5,0 963.5,0 969.5,0 975.5,-6 975.5,-12 975.5,-12 975.5,-24 975.5,-24 975.5,-30 969.5,-36 963.5,-36"/>
<text text-anchor="middle" x="948.5" y="-15.5" font-family="sans" font-size="10.00">all</text>
</g>
<!-- 1 -->
<g id="node2" class="node">
<title>1</title>
<path fill="none" stroke="#56c9d8" stroke-width="2" d="M713,-756C713,-756 648,-756 648,-756 642,-756 636,-750 636,-744 636,-744 636,-732 636,-732 636,-726 642,-720 648,-720 648,-720 713,-720 713,-720 719,-720 725,-726 725,-732 725,-732 725,-744 725,-744 725,-750 719,-756 713,-756"/>
<text text-anchor="middle" x="680.5" y="-735.5" font-family="sans" font-size="10.00">variant_counts</text>
</g>
<!-- 1&#45;&gt;0 -->
<g id="edge1" class="edge">
<title>1&#45;&gt;0</title>
<path fill="none" stroke="grey" stroke-width="2" d="M690.35,-719.94C707.49,-690.38 744.05,-627.87 776.5,-576 827.23,-494.9 857.88,-484.37 894.5,-396 945.46,-273.01 949.66,-110.27 949.14,-46.39"/>
<polygon fill="grey" stroke="grey" stroke-width="2" points="952.63,-46.28 949,-36.32 945.64,-46.37 952.63,-46.28"/>
</g>
<!-- 9 -->
<g id="node10" class="node">
<title>9</title>
<path fill="none" stroke="#a7d856" stroke-width="2" d="M896.5,-684C896.5,-684 788.5,-684 788.5,-684 782.5,-684 776.5,-678 776.5,-672 776.5,-672 776.5,-660 776.5,-660 776.5,-654 782.5,-648 788.5,-648 788.5,-648 896.5,-648 896.5,-648 902.5,-648 908.5,-654 908.5,-660 908.5,-660 908.5,-672 908.5,-672 908.5,-678 902.5,-684 896.5,-684"/>
<text text-anchor="middle" x="842.5" y="-663.5" font-family="sans" font-size="10.00">analyze_variant_counts</text>
</g>
<!-- 1&#45;&gt;9 -->
<g id="edge15" class="edge">
<title>1&#45;&gt;9</title>
<path fill="none" stroke="grey" stroke-width="2" d="M720.13,-719.88C742.28,-710.31 770.06,-698.3 793.56,-688.15"/>
<polygon fill="grey" stroke="grey" stroke-width="2" points="795.21,-691.25 803,-684.07 792.43,-684.82 795.21,-691.25"/>
</g>
<!-- 12 -->
<g id="node13" class="node">
<title>12</title>
<path fill="none" stroke="#78d856" stroke-width="2" d="M559.5,-540C559.5,-540 505.5,-540 505.5,-540 499.5,-540 493.5,-534 493.5,-528 493.5,-528 493.5,-516 493.5,-516 493.5,-510 499.5,-504 505.5,-504 505.5,-504 559.5,-504 559.5,-504 565.5,-504 571.5,-510 571.5,-516 571.5,-516 571.5,-528 571.5,-528 571.5,-534 565.5,-540 559.5,-540"/>
<text text-anchor="middle" x="532.5" y="-519.5" font-family="sans" font-size="10.00">prob_escape</text>
</g>
<!-- 1&#45;&gt;12 -->
<g id="edge21" class="edge">
<title>1&#45;&gt;12</title>
<path fill="none" stroke="grey" stroke-width="2" d="M661.56,-719.83C651.17,-709.9 638.42,-696.86 628.5,-684 594.32,-639.67 562.73,-582.22 545.68,-549.3"/>
<polygon fill="grey" stroke="grey" stroke-width="2" points="548.75,-547.6 541.07,-540.3 542.52,-550.8 548.75,-547.6"/>
</g>
<!-- 13 -->
<g id="node14" class="node">
<title>13</title>
<path fill="none" stroke="#5682d8" stroke-width="2" d="M827.5,-108C827.5,-108 773.5,-108 773.5,-108 767.5,-108 761.5,-102 761.5,-96 761.5,-96 761.5,-84 761.5,-84 761.5,-78 767.5,-72 773.5,-72 773.5,-72 827.5,-72 827.5,-72 833.5,-72 839.5,-78 839.5,-84 839.5,-84 839.5,-96 839.5,-96 839.5,-102 833.5,-108 827.5,-108"/>
<text text-anchor="middle" x="800.5" y="-87.5" font-family="sans" font-size="10.00">sphinx_build</text>
</g>
<!-- 1&#45;&gt;13 -->
<g id="edge25" class="edge">
<title>1&#45;&gt;13</title>
<path fill="none" stroke="grey" stroke-width="2" d="M680.34,-719.82C680.64,-689.55 683.91,-625.28 704.5,-576 761.12,-440.47 896.5,-453.89 896.5,-307 896.5,-307 896.5,-307 896.5,-233 896.5,-184.85 858.16,-140.85 829.94,-114.98"/>
<polygon fill="grey" stroke="grey" stroke-width="2" points="832.08,-112.2 822.28,-108.17 827.43,-117.43 832.08,-112.2"/>
</g>
<!-- 18 -->
<g id="node19" class="node">
<title>18</title>
<path fill="none" stroke="#8fd856" stroke-width="2" d="M553,-180C553,-180 506,-180 506,-180 500,-180 494,-174 494,-168 494,-168 494,-156 494,-156 494,-150 500,-144 506,-144 506,-144 553,-144 553,-144 559,-144 565,-150 565,-156 565,-156 565,-168 565,-168 565,-174 559,-180 553,-180"/>
<text text-anchor="middle" x="529.5" y="-159.5" font-family="sans" font-size="10.00">docs_index</text>
</g>
<!-- 1&#45;&gt;18 -->
<g id="edge47" class="edge">
<title>1&#45;&gt;18</title>
<path fill="none" stroke="grey" stroke-width="2" d="M675,-719.69C666.37,-689.78 652.04,-626.73 666.5,-576 695.1,-475.65 797.4,-456.82 758.5,-360 754.37,-349.72 629.21,-222.86 620.5,-216 605.85,-204.46 588.43,-193.71 572.77,-184.94"/>
<polygon fill="grey" stroke="grey" stroke-width="2" points="574.24,-181.76 563.79,-180.02 570.88,-187.9 574.24,-181.76"/>
</g>
<!-- 2 -->
<g id="node3" class="node">
<title>2</title>
<path fill="none" stroke="#d88556" stroke-width="2" d="M715,-828C715,-828 646,-828 646,-828 640,-828 634,-822 634,-816 634,-816 634,-804 634,-804 634,-798 640,-792 646,-792 646,-792 715,-792 715,-792 721,-792 727,-798 727,-804 727,-804 727,-816 727,-816 727,-822 721,-828 715,-828"/>
<text text-anchor="middle" x="680.5" y="-807.5" font-family="sans" font-size="10.00">count_barcodes</text>
</g>
<!-- 2&#45;&gt;1 -->
<g id="edge6" class="edge">
<title>2&#45;&gt;1</title>
<path fill="none" stroke="grey" stroke-width="2" d="M680.5,-791.7C680.5,-783.98 680.5,-774.71 680.5,-766.11"/>
<polygon fill="grey" stroke="grey" stroke-width="2" points="684,-766.1 680.5,-756.1 677,-766.1 684,-766.1"/>
</g>
<!-- 2&#45;&gt;9 -->
<g id="edge17" class="edge">
<title>2&#45;&gt;9</title>
<path fill="none" stroke="grey" stroke-width="2" d="M698.45,-791.95C717.71,-773.79 749.33,-744.37 777.5,-720 788.93,-710.11 801.78,-699.53 813.01,-690.44"/>
<polygon fill="grey" stroke="grey" stroke-width="2" points="815.27,-693.11 820.87,-684.12 810.88,-687.66 815.27,-693.11"/>
</g>
<!-- 3 -->
<g id="node4" class="node">
<title>3</title>
<path fill="none" stroke="#56b1d8" stroke-width="2" d="M633.5,-900C633.5,-900 537.5,-900 537.5,-900 531.5,-900 525.5,-894 525.5,-888 525.5,-888 525.5,-876 525.5,-876 525.5,-870 531.5,-864 537.5,-864 537.5,-864 633.5,-864 633.5,-864 639.5,-864 645.5,-870 645.5,-876 645.5,-876 645.5,-888 645.5,-888 645.5,-894 639.5,-900 633.5,-900"/>
<text text-anchor="middle" x="585.5" y="-879.5" font-family="sans" font-size="10.00">build_codon_variants</text>
</g>
<!-- 3&#45;&gt;1 -->
<g id="edge5" class="edge">
<title>3&#45;&gt;1</title>
<path fill="none" stroke="grey" stroke-width="2" d="M590.97,-863.92C597.45,-845.22 609.42,-814.86 625.5,-792 632.89,-781.49 642.57,-771.35 651.74,-762.8"/>
<polygon fill="grey" stroke="grey" stroke-width="2" points="654.17,-765.31 659.26,-756.02 649.49,-760.11 654.17,-765.31"/>
</g>
<!-- 3&#45;&gt;2 -->
<g id="edge8" class="edge">
<title>3&#45;&gt;2</title>
<path fill="none" stroke="grey" stroke-width="2" d="M608.98,-863.7C621.06,-854.8 635.95,-843.82 649.02,-834.2"/>
<polygon fill="grey" stroke="grey" stroke-width="2" points="651.31,-836.85 657.29,-828.1 647.16,-831.22 651.31,-836.85"/>
</g>
<!-- 3&#45;&gt;9 -->
<g id="edge16" class="edge">
<title>3&#45;&gt;9</title>
<path fill="none" stroke="grey" stroke-width="2" d="M645.82,-869.39C675.4,-861.45 710.22,-848.52 736.5,-828 783.03,-791.66 815.77,-728.95 831.63,-693.47"/>
<polygon fill="grey" stroke="grey" stroke-width="2" points="834.87,-694.8 835.65,-684.23 828.45,-692 834.87,-694.8"/>
</g>
<!-- 3&#45;&gt;12 -->
<g id="edge22" class="edge">
<title>3&#45;&gt;12</title>
<path fill="none" stroke="grey" stroke-width="2" d="M572.83,-863.57C566.03,-853.56 557.95,-840.52 552.5,-828 536.16,-790.43 528.5,-779.97 528.5,-739 528.5,-739 528.5,-739 528.5,-665 528.5,-624.98 530.11,-578.64 531.28,-550.07"/>
<polygon fill="grey" stroke="grey" stroke-width="2" points="534.78,-550.18 531.71,-540.04 527.79,-549.89 534.78,-550.18"/>
</g>
<!-- 3&#45;&gt;13 -->
<g id="edge26" class="edge">
<title>3&#45;&gt;13</title>
<path fill="none" stroke="grey" stroke-width="2" d="M645.6,-870.76C682.45,-862.76 729.66,-849.33 767.5,-828 891.08,-758.33 942.77,-740.68 1002.5,-612 1076.78,-451.96 1030.9,-383.18 974.5,-216 962.93,-181.72 963.5,-168.09 936.5,-144 912.08,-122.22 877.69,-108.92 849.6,-101.1"/>
<polygon fill="grey" stroke="grey" stroke-width="2" points="850.13,-97.62 839.57,-98.46 848.35,-104.39 850.13,-97.62"/>
</g>
<!-- 16 -->
<g id="node17" class="node">
<title>16</title>
<path fill="none" stroke="#d6d856" stroke-width="2" d="M474,-324C474,-324 419,-324 419,-324 413,-324 407,-318 407,-312 407,-312 407,-300 407,-300 407,-294 413,-288 419,-288 419,-288 474,-288 474,-288 480,-288 486,-294 486,-300 486,-300 486,-312 486,-312 486,-318 480,-324 474,-324"/>
<text text-anchor="middle" x="446.5" y="-303.5" font-family="sans" font-size="10.00">make_nblink</text>
</g>
<!-- 3&#45;&gt;16 -->
<g id="edge40" class="edge">
<title>3&#45;&gt;16</title>
<path fill="none" stroke="grey" stroke-width="2" d="M564.31,-863.94C553.54,-854.34 540.98,-841.58 532.5,-828 474.52,-735.12 452.5,-704.49 452.5,-595 452.5,-595 452.5,-595 452.5,-449 452.5,-408.96 450.09,-362.63 448.32,-334.07"/>
<polygon fill="grey" stroke="grey" stroke-width="2" points="451.81,-333.8 447.69,-324.04 444.83,-334.24 451.81,-333.8"/>
</g>
<!-- 3&#45;&gt;18 -->
<g id="edge48" class="edge">
<title>3&#45;&gt;18</title>
<path fill="none" stroke="grey" stroke-width="2" d="M588.21,-863.87C591.13,-845.89 596.11,-816.85 601.5,-792 629.56,-662.63 631.98,-628.31 677.5,-504 700.7,-440.65 751.32,-422.33 725.5,-360 716.84,-339.09 705.48,-340.02 689.5,-324 641.54,-275.89 585.62,-219.57 554.2,-187.91"/>
<polygon fill="grey" stroke="grey" stroke-width="2" points="556.29,-185.04 546.77,-180.41 551.32,-189.97 556.29,-185.04"/>
</g>
<!-- 4 -->
<g id="node5" class="node">
<title>4</title>
<path fill="none" stroke="#61d856" stroke-width="2" d="M269.5,-972C269.5,-972 159.5,-972 159.5,-972 153.5,-972 147.5,-966 147.5,-960 147.5,-960 147.5,-948 147.5,-948 147.5,-942 153.5,-936 159.5,-936 159.5,-936 269.5,-936 269.5,-936 275.5,-936 281.5,-942 281.5,-948 281.5,-948 281.5,-960 281.5,-960 281.5,-966 275.5,-972 269.5,-972"/>
<text text-anchor="middle" x="214.5" y="-951.5" font-family="sans" font-size="10.00">build_pacbio_consensus</text>
</g>
<!-- 4&#45;&gt;3 -->
<g id="edge10" class="edge">
<title>4&#45;&gt;3</title>
<path fill="none" stroke="grey" stroke-width="2" d="M281.69,-940.32C347.73,-927.86 448.1,-908.92 515.2,-896.26"/>
<polygon fill="grey" stroke="grey" stroke-width="2" points="516.08,-899.66 525.26,-894.37 514.78,-892.78 516.08,-899.66"/>
</g>
<!-- 4&#45;&gt;13 -->
<g id="edge28" class="edge">
<title>4&#45;&gt;13</title>
<path fill="none" stroke="grey" stroke-width="2" d="M193.62,-935.63C166.48,-910.97 122.5,-862.99 122.5,-811 122.5,-811 122.5,-811 122.5,-233 122.5,-104.56 594.48,-91.6 750.85,-90.83"/>
<polygon fill="grey" stroke="grey" stroke-width="2" points="751.13,-94.32 761.12,-90.79 751.11,-87.32 751.13,-94.32"/>
</g>
<!-- 4&#45;&gt;16 -->
<g id="edge41" class="edge">
<title>4&#45;&gt;16</title>
<path fill="none" stroke="grey" stroke-width="2" d="M245.89,-935.94C283.5,-912.95 341.5,-868.22 341.5,-811 341.5,-811 341.5,-811 341.5,-665 341.5,-536.42 404.64,-391.98 432.99,-333.6"/>
<polygon fill="grey" stroke="grey" stroke-width="2" points="436.27,-334.87 437.55,-324.35 429.99,-331.77 436.27,-334.87"/>
</g>
<!-- 4&#45;&gt;18 -->
<g id="edge50" class="edge">
<title>4&#45;&gt;18</title>
<path fill="none" stroke="grey" stroke-width="2" d="M203.31,-935.87C187.49,-909.96 160.5,-858.74 160.5,-811 160.5,-811 160.5,-811 160.5,-377 160.5,-336.03 158.89,-319.98 184.5,-288 258.85,-195.15 408.27,-171.24 483.71,-165.11"/>
<polygon fill="grey" stroke="grey" stroke-width="2" points="484.13,-168.59 493.84,-164.35 483.61,-161.61 484.13,-168.59"/>
</g>
<!-- 5 -->
<g id="node6" class="node">
<title>5</title>
<path fill="none" stroke="#d8c356" stroke-width="2" d="M110,-1044C110,-1044 21,-1044 21,-1044 15,-1044 9,-1038 9,-1032 9,-1032 9,-1020 9,-1020 9,-1014 15,-1008 21,-1008 21,-1008 110,-1008 110,-1008 116,-1008 122,-1014 122,-1020 122,-1020 122,-1032 122,-1032 122,-1038 116,-1044 110,-1044"/>
<text text-anchor="middle" x="65.5" y="-1023.5" font-family="sans" font-size="10.00">analyze_pacbio_ccs</text>
</g>
<!-- 5&#45;&gt;4 -->
<g id="edge12" class="edge">
<title>5&#45;&gt;4</title>
<path fill="none" stroke="grey" stroke-width="2" d="M101.95,-1007.88C122.14,-998.39 147.42,-986.51 168.91,-976.42"/>
<polygon fill="grey" stroke="grey" stroke-width="2" points="170.61,-979.49 178.17,-972.07 167.63,-973.15 170.61,-979.49"/>
</g>
<!-- 5&#45;&gt;13 -->
<g id="edge33" class="edge">
<title>5&#45;&gt;13</title>
<path fill="none" stroke="grey" stroke-width="2" d="M53.69,-1007.96C36.99,-982.16 8.5,-931.08 8.5,-883 8.5,-883 8.5,-883 8.5,-233 8.5,-156.63 82.84,-167.53 155.5,-144 266.21,-108.15 620.05,-95.61 751.08,-92.14"/>
<polygon fill="grey" stroke="grey" stroke-width="2" points="751.32,-95.63 761.23,-91.87 751.14,-88.63 751.32,-95.63"/>
</g>
<!-- 5&#45;&gt;16 -->
<g id="edge44" class="edge">
<title>5&#45;&gt;16</title>
<path fill="none" stroke="grey" stroke-width="2" d="M69.34,-1007.61C74.9,-980.94 84.5,-928.27 84.5,-883 84.5,-883 84.5,-883 84.5,-521 84.5,-387.55 247.92,-472.16 357.5,-396 383.72,-377.78 409,-351.36 425.88,-332.04"/>
<polygon fill="grey" stroke="grey" stroke-width="2" points="428.72,-334.11 432.57,-324.24 423.4,-329.55 428.72,-334.11"/>
</g>
<!-- 5&#45;&gt;18 -->
<g id="edge55" class="edge">
<title>5&#45;&gt;18</title>
<path fill="none" stroke="grey" stroke-width="2" d="M61.66,-1007.61C56.1,-980.94 46.5,-928.27 46.5,-883 46.5,-883 46.5,-883 46.5,-377 46.5,-186.73 363.68,-164.3 483.98,-162.64"/>
<polygon fill="grey" stroke="grey" stroke-width="2" points="484.02,-166.14 493.98,-162.55 483.95,-159.14 484.02,-166.14"/>
</g>
<!-- 6 -->
<g id="node7" class="node">
<title>6</title>
<path fill="none" stroke="#56d8d0" stroke-width="2" d="M119,-1116C119,-1116 12,-1116 12,-1116 6,-1116 0,-1110 0,-1104 0,-1104 0,-1092 0,-1092 0,-1086 6,-1080 12,-1080 12,-1080 119,-1080 119,-1080 125,-1080 131,-1086 131,-1092 131,-1092 131,-1104 131,-1104 131,-1110 125,-1116 119,-1116"/>
<text text-anchor="middle" x="65.5" y="-1095.5" font-family="sans" font-size="10.00">align_parse_PacBio_ccs</text>
</g>
<!-- 6&#45;&gt;5 -->
<g id="edge13" class="edge">
<title>6&#45;&gt;5</title>
<path fill="none" stroke="grey" stroke-width="2" d="M65.5,-1079.7C65.5,-1071.98 65.5,-1062.71 65.5,-1054.11"/>
<polygon fill="grey" stroke="grey" stroke-width="2" points="69,-1054.1 65.5,-1044.1 62,-1054.1 69,-1054.1"/>
</g>
<!-- 7 -->
<g id="node8" class="node">
<title>7</title>
<path fill="none" stroke="#d89c56" stroke-width="2" d="M619.5,-1044C619.5,-1044 551.5,-1044 551.5,-1044 545.5,-1044 539.5,-1038 539.5,-1032 539.5,-1032 539.5,-1020 539.5,-1020 539.5,-1014 545.5,-1008 551.5,-1008 551.5,-1008 619.5,-1008 619.5,-1008 625.5,-1008 631.5,-1014 631.5,-1020 631.5,-1020 631.5,-1032 631.5,-1032 631.5,-1038 625.5,-1044 619.5,-1044"/>
<text text-anchor="middle" x="585.5" y="-1023.5" font-family="sans" font-size="10.00">gene_sequence</text>
</g>
<!-- 7&#45;&gt;1 -->
<g id="edge7" class="edge">
<title>7&#45;&gt;1</title>
<path fill="none" stroke="grey" stroke-width="2" d="M605.19,-1007.93C639.76,-976.5 710.2,-905.54 736.5,-828 741.64,-812.85 742.83,-806.7 736.5,-792 731.71,-780.87 723.31,-770.99 714.45,-762.86"/>
<polygon fill="grey" stroke="grey" stroke-width="2" points="716.5,-760.01 706.62,-756.18 711.96,-765.34 716.5,-760.01"/>
</g>
<!-- 7&#45;&gt;3 -->
<g id="edge9" class="edge">
<title>7&#45;&gt;3</title>
<path fill="none" stroke="grey" stroke-width="2" d="M585.5,-1007.87C585.5,-983.67 585.5,-939.21 585.5,-910.39"/>
<polygon fill="grey" stroke="grey" stroke-width="2" points="589,-910.19 585.5,-900.19 582,-910.19 589,-910.19"/>
</g>
<!-- 7&#45;&gt;4 -->
<g id="edge11" class="edge">
<title>7&#45;&gt;4</title>
<path fill="none" stroke="grey" stroke-width="2" d="M539.26,-1016.28C477.27,-1004.58 366.36,-983.65 291.62,-969.55"/>
<polygon fill="grey" stroke="grey" stroke-width="2" points="292.25,-966.11 281.78,-967.69 290.95,-972.99 292.25,-966.11"/>
</g>
<!-- 7&#45;&gt;9 -->
<g id="edge18" class="edge">
<title>7&#45;&gt;9</title>
<path fill="none" stroke="grey" stroke-width="2" d="M631.69,-1024.83C720.31,-1021.82 905.5,-1001.37 905.5,-883 905.5,-883 905.5,-883 905.5,-809 905.5,-765.19 880.14,-719.81 861.6,-692.49"/>
<polygon fill="grey" stroke="grey" stroke-width="2" points="864.46,-690.47 855.86,-684.28 858.72,-694.48 864.46,-690.47"/>
</g>
<!-- 7&#45;&gt;12 -->
<g id="edge23" class="edge">
<title>7&#45;&gt;12</title>
<path fill="none" stroke="grey" stroke-width="2" d="M551.94,-1007.93C512.54,-985.23 452.5,-941.1 452.5,-883 452.5,-883 452.5,-883 452.5,-809 452.5,-710.36 497.18,-599.42 519.76,-549.66"/>
<polygon fill="grey" stroke="grey" stroke-width="2" points="523.08,-550.81 524.09,-540.27 516.72,-547.88 523.08,-550.81"/>
</g>
<!-- 7&#45;&gt;13 -->
<g id="edge27" class="edge">
<title>7&#45;&gt;13</title>
<path fill="none" stroke="grey" stroke-width="2" d="M631.66,-1022.17C758.06,-1013.15 1100.5,-979.8 1100.5,-883 1100.5,-883 1100.5,-883 1100.5,-593 1100.5,-384.36 1117.67,-284.57 963.5,-144 932.18,-115.44 885.25,-102.26 849.78,-96.18"/>
<polygon fill="grey" stroke="grey" stroke-width="2" points="850.06,-92.68 839.63,-94.58 848.97,-99.59 850.06,-92.68"/>
</g>
<!-- 7&#45;&gt;18 -->
<g id="edge49" class="edge">
<title>7&#45;&gt;18</title>
<path fill="none" stroke="grey" stroke-width="2" d="M539.27,-1014.88C478.53,-998.55 379.5,-960.1 379.5,-883 379.5,-883 379.5,-883 379.5,-665 379.5,-511.51 160.53,-502.53 217.5,-360 250.29,-277.97 279.29,-262.34 354.5,-216 394.52,-191.34 446.79,-177.48 483.76,-170.17"/>
<polygon fill="grey" stroke="grey" stroke-width="2" points="484.58,-173.58 493.75,-168.28 483.28,-166.7 484.58,-173.58"/>
</g>
<!-- 8 -->
<g id="node9" class="node">
<title>8</title>
<path fill="none" stroke="#56d863" stroke-width="2" d="M946,-612C946,-612 797,-612 797,-612 791,-612 785,-606 785,-600 785,-600 785,-588 785,-588 785,-582 791,-576 797,-576 797,-576 946,-576 946,-576 952,-576 958,-582 958,-588 958,-588 958,-600 958,-600 958,-606 952,-612 946,-612"/>
<text text-anchor="middle" x="871.5" y="-591.5" font-family="sans" font-size="10.00">check_adequate_variant_counts</text>
</g>
<!-- 8&#45;&gt;0 -->
<g id="edge3" class="edge">
<title>8&#45;&gt;0</title>
<path fill="none" stroke="grey" stroke-width="2" d="M882.8,-575.87C918.13,-521.12 1026.34,-344.33 1062.5,-180 1072.82,-133.12 1088.31,-112.47 1062.5,-72 1045.71,-45.68 1012.1,-32.23 985.71,-25.48"/>
<polygon fill="grey" stroke="grey" stroke-width="2" points="986.17,-21.99 975.63,-23.13 984.58,-28.81 986.17,-21.99"/>
</g>
<!-- 8&#45;&gt;12 -->
<g id="edge24" class="edge">
<title>8&#45;&gt;12</title>
<path fill="none" stroke="grey" stroke-width="2" d="M789,-575.97C724.19,-562.58 636.1,-544.39 581.84,-533.19"/>
<polygon fill="grey" stroke="grey" stroke-width="2" points="582.28,-529.71 571.78,-531.11 580.87,-536.56 582.28,-529.71"/>
</g>
<!-- 9&#45;&gt;8 -->
<g id="edge14" class="edge">
<title>9&#45;&gt;8</title>
<path fill="none" stroke="grey" stroke-width="2" d="M849.67,-647.7C852.93,-639.81 856.87,-630.3 860.5,-621.55"/>
<polygon fill="grey" stroke="grey" stroke-width="2" points="863.82,-622.68 864.41,-612.1 857.35,-620 863.82,-622.68"/>
</g>
<!-- 9&#45;&gt;13 -->
<g id="edge36" class="edge">
<title>9&#45;&gt;13</title>
<path fill="none" stroke="grey" stroke-width="2" d="M908.85,-656.79C936.71,-649.7 966.53,-636.51 983.5,-612 990.61,-601.73 1007.07,-630.97 981.5,-432 964.7,-301.24 993.57,-246.36 910.5,-144 894.97,-124.86 870.85,-112.17 849.15,-104.02"/>
<polygon fill="grey" stroke="grey" stroke-width="2" points="850.3,-100.72 839.71,-100.7 847.98,-107.32 850.3,-100.72"/>
</g>
<!-- 9&#45;&gt;16 -->
<g id="edge46" class="edge">
<title>9&#45;&gt;16</title>
<path fill="none" stroke="grey" stroke-width="2" d="M820.49,-647.95C807.51,-637.74 790.86,-624.38 776.5,-612 715.6,-559.51 538.83,-393.82 472.26,-331.25"/>
<polygon fill="grey" stroke="grey" stroke-width="2" points="474.39,-328.44 464.71,-324.14 469.6,-333.54 474.39,-328.44"/>
</g>
<!-- 9&#45;&gt;18 -->
<g id="edge58" class="edge">
<title>9&#45;&gt;18</title>
<path fill="none" stroke="grey" stroke-width="2" d="M908.71,-652.53C931.24,-644.78 954.1,-632.24 967.5,-612 976.33,-598.66 972.76,-591.11 967.5,-576 950.18,-526.21 702.06,-245.69 658.5,-216 632.86,-198.53 600.57,-185.27 574.71,-176.38"/>
<polygon fill="grey" stroke="grey" stroke-width="2" points="575.74,-173.03 565.14,-173.19 573.52,-179.67 575.74,-173.03"/>
</g>
<!-- 10 -->
<g id="node11" class="node">
<title>10</title>
<path fill="none" stroke="#56d8b9" stroke-width="2" d="M336.5,-396C336.5,-396 238.5,-396 238.5,-396 232.5,-396 226.5,-390 226.5,-384 226.5,-384 226.5,-372 226.5,-372 226.5,-366 232.5,-360 238.5,-360 238.5,-360 336.5,-360 336.5,-360 342.5,-360 348.5,-366 348.5,-372 348.5,-372 348.5,-384 348.5,-384 348.5,-390 342.5,-396 336.5,-396"/>
<text text-anchor="middle" x="287.5" y="-375.5" font-family="sans" font-size="10.00">avg_antibody_escape</text>
</g>
<!-- 10&#45;&gt;0 -->
<g id="edge4" class="edge">
<title>10&#45;&gt;0</title>
<path fill="none" stroke="grey" stroke-width="2" d="M226.32,-362.07C166.55,-343.39 84.5,-305 84.5,-235 84.5,-235 84.5,-235 84.5,-161 84.5,-75.94 745.03,-31.07 911.01,-21.13"/>
<polygon fill="grey" stroke="grey" stroke-width="2" points="911.44,-24.61 921.22,-20.53 911.03,-17.63 911.44,-24.61"/>
</g>
<!-- 10&#45;&gt;13 -->
<g id="edge35" class="edge">
<title>10&#45;&gt;13</title>
<path fill="none" stroke="grey" stroke-width="2" d="M289.76,-359.83C296.69,-314.89 322.19,-193.86 400.5,-144 457.74,-107.55 657.43,-95.92 751.18,-92.41"/>
<polygon fill="grey" stroke="grey" stroke-width="2" points="751.4,-95.91 761.27,-92.05 751.15,-88.91 751.4,-95.91"/>
</g>
<!-- 10&#45;&gt;16 -->
<g id="edge45" class="edge">
<title>10&#45;&gt;16</title>
<path fill="none" stroke="grey" stroke-width="2" d="M326.4,-359.88C348.13,-350.31 375.4,-338.3 398.46,-328.15"/>
<polygon fill="grey" stroke="grey" stroke-width="2" points="399.99,-331.3 407.73,-324.07 397.17,-324.89 399.99,-331.3"/>
</g>
<!-- 10&#45;&gt;18 -->
<g id="edge57" class="edge">
<title>10&#45;&gt;18</title>
<path fill="none" stroke="grey" stroke-width="2" d="M294.36,-359.91C308.19,-327.47 342.46,-256.55 392.5,-216 419.09,-194.46 455.44,-180.94 484.02,-172.95"/>
<polygon fill="grey" stroke="grey" stroke-width="2" points="485.01,-176.3 493.77,-170.35 483.21,-169.54 485.01,-176.3"/>
</g>
<!-- 11 -->
<g id="node12" class="node">
<title>11</title>
<path fill="none" stroke="#d85656" stroke-width="2" d="M557.5,-468C557.5,-468 499.5,-468 499.5,-468 493.5,-468 487.5,-462 487.5,-456 487.5,-456 487.5,-444 487.5,-444 487.5,-438 493.5,-432 499.5,-432 499.5,-432 557.5,-432 557.5,-432 563.5,-432 569.5,-438 569.5,-444 569.5,-444 569.5,-456 569.5,-456 569.5,-462 563.5,-468 557.5,-468"/>
<text text-anchor="middle" x="528.5" y="-447.5" font-family="sans" font-size="10.00">fit_polyclonal</text>
</g>
<!-- 11&#45;&gt;10 -->
<g id="edge19" class="edge">
<title>11&#45;&gt;10</title>
<path fill="none" stroke="grey" stroke-width="2" d="M487.34,-437.05C451.3,-426.58 398.2,-411.15 355.8,-398.84"/>
<polygon fill="grey" stroke="grey" stroke-width="2" points="356.68,-395.45 346.1,-396.02 354.72,-402.17 356.68,-395.45"/>
</g>
<!-- 11&#45;&gt;13 -->
<g id="edge29" class="edge">
<title>11&#45;&gt;13</title>
<path fill="none" stroke="grey" stroke-width="2" d="M569.63,-449.49C658.09,-448.16 858.5,-431.43 858.5,-307 858.5,-307 858.5,-307 858.5,-233 858.5,-189.7 835.1,-144.11 818.02,-116.61"/>
<polygon fill="grey" stroke="grey" stroke-width="2" points="820.86,-114.55 812.52,-108.01 814.96,-118.32 820.86,-114.55"/>
</g>
<!-- 11&#45;&gt;16 -->
<g id="edge42" class="edge">
<title>11&#45;&gt;16</title>
<path fill="none" stroke="grey" stroke-width="2" d="M518.61,-431.87C504.39,-407.24 478.05,-361.64 461.45,-332.88"/>
<polygon fill="grey" stroke="grey" stroke-width="2" points="464.46,-331.1 456.43,-324.19 458.4,-334.6 464.46,-331.1"/>
</g>
<!-- 11&#45;&gt;18 -->
<g id="edge51" class="edge">
<title>11&#45;&gt;18</title>
<path fill="none" stroke="grey" stroke-width="2" d="M528.56,-431.97C528.73,-384.29 529.2,-249.18 529.4,-190.63"/>
<polygon fill="grey" stroke="grey" stroke-width="2" points="532.9,-190.32 529.44,-180.31 525.9,-190.29 532.9,-190.32"/>
</g>
<!-- 12&#45;&gt;11 -->
<g id="edge20" class="edge">
<title>12&#45;&gt;11</title>
<path fill="none" stroke="grey" stroke-width="2" d="M531.51,-503.7C531.07,-495.98 530.54,-486.71 530.05,-478.11"/>
<polygon fill="grey" stroke="grey" stroke-width="2" points="533.54,-477.89 529.48,-468.1 526.55,-478.29 533.54,-477.89"/>
</g>
<!-- 14 -->
<g id="node15" class="node">
<title>14</title>
<path fill="none" stroke="#bed856" stroke-width="2" d="M704.5,-396C704.5,-396 606.5,-396 606.5,-396 600.5,-396 594.5,-390 594.5,-384 594.5,-384 594.5,-372 594.5,-372 594.5,-366 600.5,-360 606.5,-360 606.5,-360 704.5,-360 704.5,-360 710.5,-360 716.5,-366 716.5,-372 716.5,-372 716.5,-384 716.5,-384 716.5,-390 710.5,-396 704.5,-396"/>
<text text-anchor="middle" x="655.5" y="-375.5" font-family="sans" font-size="10.00">analyze_prob_escape</text>
</g>
<!-- 12&#45;&gt;14 -->
<g id="edge38" class="edge">
<title>12&#45;&gt;14</title>
<path fill="none" stroke="grey" stroke-width="2" d="M547.42,-503.82C556.43,-493.45 568.13,-479.97 578.5,-468 597.3,-446.31 618.65,-421.62 634.1,-403.76"/>
<polygon fill="grey" stroke="grey" stroke-width="2" points="636.85,-405.92 640.75,-396.07 631.56,-401.34 636.85,-405.92"/>
</g>
<!-- 13&#45;&gt;0 -->
<g id="edge2" class="edge">
<title>13&#45;&gt;0</title>
<path fill="none" stroke="grey" stroke-width="2" d="M836.7,-71.88C859.72,-60.99 889.4,-46.95 912.4,-36.07"/>
<polygon fill="grey" stroke="grey" stroke-width="2" points="913.94,-39.22 921.49,-31.78 910.95,-32.89 913.94,-39.22"/>
</g>
<!-- 14&#45;&gt;13 -->
<g id="edge30" class="edge">
<title>14&#45;&gt;13</title>
<path fill="none" stroke="grey" stroke-width="2" d="M688.68,-359.99C724.16,-339.71 778.41,-302.17 801.5,-252 821.43,-208.7 814.36,-151.64 807.42,-118.37"/>
<polygon fill="grey" stroke="grey" stroke-width="2" points="810.8,-117.45 805.21,-108.45 803.97,-118.97 810.8,-117.45"/>
</g>
<!-- 14&#45;&gt;16 -->
<g id="edge43" class="edge">
<title>14&#45;&gt;16</title>
<path fill="none" stroke="grey" stroke-width="2" d="M604.64,-359.97C571.57,-348.89 528.67,-334.52 495.9,-323.54"/>
<polygon fill="grey" stroke="grey" stroke-width="2" points="496.67,-320.11 486.07,-320.25 494.44,-326.75 496.67,-320.11"/>
</g>
<!-- 14&#45;&gt;18 -->
<g id="edge52" class="edge">
<title>14&#45;&gt;18</title>
<path fill="none" stroke="grey" stroke-width="2" d="M636.38,-359.59C626.35,-349.8 614.34,-336.96 605.5,-324 575.67,-280.27 551.73,-222.98 539.16,-189.86"/>
<polygon fill="grey" stroke="grey" stroke-width="2" points="542.4,-188.54 535.63,-180.39 535.84,-190.99 542.4,-188.54"/>
</g>
<!-- 15 -->
<g id="node16" class="node">
<title>15</title>
<path fill="none" stroke="#566bd8" stroke-width="2" d="M451,-252C451,-252 414,-252 414,-252 408,-252 402,-246 402,-240 402,-240 402,-228 402,-228 402,-222 408,-216 414,-216 414,-216 451,-216 451,-216 457,-216 463,-222 463,-228 463,-228 463,-240 463,-240 463,-246 457,-252 451,-252"/>
<text text-anchor="middle" x="432.5" y="-231.5" font-family="sans" font-size="10.00">subindex</text>
</g>
<!-- 15&#45;&gt;13 -->
<g id="edge31" class="edge">
<title>15&#45;&gt;13</title>
<path fill="none" stroke="grey" stroke-width="2" d="M437.56,-215.83C444.57,-195.25 459.31,-161.38 484.5,-144 526.95,-114.71 673.69,-100.04 751.37,-94.18"/>
<polygon fill="grey" stroke="grey" stroke-width="2" points="751.68,-97.67 761.4,-93.45 751.17,-90.69 751.68,-97.67"/>
</g>
<!-- 15&#45;&gt;18 -->
<g id="edge53" class="edge">
<title>15&#45;&gt;18</title>
<path fill="none" stroke="grey" stroke-width="2" d="M456.48,-215.7C468.81,-206.8 484.02,-195.82 497.35,-186.2"/>
<polygon fill="grey" stroke="grey" stroke-width="2" points="499.74,-188.79 505.8,-180.1 495.64,-183.12 499.74,-188.79"/>
</g>
<!-- 16&#45;&gt;13 -->
<g id="edge34" class="edge">
<title>16&#45;&gt;13</title>
<path fill="none" stroke="grey" stroke-width="2" d="M421.57,-287.86C410.44,-278.67 398.5,-266.29 392.5,-252 371.41,-201.76 403.26,-171.14 450.5,-144 500.82,-115.09 667.4,-99.99 751.31,-94.06"/>
<polygon fill="grey" stroke="grey" stroke-width="2" points="751.62,-97.54 761.36,-93.36 751.14,-90.56 751.62,-97.54"/>
</g>
<!-- 16&#45;&gt;15 -->
<g id="edge39" class="edge">
<title>16&#45;&gt;15</title>
<path fill="none" stroke="grey" stroke-width="2" d="M443.04,-287.7C441.5,-279.98 439.64,-270.71 437.92,-262.11"/>
<polygon fill="grey" stroke="grey" stroke-width="2" points="441.31,-261.22 435.92,-252.1 434.45,-262.6 441.31,-261.22"/>
</g>
<!-- 16&#45;&gt;18 -->
<g id="edge56" class="edge">
<title>16&#45;&gt;18</title>
<path fill="none" stroke="grey" stroke-width="2" d="M456.51,-287.87C470.91,-263.24 497.56,-217.64 514.37,-188.88"/>
<polygon fill="grey" stroke="grey" stroke-width="2" points="517.43,-190.59 519.45,-180.19 511.38,-187.06 517.43,-190.59"/>
</g>
<!-- 17 -->
<g id="node18" class="node">
<title>17</title>
<path fill="none" stroke="#d86e56" stroke-width="2" d="M780.5,-252C780.5,-252 722.5,-252 722.5,-252 716.5,-252 710.5,-246 710.5,-240 710.5,-240 710.5,-228 710.5,-228 710.5,-222 716.5,-216 722.5,-216 722.5,-216 780.5,-216 780.5,-216 786.5,-216 792.5,-222 792.5,-228 792.5,-228 792.5,-240 792.5,-240 792.5,-246 786.5,-252 780.5,-252"/>
<text text-anchor="middle" x="751.5" y="-231.5" font-family="sans" font-size="10.00">make_graphs</text>
</g>
<!-- 17&#45;&gt;13 -->
<g id="edge32" class="edge">
<title>17&#45;&gt;13</title>
<path fill="none" stroke="grey" stroke-width="2" d="M757.41,-215.87C765.8,-191.56 781.24,-146.82 791.18,-118.01"/>
<polygon fill="grey" stroke="grey" stroke-width="2" points="794.62,-118.78 794.57,-108.19 788,-116.5 794.62,-118.78"/>
</g>
<!-- 17&#45;&gt;18 -->
<g id="edge54" class="edge">
<title>17&#45;&gt;18</title>
<path fill="none" stroke="grey" stroke-width="2" d="M710.26,-220C671.77,-207.86 614.45,-189.79 574.72,-177.26"/>
<polygon fill="grey" stroke="grey" stroke-width="2" points="575.61,-173.87 565.02,-174.2 573.51,-180.55 575.61,-173.87"/>
</g>
<!-- 18&#45;&gt;13 -->
<g id="edge37" class="edge">
<title>18&#45;&gt;13</title>
<path fill="none" stroke="grey" stroke-width="2" d="M565.21,-151.78C612.87,-139.47 697.5,-117.6 751.22,-103.73"/>
<polygon fill="grey" stroke="grey" stroke-width="2" points="752.39,-107.04 761.2,-101.15 750.64,-100.26 752.39,-107.04"/>
</g>
</g>
</svg>
