<?xml version="1.0" encoding="UTF-8" standalone="no"?>
<!DOCTYPE svg PUBLIC "-//W3C//DTD SVG 1.1//EN"
 "http://www.w3.org/Graphics/SVG/1.1/DTD/svg11.dtd">
<!-- Generated by graphviz version 7.1.0 (20230122.1345)
 -->
<!-- Title: snakemake_dag Pages: 1 -->
<svg width="1166pt" height="1052pt"
 viewBox="0.00 0.00 1166.00 1052.00" xmlns="http://www.w3.org/2000/svg" xmlns:xlink="http://www.w3.org/1999/xlink">
<g id="graph0" class="graph" transform="scale(1 1) rotate(0) translate(4 1048)">
<title>snakemake_dag</title>
<polygon fill="white" stroke="none" points="-4,4 -4,-1048 1162,-1048 1162,4 -4,4"/>
<!-- 0 -->
<g id="node1" class="node">
<title>0</title>
<path fill="none" stroke="#c6d856" stroke-width="2" d="M910,-36C910,-36 880,-36 880,-36 874,-36 868,-30 868,-24 868,-24 868,-12 868,-12 868,-6 874,0 880,0 880,0 910,0 910,0 916,0 922,-6 922,-12 922,-12 922,-24 922,-24 922,-30 916,-36 910,-36"/>
<text text-anchor="middle" x="895" y="-15.5" font-family="sans" font-size="10.00">all</text>
</g>
<!-- 1 -->
<g id="node2" class="node">
<title>1</title>
<path fill="none" stroke="#56d8a2" stroke-width="2" d="M909.5,-684C909.5,-684 844.5,-684 844.5,-684 838.5,-684 832.5,-678 832.5,-672 832.5,-672 832.5,-660 832.5,-660 832.5,-654 838.5,-648 844.5,-648 844.5,-648 909.5,-648 909.5,-648 915.5,-648 921.5,-654 921.5,-660 921.5,-660 921.5,-672 921.5,-672 921.5,-678 915.5,-684 909.5,-684"/>
<text text-anchor="middle" x="877" y="-663.5" font-family="sans" font-size="10.00">variant_counts</text>
</g>
<!-- 1&#45;&gt;0 -->
<g id="edge3" class="edge">
<title>1&#45;&gt;0</title>
<path fill="none" stroke="grey" stroke-width="2" d="M904.69,-647.09C918.09,-637.63 933.85,-625.25 946,-612 971.67,-584.01 973.63,-573.24 992,-540 1072.55,-394.23 1078.19,-345.59 1096,-180 1097.71,-164.09 1103.77,-157.99 1096,-144 1061.73,-82.34 983.05,-47.17 934.92,-30.69"/>
<polygon fill="grey" stroke="grey" stroke-width="2" points="936.27,-27.45 925.68,-27.65 934.09,-34.1 936.27,-27.45"/>
</g>
<!-- 9 -->
<g id="node10" class="node">
<title>9</title>
<path fill="none" stroke="#78d856" stroke-width="2" d="M798,-612C798,-612 690,-612 690,-612 684,-612 678,-606 678,-600 678,-600 678,-588 678,-588 678,-582 684,-576 690,-576 690,-576 798,-576 798,-576 804,-576 810,-582 810,-588 810,-588 810,-600 810,-600 810,-606 804,-612 798,-612"/>
<text text-anchor="middle" x="744" y="-591.5" font-family="sans" font-size="10.00">analyze_variant_counts</text>
</g>
<!-- 1&#45;&gt;9 -->
<g id="edge16" class="edge">
<title>1&#45;&gt;9</title>
<path fill="none" stroke="grey" stroke-width="2" d="M843.09,-647.15C826.76,-638.56 806.93,-628.12 789.32,-618.85"/>
<polygon fill="grey" stroke="grey" stroke-width="2" points="791,-615.78 780.52,-614.22 787.74,-621.98 791,-615.78"/>
</g>
<!-- 11 -->
<g id="node12" class="node">
<title>11</title>
<path fill="none" stroke="#b6d856" stroke-width="2" d="M850,-108C850,-108 796,-108 796,-108 790,-108 784,-102 784,-96 784,-96 784,-84 784,-84 784,-78 790,-72 796,-72 796,-72 850,-72 850,-72 856,-72 862,-78 862,-84 862,-84 862,-96 862,-96 862,-102 856,-108 850,-108"/>
<text text-anchor="middle" x="823" y="-87.5" font-family="sans" font-size="10.00">sphinx_build</text>
</g>
<!-- 1&#45;&gt;11 -->
<g id="edge21" class="edge">
<title>1&#45;&gt;11</title>
<path fill="none" stroke="grey" stroke-width="2" d="M892.41,-647.01C933.75,-596.83 1044,-449.65 1044,-307 1044,-307 1044,-307 1044,-233 1044,-153.15 940.63,-116.11 875.29,-100.66"/>
<polygon fill="grey" stroke="grey" stroke-width="2" points="876.24,-97.29 865.72,-98.52 874.71,-104.12 876.24,-97.29"/>
</g>
<!-- 13 -->
<g id="node14" class="node">
<title>13</title>
<path fill="none" stroke="#d89556" stroke-width="2" d="M742,-468C742,-468 688,-468 688,-468 682,-468 676,-462 676,-456 676,-456 676,-444 676,-444 676,-438 682,-432 688,-432 688,-432 742,-432 742,-432 748,-432 754,-438 754,-444 754,-444 754,-456 754,-456 754,-462 748,-468 742,-468"/>
<text text-anchor="middle" x="715" y="-447.5" font-family="sans" font-size="10.00">prob_escape</text>
</g>
<!-- 1&#45;&gt;13 -->
<g id="edge35" class="edge">
<title>1&#45;&gt;13</title>
<path fill="none" stroke="grey" stroke-width="2" d="M877.16,-647C876.51,-614.6 870.66,-545.91 835,-504 817.59,-483.54 790.75,-470.69 766.87,-462.77"/>
<polygon fill="grey" stroke="grey" stroke-width="2" points="768.2,-459.51 757.61,-459.95 766.16,-466.21 768.2,-459.51"/>
</g>
<!-- 19 -->
<g id="node20" class="node">
<title>19</title>
<path fill="none" stroke="#56c1d8" stroke-width="2" d="M606.5,-180C606.5,-180 559.5,-180 559.5,-180 553.5,-180 547.5,-174 547.5,-168 547.5,-168 547.5,-156 547.5,-156 547.5,-150 553.5,-144 559.5,-144 559.5,-144 606.5,-144 606.5,-144 612.5,-144 618.5,-150 618.5,-156 618.5,-156 618.5,-168 618.5,-168 618.5,-174 612.5,-180 606.5,-180"/>
<text text-anchor="middle" x="583" y="-159.5" font-family="sans" font-size="10.00">docs_index</text>
</g>
<!-- 1&#45;&gt;19 -->
<g id="edge50" class="edge">
<title>1&#45;&gt;19</title>
<path fill="none" stroke="grey" stroke-width="2" d="M880.33,-647.41C882.11,-637.13 884.11,-623.88 885,-612 886.2,-596.04 885.88,-591.98 885,-576 879.6,-478.52 897.45,-442.35 845,-360 791.98,-276.75 690.54,-215.88 630.63,-185.28"/>
<polygon fill="grey" stroke="grey" stroke-width="2" points="632.44,-182.27 621.94,-180.92 629.31,-188.53 632.44,-182.27"/>
</g>
<!-- 2 -->
<g id="node3" class="node">
<title>2</title>
<path fill="none" stroke="#d8d356" stroke-width="2" d="M790.5,-756C790.5,-756 721.5,-756 721.5,-756 715.5,-756 709.5,-750 709.5,-744 709.5,-744 709.5,-732 709.5,-732 709.5,-726 715.5,-720 721.5,-720 721.5,-720 790.5,-720 790.5,-720 796.5,-720 802.5,-726 802.5,-732 802.5,-732 802.5,-744 802.5,-744 802.5,-750 796.5,-756 790.5,-756"/>
<text text-anchor="middle" x="756" y="-735.5" font-family="sans" font-size="10.00">count_barcodes</text>
</g>
<!-- 2&#45;&gt;1 -->
<g id="edge5" class="edge">
<title>2&#45;&gt;1</title>
<path fill="none" stroke="grey" stroke-width="2" d="M786.85,-719.15C801.5,-710.68 819.23,-700.42 835.07,-691.25"/>
<polygon fill="grey" stroke="grey" stroke-width="2" points="836.69,-694.37 843.59,-686.33 833.18,-688.31 836.69,-694.37"/>
</g>
<!-- 2&#45;&gt;9 -->
<g id="edge15" class="edge">
<title>2&#45;&gt;9</title>
<path fill="none" stroke="grey" stroke-width="2" d="M754.48,-719.02C752.5,-695.54 748.99,-654.11 746.59,-625.64"/>
<polygon fill="grey" stroke="grey" stroke-width="2" points="750.09,-625.52 745.76,-615.85 743.12,-626.11 750.09,-625.52"/>
</g>
<!-- 3 -->
<g id="node4" class="node">
<title>3</title>
<path fill="none" stroke="#56d88a" stroke-width="2" d="M729,-828C729,-828 633,-828 633,-828 627,-828 621,-822 621,-816 621,-816 621,-804 621,-804 621,-798 627,-792 633,-792 633,-792 729,-792 729,-792 735,-792 741,-798 741,-804 741,-804 741,-816 741,-816 741,-822 735,-828 729,-828"/>
<text text-anchor="middle" x="681" y="-807.5" font-family="sans" font-size="10.00">build_codon_variants</text>
</g>
<!-- 3&#45;&gt;1 -->
<g id="edge7" class="edge">
<title>3&#45;&gt;1</title>
<path fill="none" stroke="grey" stroke-width="2" d="M741.77,-792.32C765.26,-783.94 791.39,-772.07 812,-756 832.87,-739.73 850.16,-715.06 861.65,-695.82"/>
<polygon fill="grey" stroke="grey" stroke-width="2" points="864.6,-697.71 866.53,-687.29 858.52,-694.24 864.6,-697.71"/>
</g>
<!-- 3&#45;&gt;2 -->
<g id="edge8" class="edge">
<title>3&#45;&gt;2</title>
<path fill="none" stroke="grey" stroke-width="2" d="M699.93,-791.34C708.3,-783.52 718.33,-774.16 727.57,-765.53"/>
<polygon fill="grey" stroke="grey" stroke-width="2" points="729.68,-768.35 734.61,-758.97 724.91,-763.23 729.68,-768.35"/>
</g>
<!-- 3&#45;&gt;9 -->
<g id="edge18" class="edge">
<title>3&#45;&gt;9</title>
<path fill="none" stroke="grey" stroke-width="2" d="M684.12,-791.11C687.44,-773.02 693.15,-744.33 700,-720 709.29,-687 722.67,-650.06 732.24,-624.95"/>
<polygon fill="grey" stroke="grey" stroke-width="2" points="735.43,-626.4 735.76,-615.81 728.9,-623.88 735.43,-626.4"/>
</g>
<!-- 3&#45;&gt;11 -->
<g id="edge32" class="edge">
<title>3&#45;&gt;11</title>
<path fill="none" stroke="grey" stroke-width="2" d="M741.63,-794.65C772.75,-785.92 810.61,-773.11 842,-756 886.67,-731.65 897.86,-722.61 931,-684 1021.1,-579.04 1025.43,-532.3 1049,-396 1068.21,-284.96 1108.71,-214.75 1021,-144 979.59,-110.59 919,-98.13 875.77,-93.54"/>
<polygon fill="grey" stroke="grey" stroke-width="2" points="876.24,-90.07 865.96,-92.63 875.6,-97.04 876.24,-90.07"/>
</g>
<!-- 3&#45;&gt;13 -->
<g id="edge37" class="edge">
<title>3&#45;&gt;13</title>
<path fill="none" stroke="grey" stroke-width="2" d="M672.21,-791.3C649.31,-742.49 592.92,-603.05 643,-504 648.56,-493 657.6,-483.72 667.43,-476.16"/>
<polygon fill="grey" stroke="grey" stroke-width="2" points="669.15,-479.22 675.35,-470.63 665.15,-473.48 669.15,-479.22"/>
</g>
<!-- 16 -->
<g id="node17" class="node">
<title>16</title>
<path fill="none" stroke="#56d863" stroke-width="2" d="M474.5,-324C474.5,-324 419.5,-324 419.5,-324 413.5,-324 407.5,-318 407.5,-312 407.5,-312 407.5,-300 407.5,-300 407.5,-294 413.5,-288 419.5,-288 419.5,-288 474.5,-288 474.5,-288 480.5,-288 486.5,-294 486.5,-300 486.5,-300 486.5,-312 486.5,-312 486.5,-318 480.5,-324 474.5,-324"/>
<text text-anchor="middle" x="447" y="-303.5" font-family="sans" font-size="10.00">make_nblink</text>
</g>
<!-- 3&#45;&gt;16 -->
<g id="edge46" class="edge">
<title>3&#45;&gt;16</title>
<path fill="none" stroke="grey" stroke-width="2" d="M620.19,-799.72C592.24,-792.39 560.93,-779.3 541,-756 434.29,-631.25 438.48,-416.3 444.16,-337.28"/>
<polygon fill="grey" stroke="grey" stroke-width="2" points="447.63,-337.83 444.94,-327.59 440.65,-337.28 447.63,-337.83"/>
</g>
<!-- 3&#45;&gt;19 -->
<g id="edge60" class="edge">
<title>3&#45;&gt;19</title>
<path fill="none" stroke="grey" stroke-width="2" d="M664.51,-791.1C656.34,-781.36 646.98,-768.73 641,-756 627.02,-726.24 630.1,-716.31 624,-684 600.01,-556.95 592.13,-524.97 583,-396 577.88,-323.73 579.93,-238.53 581.61,-193.87"/>
<polygon fill="grey" stroke="grey" stroke-width="2" points="585.11,-194.02 582.02,-183.89 578.12,-193.74 585.11,-194.02"/>
</g>
<!-- 4 -->
<g id="node5" class="node">
<title>4</title>
<path fill="none" stroke="#9fd856" stroke-width="2" d="M454,-900C454,-900 344,-900 344,-900 338,-900 332,-894 332,-888 332,-888 332,-876 332,-876 332,-870 338,-864 344,-864 344,-864 454,-864 454,-864 460,-864 466,-870 466,-876 466,-876 466,-888 466,-888 466,-894 460,-900 454,-900"/>
<text text-anchor="middle" x="399" y="-879.5" font-family="sans" font-size="10.00">build_pacbio_consensus</text>
</g>
<!-- 4&#45;&gt;3 -->
<g id="edge9" class="edge">
<title>4&#45;&gt;3</title>
<path fill="none" stroke="grey" stroke-width="2" d="M466.9,-864.14C509.48,-853.58 564.34,-839.96 607.86,-829.15"/>
<polygon fill="grey" stroke="grey" stroke-width="2" points="608.6,-832.58 617.46,-826.77 606.91,-825.78 608.6,-832.58"/>
</g>
<!-- 4&#45;&gt;11 -->
<g id="edge22" class="edge">
<title>4&#45;&gt;11</title>
<path fill="none" stroke="grey" stroke-width="2" d="M394.64,-863.01C382.25,-814.03 343.52,-675.37 280,-576 220.24,-482.51 157.46,-494.82 107,-396 70.3,-324.12 63.17,-294.23 83,-216 91.94,-180.72 91.46,-163.79 122,-144 175.99,-109.02 616.6,-95.71 770.32,-92.1"/>
<polygon fill="grey" stroke="grey" stroke-width="2" points="770.07,-95.61 779.99,-91.88 769.91,-88.61 770.07,-95.61"/>
</g>
<!-- 4&#45;&gt;16 -->
<g id="edge41" class="edge">
<title>4&#45;&gt;16</title>
<path fill="none" stroke="grey" stroke-width="2" d="M398.38,-863.07C397.5,-836.14 396,-783.63 396,-739 396,-739 396,-739 396,-449 396,-407.93 415.13,-363.9 429.96,-335.94"/>
<polygon fill="grey" stroke="grey" stroke-width="2" points="432.96,-337.75 434.72,-327.3 426.83,-334.37 432.96,-337.75"/>
</g>
<!-- 4&#45;&gt;19 -->
<g id="edge51" class="edge">
<title>4&#45;&gt;19</title>
<path fill="none" stroke="grey" stroke-width="2" d="M406.25,-863.41C416.5,-836.91 434,-784.96 434,-739 434,-739 434,-739 434,-593 434,-433.87 526.23,-258.97 565.56,-191.62"/>
<polygon fill="grey" stroke="grey" stroke-width="2" points="568.42,-193.66 570.5,-183.28 562.39,-190.1 568.42,-193.66"/>
</g>
<!-- 5 -->
<g id="node6" class="node">
<title>5</title>
<path fill="none" stroke="#56d8c9" stroke-width="2" d="M329.5,-972C329.5,-972 240.5,-972 240.5,-972 234.5,-972 228.5,-966 228.5,-960 228.5,-960 228.5,-948 228.5,-948 228.5,-942 234.5,-936 240.5,-936 240.5,-936 329.5,-936 329.5,-936 335.5,-936 341.5,-942 341.5,-948 341.5,-948 341.5,-960 341.5,-960 341.5,-966 335.5,-972 329.5,-972"/>
<text text-anchor="middle" x="285" y="-951.5" font-family="sans" font-size="10.00">analyze_pacbio_ccs</text>
</g>
<!-- 5&#45;&gt;4 -->
<g id="edge12" class="edge">
<title>5&#45;&gt;4</title>
<path fill="none" stroke="grey" stroke-width="2" d="M314.06,-935.15C327.73,-926.76 344.24,-916.62 359.06,-907.52"/>
<polygon fill="grey" stroke="grey" stroke-width="2" points="360.72,-910.61 367.41,-902.4 357.06,-904.65 360.72,-910.61"/>
</g>
<!-- 5&#45;&gt;11 -->
<g id="edge26" class="edge">
<title>5&#45;&gt;11</title>
<path fill="none" stroke="grey" stroke-width="2" d="M227.67,-949.52C144.44,-941.02 0,-911.75 0,-811 0,-811 0,-811 0,-233 0,-177.06 38.12,-167.26 89,-144 150.53,-115.87 612.78,-98.01 770.47,-92.68"/>
<polygon fill="grey" stroke="grey" stroke-width="2" points="770.57,-96.18 780.44,-92.34 770.33,-89.18 770.57,-96.18"/>
</g>
<!-- 5&#45;&gt;16 -->
<g id="edge44" class="edge">
<title>5&#45;&gt;16</title>
<path fill="none" stroke="grey" stroke-width="2" d="M281.06,-935.17C275.5,-908.36 266,-856.02 266,-811 266,-811 266,-811 266,-449 266,-383.04 341.32,-343.09 394.78,-323.04"/>
<polygon fill="grey" stroke="grey" stroke-width="2" points="395.75,-326.41 403.98,-319.74 393.39,-319.82 395.75,-326.41"/>
</g>
<!-- 5&#45;&gt;19 -->
<g id="edge55" class="edge">
<title>5&#45;&gt;19</title>
<path fill="none" stroke="grey" stroke-width="2" d="M290.25,-935.16C306.99,-876.65 358,-685.04 358,-523 358,-523 358,-523 358,-449 358,-375.27 359.85,-351.09 398,-288 410.46,-267.39 459.11,-229.58 479,-216 496.44,-204.1 516.9,-193.1 535.05,-184.25"/>
<polygon fill="grey" stroke="grey" stroke-width="2" points="536.33,-187.52 543.85,-180.06 533.32,-181.2 536.33,-187.52"/>
</g>
<!-- 6 -->
<g id="node7" class="node">
<title>6</title>
<path fill="none" stroke="#56d0d8" stroke-width="2" d="M338.5,-1044C338.5,-1044 231.5,-1044 231.5,-1044 225.5,-1044 219.5,-1038 219.5,-1032 219.5,-1032 219.5,-1020 219.5,-1020 219.5,-1014 225.5,-1008 231.5,-1008 231.5,-1008 338.5,-1008 338.5,-1008 344.5,-1008 350.5,-1014 350.5,-1020 350.5,-1020 350.5,-1032 350.5,-1032 350.5,-1038 344.5,-1044 338.5,-1044"/>
<text text-anchor="middle" x="285" y="-1023.5" font-family="sans" font-size="10.00">align_parse_PacBio_ccs</text>
</g>
<!-- 6&#45;&gt;5 -->
<g id="edge13" class="edge">
<title>6&#45;&gt;5</title>
<path fill="none" stroke="grey" stroke-width="2" d="M285,-1007.34C285,-1000.75 285,-993.08 285,-985.67"/>
<polygon fill="grey" stroke="grey" stroke-width="2" points="288.5,-985.93 285,-975.93 281.5,-985.93 288.5,-985.93"/>
</g>
<!-- 7 -->
<g id="node8" class="node">
<title>7</title>
<path fill="none" stroke="#5692d8" stroke-width="2" d="M715,-972C715,-972 647,-972 647,-972 641,-972 635,-966 635,-960 635,-960 635,-948 635,-948 635,-942 641,-936 647,-936 647,-936 715,-936 715,-936 721,-936 727,-942 727,-948 727,-948 727,-960 727,-960 727,-966 721,-972 715,-972"/>
<text text-anchor="middle" x="681" y="-951.5" font-family="sans" font-size="10.00">gene_sequence</text>
</g>
<!-- 7&#45;&gt;1 -->
<g id="edge6" class="edge">
<title>7&#45;&gt;1</title>
<path fill="none" stroke="grey" stroke-width="2" d="M698.87,-935.17C731.08,-902.24 799.47,-828.6 842,-756 852.89,-737.42 861.73,-714.81 867.8,-697.03"/>
<polygon fill="grey" stroke="grey" stroke-width="2" points="871.08,-698.27 870.87,-687.68 864.43,-696.09 871.08,-698.27"/>
</g>
<!-- 7&#45;&gt;3 -->
<g id="edge10" class="edge">
<title>7&#45;&gt;3</title>
<path fill="none" stroke="grey" stroke-width="2" d="M681,-935.02C681,-911.54 681,-870.11 681,-841.64"/>
<polygon fill="grey" stroke="grey" stroke-width="2" points="684.5,-841.87 681,-831.87 677.5,-841.87 684.5,-841.87"/>
</g>
<!-- 7&#45;&gt;4 -->
<g id="edge11" class="edge">
<title>7&#45;&gt;4</title>
<path fill="none" stroke="grey" stroke-width="2" d="M634.12,-941.36C592.03,-930.92 529.35,-915.36 479.29,-902.93"/>
<polygon fill="grey" stroke="grey" stroke-width="2" points="480.35,-899.59 469.8,-900.57 478.66,-906.38 480.35,-899.59"/>
</g>
<!-- 7&#45;&gt;9 -->
<g id="edge17" class="edge">
<title>7&#45;&gt;9</title>
<path fill="none" stroke="grey" stroke-width="2" d="M660.59,-935.02C634.59,-910.02 593,-862.05 593,-811 593,-811 593,-811 593,-737 593,-682 646.82,-642.06 690.2,-618.8"/>
<polygon fill="grey" stroke="grey" stroke-width="2" points="691.56,-622.04 698.84,-614.35 688.35,-615.81 691.56,-622.04"/>
</g>
<!-- 7&#45;&gt;11 -->
<g id="edge31" class="edge">
<title>7&#45;&gt;11</title>
<path fill="none" stroke="grey" stroke-width="2" d="M727.75,-953.86C799.29,-953.53 938.87,-946.29 1046,-900 1104.37,-874.78 1158,-874.58 1158,-811 1158,-811 1158,-811 1158,-377 1158,-263.05 1140.48,-214.56 1051,-144 1000.62,-104.27 925.65,-93.38 875.59,-90.88"/>
<polygon fill="grey" stroke="grey" stroke-width="2" points="875.96,-87.39 865.83,-90.51 875.69,-94.39 875.96,-87.39"/>
</g>
<!-- 7&#45;&gt;13 -->
<g id="edge36" class="edge">
<title>7&#45;&gt;13</title>
<path fill="none" stroke="grey" stroke-width="2" d="M646.69,-935.1C632.05,-926.12 615.68,-914.14 604,-900 530.5,-810.98 510.58,-759.37 541,-648 560.58,-576.31 573.55,-556.65 626,-504 637.11,-492.85 651.02,-483.13 664.52,-475.17"/>
<polygon fill="grey" stroke="grey" stroke-width="2" points="666.04,-478.32 673.05,-470.38 662.62,-472.22 666.04,-478.32"/>
</g>
<!-- 7&#45;&gt;19 -->
<g id="edge59" class="edge">
<title>7&#45;&gt;19</title>
<path fill="none" stroke="grey" stroke-width="2" d="M727.98,-947.92C841.23,-934.36 1120,-892.71 1120,-811 1120,-811 1120,-811 1120,-665 1120,-449.2 965.87,-441.32 814,-288 805.17,-279.09 737.88,-222.26 727,-216 697.03,-198.76 660.43,-185.38 631.63,-176.37"/>
<polygon fill="grey" stroke="grey" stroke-width="2" points="632.89,-173.1 622.3,-173.54 630.86,-179.79 632.89,-173.1"/>
</g>
<!-- 8 -->
<g id="node9" class="node">
<title>8</title>
<path fill="none" stroke="#d85656" stroke-width="2" d="M813.5,-540C813.5,-540 664.5,-540 664.5,-540 658.5,-540 652.5,-534 652.5,-528 652.5,-528 652.5,-516 652.5,-516 652.5,-510 658.5,-504 664.5,-504 664.5,-504 813.5,-504 813.5,-504 819.5,-504 825.5,-510 825.5,-516 825.5,-516 825.5,-528 825.5,-528 825.5,-534 819.5,-540 813.5,-540"/>
<text text-anchor="middle" x="739" y="-519.5" font-family="sans" font-size="10.00">check_adequate_variant_counts</text>
</g>
<!-- 8&#45;&gt;0 -->
<g id="edge1" class="edge">
<title>8&#45;&gt;0</title>
<path fill="none" stroke="grey" stroke-width="2" d="M768.94,-503C831.01,-463.16 968,-360.94 968,-235 968,-235 968,-235 968,-161 968,-117.44 940.49,-73.85 919.25,-46.69"/>
<polygon fill="grey" stroke="grey" stroke-width="2" points="922.13,-44.68 913.11,-39.12 916.7,-49.09 922.13,-44.68"/>
</g>
<!-- 8&#45;&gt;13 -->
<g id="edge34" class="edge">
<title>8&#45;&gt;13</title>
<path fill="none" stroke="grey" stroke-width="2" d="M732.94,-503.34C730.63,-496.59 727.92,-488.69 725.32,-481.11"/>
<polygon fill="grey" stroke="grey" stroke-width="2" points="728.67,-480.09 722.12,-471.77 722.05,-482.36 728.67,-480.09"/>
</g>
<!-- 9&#45;&gt;8 -->
<g id="edge14" class="edge">
<title>9&#45;&gt;8</title>
<path fill="none" stroke="grey" stroke-width="2" d="M742.74,-575.34C742.27,-568.75 741.72,-561.08 741.19,-553.67"/>
<polygon fill="grey" stroke="grey" stroke-width="2" points="744.7,-553.65 740.49,-543.92 737.72,-554.15 744.7,-553.65"/>
</g>
<!-- 9&#45;&gt;11 -->
<g id="edge25" class="edge">
<title>9&#45;&gt;11</title>
<path fill="none" stroke="grey" stroke-width="2" d="M796.49,-575.18C843.4,-556.32 909.86,-521.75 944,-468 979.49,-412.13 973.48,-389.64 982,-324 992.78,-240.91 982.07,-206.25 926,-144 912.14,-128.62 892.77,-117.04 874.57,-108.68"/>
<polygon fill="grey" stroke="grey" stroke-width="2" points="876.19,-105.57 865.62,-104.85 873.43,-112.01 876.19,-105.57"/>
</g>
<!-- 9&#45;&gt;16 -->
<g id="edge43" class="edge">
<title>9&#45;&gt;16</title>
<path fill="none" stroke="grey" stroke-width="2" d="M701.49,-575.23C682.54,-566.21 660.59,-554.15 643,-540 566.13,-478.18 497.18,-382.68 465.45,-335.45"/>
<polygon fill="grey" stroke="grey" stroke-width="2" points="468.5,-333.71 460.05,-327.32 462.67,-337.58 468.5,-333.71"/>
</g>
<!-- 9&#45;&gt;19 -->
<g id="edge54" class="edge">
<title>9&#45;&gt;19</title>
<path fill="none" stroke="grey" stroke-width="2" d="M795,-575.11C810.64,-566.94 826.07,-555.53 835,-540 854.04,-506.87 882.11,-469.52 823,-360 810.67,-337.15 797.21,-340.29 777,-324 718.91,-277.18 652.16,-221.32 614.04,-189.23"/>
<polygon fill="grey" stroke="grey" stroke-width="2" points="616.3,-186.55 606.39,-182.78 611.78,-191.9 616.3,-186.55"/>
</g>
<!-- 10 -->
<g id="node11" class="node">
<title>10</title>
<path fill="none" stroke="#5682d8" stroke-width="2" d="M226,-396C226,-396 128,-396 128,-396 122,-396 116,-390 116,-384 116,-384 116,-372 116,-372 116,-366 122,-360 128,-360 128,-360 226,-360 226,-360 232,-360 238,-366 238,-372 238,-372 238,-384 238,-384 238,-390 232,-396 226,-396"/>
<text text-anchor="middle" x="177" y="-375.5" font-family="sans" font-size="10.00">avg_antibody_escape</text>
</g>
<!-- 10&#45;&gt;0 -->
<g id="edge2" class="edge">
<title>10&#45;&gt;0</title>
<path fill="none" stroke="grey" stroke-width="2" d="M134.66,-359.14C119.52,-350.66 103.79,-339.04 94,-324 49.83,-256.15 55.98,-190.87 122,-144 242.14,-58.71 713.01,-28.24 854.55,-20.9"/>
<polygon fill="grey" stroke="grey" stroke-width="2" points="854.36,-24.41 864.17,-20.41 854.01,-17.42 854.36,-24.41"/>
</g>
<!-- 10&#45;&gt;11 -->
<g id="edge30" class="edge">
<title>10&#45;&gt;11</title>
<path fill="none" stroke="grey" stroke-width="2" d="M155.8,-359.2C122.57,-329.07 64.98,-266.39 95,-216 129.4,-158.25 163.64,-163.38 228,-144 328.84,-113.63 644.18,-98.09 770.2,-92.96"/>
<polygon fill="grey" stroke="grey" stroke-width="2" points="770.32,-96.46 780.17,-92.57 770.04,-89.47 770.32,-96.46"/>
</g>
<!-- 10&#45;&gt;16 -->
<g id="edge45" class="edge">
<title>10&#45;&gt;16</title>
<path fill="none" stroke="grey" stroke-width="2" d="M238.94,-360.94C285.85,-348.78 349.59,-332.26 394.11,-320.71"/>
<polygon fill="grey" stroke="grey" stroke-width="2" points="394.97,-324.11 403.77,-318.21 393.21,-317.33 394.97,-324.11"/>
</g>
<!-- 18 -->
<g id="node19" class="node">
<title>18</title>
<path fill="none" stroke="#56d873" stroke-width="2" d="M253.5,-252C253.5,-252 116.5,-252 116.5,-252 110.5,-252 104.5,-246 104.5,-240 104.5,-240 104.5,-228 104.5,-228 104.5,-222 110.5,-216 116.5,-216 116.5,-216 253.5,-216 253.5,-216 259.5,-216 265.5,-222 265.5,-228 265.5,-228 265.5,-240 265.5,-240 265.5,-246 259.5,-252 253.5,-252"/>
<text text-anchor="middle" x="185" y="-231.5" font-family="sans" font-size="10.00">format_antibody_escape_plot</text>
</g>
<!-- 10&#45;&gt;18 -->
<g id="edge47" class="edge">
<title>10&#45;&gt;18</title>
<path fill="none" stroke="grey" stroke-width="2" d="M178.01,-359.02C179.34,-335.54 181.67,-294.11 183.27,-265.64"/>
<polygon fill="grey" stroke="grey" stroke-width="2" points="186.76,-266.04 183.82,-255.86 179.77,-265.65 186.76,-266.04"/>
</g>
<!-- 10&#45;&gt;19 -->
<g id="edge58" class="edge">
<title>10&#45;&gt;19</title>
<path fill="none" stroke="grey" stroke-width="2" d="M190.87,-359.02C217.86,-325.38 280.93,-252.98 351,-216 409.41,-185.18 485.32,-172.18 534.12,-166.77"/>
<polygon fill="grey" stroke="grey" stroke-width="2" points="534.22,-170.28 543.81,-165.77 533.5,-163.31 534.22,-170.28"/>
</g>
<!-- 11&#45;&gt;0 -->
<g id="edge4" class="edge">
<title>11&#45;&gt;0</title>
<path fill="none" stroke="grey" stroke-width="2" d="M841.17,-71.34C849.12,-63.6 858.63,-54.36 867.43,-45.81"/>
<polygon fill="grey" stroke="grey" stroke-width="2" points="869.69,-48.49 874.42,-39.01 864.81,-43.47 869.69,-48.49"/>
</g>
<!-- 12 -->
<g id="node13" class="node">
<title>12</title>
<path fill="none" stroke="#d8ac56" stroke-width="2" d="M702,-396C702,-396 604,-396 604,-396 598,-396 592,-390 592,-384 592,-384 592,-372 592,-372 592,-366 598,-360 604,-360 604,-360 702,-360 702,-360 708,-360 714,-366 714,-372 714,-372 714,-384 714,-384 714,-390 708,-396 702,-396"/>
<text text-anchor="middle" x="653" y="-375.5" font-family="sans" font-size="10.00">analyze_prob_escape</text>
</g>
<!-- 12&#45;&gt;11 -->
<g id="edge19" class="edge">
<title>12&#45;&gt;11</title>
<path fill="none" stroke="grey" stroke-width="2" d="M714.77,-360.79C767.21,-343.39 839.19,-310.09 873,-252 897.87,-209.27 868.15,-152.84 845.06,-119.39"/>
<polygon fill="grey" stroke="grey" stroke-width="2" points="848.02,-117.51 839.34,-111.43 842.33,-121.6 848.02,-117.51"/>
</g>
<!-- 12&#45;&gt;16 -->
<g id="edge40" class="edge">
<title>12&#45;&gt;16</title>
<path fill="none" stroke="grey" stroke-width="2" d="M600.22,-359.06C569.31,-348.56 530.41,-335.34 499.55,-324.86"/>
<polygon fill="grey" stroke="grey" stroke-width="2" points="500.75,-321.57 490.15,-321.66 498.5,-328.19 500.75,-321.57"/>
</g>
<!-- 12&#45;&gt;19 -->
<g id="edge48" class="edge">
<title>12&#45;&gt;19</title>
<path fill="none" stroke="grey" stroke-width="2" d="M642.79,-359.28C637.27,-349.18 630.66,-336.15 626,-324 609.05,-279.8 596.2,-226.33 589.14,-193.49"/>
<polygon fill="grey" stroke="grey" stroke-width="2" points="592.57,-192.8 587.09,-183.74 585.72,-194.24 592.57,-192.8"/>
</g>
<!-- 13&#45;&gt;12 -->
<g id="edge33" class="edge">
<title>13&#45;&gt;12</title>
<path fill="none" stroke="grey" stroke-width="2" d="M699.35,-431.34C692.72,-423.85 684.84,-414.95 677.47,-406.63"/>
<polygon fill="grey" stroke="grey" stroke-width="2" points="680.11,-404.33 670.86,-399.17 674.87,-408.97 680.11,-404.33"/>
</g>
<!-- 14 -->
<g id="node15" class="node">
<title>14</title>
<path fill="none" stroke="#88d856" stroke-width="2" d="M802,-396C802,-396 744,-396 744,-396 738,-396 732,-390 732,-384 732,-384 732,-372 732,-372 732,-366 738,-360 744,-360 744,-360 802,-360 802,-360 808,-360 814,-366 814,-372 814,-372 814,-384 814,-384 814,-390 808,-396 802,-396"/>
<text text-anchor="middle" x="773" y="-375.5" font-family="sans" font-size="10.00">fit_polyclonal</text>
</g>
<!-- 13&#45;&gt;14 -->
<g id="edge38" class="edge">
<title>13&#45;&gt;14</title>
<path fill="none" stroke="grey" stroke-width="2" d="M729.64,-431.34C735.77,-423.93 743.05,-415.14 749.88,-406.9"/>
<polygon fill="grey" stroke="grey" stroke-width="2" points="752.55,-409.17 756.24,-399.23 747.16,-404.7 752.55,-409.17"/>
</g>
<!-- 14&#45;&gt;11 -->
<g id="edge23" class="edge">
<title>14&#45;&gt;11</title>
<path fill="none" stroke="grey" stroke-width="2" d="M814.85,-360.15C832.83,-351.38 853.09,-339.27 868,-324 893.29,-298.12 897.3,-287.12 906,-252 917.54,-205.41 929.07,-186.1 906,-144 898.76,-130.78 886.66,-120.38 873.9,-112.42"/>
<polygon fill="grey" stroke="grey" stroke-width="2" points="875.7,-109.42 865.27,-107.54 872.25,-115.51 875.7,-109.42"/>
</g>
<!-- 14&#45;&gt;16 -->
<g id="edge42" class="edge">
<title>14&#45;&gt;16</title>
<path fill="none" stroke="grey" stroke-width="2" d="M731.12,-362.29C728.38,-361.48 725.66,-360.7 723,-360 646.36,-339.72 555.83,-323.83 499.91,-314.93"/>
<polygon fill="grey" stroke="grey" stroke-width="2" points="500.57,-311.49 490.14,-313.4 499.48,-318.41 500.57,-311.49"/>
</g>
<!-- 14&#45;&gt;19 -->
<g id="edge52" class="edge">
<title>14&#45;&gt;19</title>
<path fill="none" stroke="grey" stroke-width="2" d="M737.51,-359.11C721.55,-349.99 703.16,-337.89 689,-324 667.53,-302.94 623.95,-232.07 599.89,-191.73"/>
<polygon fill="grey" stroke="grey" stroke-width="2" points="603.04,-190.17 594.92,-183.36 597.02,-193.74 603.04,-190.17"/>
</g>
<!-- 15 -->
<g id="node16" class="node">
<title>15</title>
<path fill="none" stroke="#d86e56" stroke-width="2" d="M409.5,-252C409.5,-252 372.5,-252 372.5,-252 366.5,-252 360.5,-246 360.5,-240 360.5,-240 360.5,-228 360.5,-228 360.5,-222 366.5,-216 372.5,-216 372.5,-216 409.5,-216 409.5,-216 415.5,-216 421.5,-222 421.5,-228 421.5,-228 421.5,-240 421.5,-240 421.5,-246 415.5,-252 409.5,-252"/>
<text text-anchor="middle" x="391" y="-231.5" font-family="sans" font-size="10.00">subindex</text>
</g>
<!-- 15&#45;&gt;11 -->
<g id="edge20" class="edge">
<title>15&#45;&gt;11</title>
<path fill="none" stroke="grey" stroke-width="2" d="M414.57,-215.01C442.49,-194.6 491.17,-161.85 538,-144 615.66,-114.4 711.72,-100.93 770.13,-95.1"/>
<polygon fill="grey" stroke="grey" stroke-width="2" points="770.42,-98.59 780.05,-94.16 769.76,-91.62 770.42,-98.59"/>
</g>
<!-- 15&#45;&gt;19 -->
<g id="edge49" class="edge">
<title>15&#45;&gt;19</title>
<path fill="none" stroke="grey" stroke-width="2" d="M422.45,-221.05C426.99,-219.34 431.61,-217.62 436,-216 468.81,-203.89 505.86,-190.53 534.55,-180.26"/>
<polygon fill="grey" stroke="grey" stroke-width="2" points="535.61,-183.6 543.85,-176.94 533.25,-177.01 535.61,-183.6"/>
</g>
<!-- 16&#45;&gt;11 -->
<g id="edge27" class="edge">
<title>16&#45;&gt;11</title>
<path fill="none" stroke="grey" stroke-width="2" d="M406.81,-293.67C386.27,-285.61 363.1,-272.49 351,-252 342.87,-238.22 343.33,-230.04 351,-216 379.36,-164.06 407.59,-164.78 463,-144 567.27,-104.9 698.64,-94.52 770.34,-91.84"/>
<polygon fill="grey" stroke="grey" stroke-width="2" points="770.11,-95.35 779.99,-91.53 769.88,-88.36 770.11,-95.35"/>
</g>
<!-- 16&#45;&gt;15 -->
<g id="edge39" class="edge">
<title>16&#45;&gt;15</title>
<path fill="none" stroke="grey" stroke-width="2" d="M432.87,-287.34C426.95,-279.93 419.91,-271.14 413.32,-262.9"/>
<polygon fill="grey" stroke="grey" stroke-width="2" points="416.19,-260.89 407.21,-255.27 410.73,-265.26 416.19,-260.89"/>
</g>
<!-- 16&#45;&gt;19 -->
<g id="edge56" class="edge">
<title>16&#45;&gt;19</title>
<path fill="none" stroke="grey" stroke-width="2" d="M457.82,-287.07C469.71,-268.19 490.06,-238.17 512,-216 521.84,-206.06 533.65,-196.49 544.78,-188.29"/>
<polygon fill="grey" stroke="grey" stroke-width="2" points="546.6,-191.29 552.71,-182.63 542.53,-185.59 546.6,-191.29"/>
</g>
<!-- 17 -->
<g id="node18" class="node">
<title>17</title>
<path fill="none" stroke="#56d8b1" stroke-width="2" d="M852,-252C852,-252 794,-252 794,-252 788,-252 782,-246 782,-240 782,-240 782,-228 782,-228 782,-222 788,-216 794,-216 794,-216 852,-216 852,-216 858,-216 864,-222 864,-228 864,-228 864,-240 864,-240 864,-246 858,-252 852,-252"/>
<text text-anchor="middle" x="823" y="-231.5" font-family="sans" font-size="10.00">make_graphs</text>
</g>
<!-- 17&#45;&gt;11 -->
<g id="edge24" class="edge">
<title>17&#45;&gt;11</title>
<path fill="none" stroke="grey" stroke-width="2" d="M823,-215.02C823,-191.54 823,-150.11 823,-121.64"/>
<polygon fill="grey" stroke="grey" stroke-width="2" points="826.5,-121.87 823,-111.87 819.5,-121.87 826.5,-121.87"/>
</g>
<!-- 17&#45;&gt;19 -->
<g id="edge53" class="edge">
<title>17&#45;&gt;19</title>
<path fill="none" stroke="grey" stroke-width="2" d="M781.29,-220.01C776.8,-218.64 772.31,-217.28 768,-216 721.88,-202.27 669.1,-187.21 631.75,-176.67"/>
<polygon fill="grey" stroke="grey" stroke-width="2" points="632.71,-173.3 622.14,-173.96 630.81,-180.04 632.71,-173.3"/>
</g>
<!-- 18&#45;&gt;11 -->
<g id="edge29" class="edge">
<title>18&#45;&gt;11</title>
<path fill="none" stroke="grey" stroke-width="2" d="M197.82,-215.35C214.23,-194.29 244.79,-159.94 280,-144 366.62,-104.79 651.33,-94.48 770.17,-91.86"/>
<polygon fill="grey" stroke="grey" stroke-width="2" points="770.19,-95.36 780.12,-91.65 770.05,-88.36 770.19,-95.36"/>
</g>
<!-- 18&#45;&gt;19 -->
<g id="edge57" class="edge">
<title>18&#45;&gt;19</title>
<path fill="none" stroke="grey" stroke-width="2" d="M266.02,-218.75C346.46,-204.6 467.14,-183.38 534.01,-171.62"/>
<polygon fill="grey" stroke="grey" stroke-width="2" points="534.41,-175.1 543.65,-169.92 533.2,-168.21 534.41,-175.1"/>
</g>
<!-- 19&#45;&gt;11 -->
<g id="edge28" class="edge">
<title>19&#45;&gt;11</title>
<path fill="none" stroke="grey" stroke-width="2" d="M619.45,-150.37C659.84,-138.59 725.31,-119.49 771.06,-106.15"/>
<polygon fill="grey" stroke="grey" stroke-width="2" points="771.88,-109.56 780.5,-103.4 769.92,-102.84 771.88,-109.56"/>
</g>
</g>
</svg>
