<?xml version="1.0" encoding="UTF-8" standalone="no"?>
<!DOCTYPE svg PUBLIC "-//W3C//DTD SVG 1.1//EN"
 "http://www.w3.org/Graphics/SVG/1.1/DTD/svg11.dtd">
<!-- Generated by graphviz version 5.0.0 (20220707.2338)
 -->
<!-- Title: snakemake_dag Pages: 1 -->
<svg width="1105pt" height="1052pt"
 viewBox="0.00 0.00 1104.50 1052.00" xmlns="http://www.w3.org/2000/svg" xmlns:xlink="http://www.w3.org/1999/xlink">
<g id="graph0" class="graph" transform="scale(1 1) rotate(0) translate(4 1048)">
<title>snakemake_dag</title>
<polygon fill="white" stroke="transparent" points="-4,4 -4,-1048 1100.5,-1048 1100.5,4 -4,4"/>
<!-- 0 -->
<g id="node1" class="node">
<title>0</title>
<path fill="none" stroke="#d86e56" stroke-width="2" d="M72,-36C72,-36 42,-36 42,-36 36,-36 30,-30 30,-24 30,-24 30,-12 30,-12 30,-6 36,0 42,0 42,0 72,0 72,0 78,0 84,-6 84,-12 84,-12 84,-24 84,-24 84,-30 78,-36 72,-36"/>
<text text-anchor="middle" x="57" y="-15.5" font-family="sans" font-size="10.00">all</text>
</g>
<!-- 1 -->
<g id="node2" class="node">
<title>1</title>
<path fill="none" stroke="#88d856" stroke-width="2" d="M342.5,-684C342.5,-684 277.5,-684 277.5,-684 271.5,-684 265.5,-678 265.5,-672 265.5,-672 265.5,-660 265.5,-660 265.5,-654 271.5,-648 277.5,-648 277.5,-648 342.5,-648 342.5,-648 348.5,-648 354.5,-654 354.5,-660 354.5,-660 354.5,-672 354.5,-672 354.5,-678 348.5,-684 342.5,-684"/>
<text text-anchor="middle" x="310" y="-663.5" font-family="sans" font-size="10.00">variant_counts</text>
</g>
<!-- 1&#45;&gt;0 -->
<g id="edge2" class="edge">
<title>1&#45;&gt;0</title>
<path fill="none" stroke="grey" stroke-width="2" d="M265.25,-664.3C179.41,-660.35 0,-638.29 0,-523 0,-523 0,-523 0,-161 0,-117.8 23,-72.19 39.78,-44.66"/>
<polygon fill="grey" stroke="grey" stroke-width="2" points="42.83,-46.37 45.19,-36.04 36.91,-42.65 42.83,-46.37"/>
</g>
<!-- 8 -->
<g id="node9" class="node">
<title>8</title>
<path fill="none" stroke="#70d856" stroke-width="2" d="M250,-468C250,-468 196,-468 196,-468 190,-468 184,-462 184,-456 184,-456 184,-444 184,-444 184,-438 190,-432 196,-432 196,-432 250,-432 250,-432 256,-432 262,-438 262,-444 262,-444 262,-456 262,-456 262,-462 256,-468 250,-468"/>
<text text-anchor="middle" x="223" y="-447.5" font-family="sans" font-size="10.00">prob_escape</text>
</g>
<!-- 1&#45;&gt;8 -->
<g id="edge15" class="edge">
<title>1&#45;&gt;8</title>
<path fill="none" stroke="grey" stroke-width="2" d="M301.57,-647.96C296.57,-637.64 290.2,-624.16 285,-612 265.02,-565.28 244.29,-509.78 232.58,-477.65"/>
<polygon fill="grey" stroke="grey" stroke-width="2" points="235.81,-476.29 229.11,-468.09 229.23,-478.68 235.81,-476.29"/>
</g>
<!-- 10 -->
<g id="node11" class="node">
<title>10</title>
<path fill="none" stroke="#569ad8" stroke-width="2" d="M660,-612C660,-612 552,-612 552,-612 546,-612 540,-606 540,-600 540,-600 540,-588 540,-588 540,-582 546,-576 552,-576 552,-576 660,-576 660,-576 666,-576 672,-582 672,-588 672,-588 672,-600 672,-600 672,-606 666,-612 660,-612"/>
<text text-anchor="middle" x="606" y="-591.5" font-family="sans" font-size="10.00">analyze_variant_counts</text>
</g>
<!-- 1&#45;&gt;10 -->
<g id="edge19" class="edge">
<title>1&#45;&gt;10</title>
<path fill="none" stroke="grey" stroke-width="2" d="M354.63,-654.44C401.03,-643.47 474.49,-626.1 530.04,-612.96"/>
<polygon fill="grey" stroke="grey" stroke-width="2" points="530.91,-616.35 539.84,-610.65 529.3,-609.54 530.91,-616.35"/>
</g>
<!-- 12 -->
<g id="node13" class="node">
<title>12</title>
<path fill="none" stroke="#d85656" stroke-width="2" d="M642,-108C642,-108 588,-108 588,-108 582,-108 576,-102 576,-96 576,-96 576,-84 576,-84 576,-78 582,-72 588,-72 588,-72 642,-72 642,-72 648,-72 654,-78 654,-84 654,-84 654,-96 654,-96 654,-102 648,-108 642,-108"/>
<text text-anchor="middle" x="615" y="-87.5" font-family="sans" font-size="10.00">sphinx_build</text>
</g>
<!-- 1&#45;&gt;12 -->
<g id="edge30" class="edge">
<title>1&#45;&gt;12</title>
<path fill="none" stroke="grey" stroke-width="2" d="M307.33,-647.72C301.3,-609.01 285.99,-512.44 271,-432 256.03,-351.71 242.26,-333.25 234,-252 232.38,-236.08 229.82,-231.45 234,-216 243.67,-180.24 245.4,-164.88 276,-144 322.24,-112.44 483.33,-98.65 565.69,-93.55"/>
<polygon fill="grey" stroke="grey" stroke-width="2" points="566.04,-97.04 575.81,-92.95 565.62,-90.05 566.04,-97.04"/>
</g>
<!-- 17 -->
<g id="node18" class="node">
<title>17</title>
<path fill="none" stroke="#56d8b1" stroke-width="2" d="M579.5,-180C579.5,-180 532.5,-180 532.5,-180 526.5,-180 520.5,-174 520.5,-168 520.5,-168 520.5,-156 520.5,-156 520.5,-150 526.5,-144 532.5,-144 532.5,-144 579.5,-144 579.5,-144 585.5,-144 591.5,-150 591.5,-156 591.5,-156 591.5,-168 591.5,-168 591.5,-174 585.5,-180 579.5,-180"/>
<text text-anchor="middle" x="556" y="-159.5" font-family="sans" font-size="10.00">docs_index</text>
</g>
<!-- 1&#45;&gt;17 -->
<g id="edge50" class="edge">
<title>1&#45;&gt;17</title>
<path fill="none" stroke="grey" stroke-width="2" d="M317.42,-647.66C330.45,-617.71 358.85,-554.59 388,-504 416.93,-453.8 437.67,-449.03 461,-396 494.12,-320.71 464.19,-287.98 504,-216 509.89,-205.36 518.5,-195.36 527.03,-186.98"/>
<polygon fill="grey" stroke="grey" stroke-width="2" points="529.52,-189.44 534.43,-180.05 524.74,-184.33 529.52,-189.44"/>
</g>
<!-- 2 -->
<g id="node3" class="node">
<title>2</title>
<path fill="none" stroke="#d8cb56" stroke-width="2" d="M438.5,-756C438.5,-756 369.5,-756 369.5,-756 363.5,-756 357.5,-750 357.5,-744 357.5,-744 357.5,-732 357.5,-732 357.5,-726 363.5,-720 369.5,-720 369.5,-720 438.5,-720 438.5,-720 444.5,-720 450.5,-726 450.5,-732 450.5,-732 450.5,-744 450.5,-744 450.5,-750 444.5,-756 438.5,-756"/>
<text text-anchor="middle" x="404" y="-735.5" font-family="sans" font-size="10.00">count_barcodes</text>
</g>
<!-- 2&#45;&gt;1 -->
<g id="edge7" class="edge">
<title>2&#45;&gt;1</title>
<path fill="none" stroke="grey" stroke-width="2" d="M380.76,-719.7C368.81,-710.8 354.08,-699.82 341.15,-690.2"/>
<polygon fill="grey" stroke="grey" stroke-width="2" points="343.08,-687.27 332.97,-684.1 338.9,-692.88 343.08,-687.27"/>
</g>
<!-- 2&#45;&gt;10 -->
<g id="edge22" class="edge">
<title>2&#45;&gt;10</title>
<path fill="none" stroke="grey" stroke-width="2" d="M428.37,-719.87C464.61,-694.39 532.81,-646.45 573.34,-617.96"/>
<polygon fill="grey" stroke="grey" stroke-width="2" points="575.38,-620.8 581.55,-612.19 571.35,-615.08 575.38,-620.8"/>
</g>
<!-- 3 -->
<g id="node4" class="node">
<title>3</title>
<path fill="none" stroke="#ced856" stroke-width="2" d="M634,-828C634,-828 538,-828 538,-828 532,-828 526,-822 526,-816 526,-816 526,-804 526,-804 526,-798 532,-792 538,-792 538,-792 634,-792 634,-792 640,-792 646,-798 646,-804 646,-804 646,-816 646,-816 646,-822 640,-828 634,-828"/>
<text text-anchor="middle" x="586" y="-807.5" font-family="sans" font-size="10.00">build_codon_variants</text>
</g>
<!-- 3&#45;&gt;1 -->
<g id="edge5" class="edge">
<title>3&#45;&gt;1</title>
<path fill="none" stroke="grey" stroke-width="2" d="M525.96,-801.82C464.9,-793.45 375.61,-777.91 349,-756 330.15,-740.48 320.15,-714.05 315.01,-694.01"/>
<polygon fill="grey" stroke="grey" stroke-width="2" points="318.41,-693.17 312.75,-684.21 311.59,-694.74 318.41,-693.17"/>
</g>
<!-- 3&#45;&gt;2 -->
<g id="edge8" class="edge">
<title>3&#45;&gt;2</title>
<path fill="none" stroke="grey" stroke-width="2" d="M541.48,-791.88C516.27,-782.18 484.55,-769.98 457.93,-759.74"/>
<polygon fill="grey" stroke="grey" stroke-width="2" points="458.97,-756.39 448.38,-756.07 456.45,-762.92 458.97,-756.39"/>
</g>
<!-- 3&#45;&gt;8 -->
<g id="edge14" class="edge">
<title>3&#45;&gt;8</title>
<path fill="none" stroke="grey" stroke-width="2" d="M525.93,-806.27C469.95,-801.65 385.51,-789.24 320,-756 267.82,-729.53 223,-725.51 223,-667 223,-667 223,-667 223,-593 223,-553 223,-506.65 223,-478.08"/>
<polygon fill="grey" stroke="grey" stroke-width="2" points="226.5,-478.05 223,-468.05 219.5,-478.05 226.5,-478.05"/>
</g>
<!-- 3&#45;&gt;10 -->
<g id="edge20" class="edge">
<title>3&#45;&gt;10</title>
<path fill="none" stroke="grey" stroke-width="2" d="M587.6,-791.85C591.06,-754.83 599.25,-667.18 603.44,-622.39"/>
<polygon fill="grey" stroke="grey" stroke-width="2" points="606.94,-622.51 604.39,-612.23 599.97,-621.86 606.94,-622.51"/>
</g>
<!-- 3&#45;&gt;12 -->
<g id="edge24" class="edge">
<title>3&#45;&gt;12</title>
<path fill="none" stroke="grey" stroke-width="2" d="M646.16,-799.6C716.08,-784.87 822,-749.01 822,-667 822,-667 822,-667 822,-521 822,-424.07 864,-403.93 864,-307 864,-307 864,-307 864,-233 864,-142.05 737.09,-108.59 664.48,-96.88"/>
<polygon fill="grey" stroke="grey" stroke-width="2" points="664.59,-93.36 654.18,-95.31 663.54,-100.28 664.59,-93.36"/>
</g>
<!-- 15 -->
<g id="node16" class="node">
<title>15</title>
<path fill="none" stroke="#b6d856" stroke-width="2" d="M735.5,-324C735.5,-324 680.5,-324 680.5,-324 674.5,-324 668.5,-318 668.5,-312 668.5,-312 668.5,-300 668.5,-300 668.5,-294 674.5,-288 680.5,-288 680.5,-288 735.5,-288 735.5,-288 741.5,-288 747.5,-294 747.5,-300 747.5,-300 747.5,-312 747.5,-312 747.5,-318 741.5,-324 735.5,-324"/>
<text text-anchor="middle" x="708" y="-303.5" font-family="sans" font-size="10.00">make_nblink</text>
</g>
<!-- 3&#45;&gt;15 -->
<g id="edge39" class="edge">
<title>3&#45;&gt;15</title>
<path fill="none" stroke="grey" stroke-width="2" d="M604.26,-791.76C638.3,-757.67 708,-677.75 708,-595 708,-595 708,-595 708,-449 708,-409 708,-362.65 708,-334.08"/>
<polygon fill="grey" stroke="grey" stroke-width="2" points="711.5,-334.05 708,-324.05 704.5,-334.05 711.5,-334.05"/>
</g>
<!-- 3&#45;&gt;17 -->
<g id="edge45" class="edge">
<title>3&#45;&gt;17</title>
<path fill="none" stroke="grey" stroke-width="2" d="M570.66,-791.74C535.87,-751.31 451.72,-645.85 422,-540 399.48,-459.79 518,-462.31 518,-379 518,-379 518,-379 518,-305 518,-263.63 533.23,-217.72 544.41,-189.61"/>
<polygon fill="grey" stroke="grey" stroke-width="2" points="547.76,-190.67 548.31,-180.09 541.28,-188.02 547.76,-190.67"/>
</g>
<!-- 4 -->
<g id="node5" class="node">
<title>4</title>
<path fill="none" stroke="#56d8c9" stroke-width="2" d="M924,-900C924,-900 814,-900 814,-900 808,-900 802,-894 802,-888 802,-888 802,-876 802,-876 802,-870 808,-864 814,-864 814,-864 924,-864 924,-864 930,-864 936,-870 936,-876 936,-876 936,-888 936,-888 936,-894 930,-900 924,-900"/>
<text text-anchor="middle" x="869" y="-879.5" font-family="sans" font-size="10.00">build_pacbio_consensus</text>
</g>
<!-- 4&#45;&gt;3 -->
<g id="edge10" class="edge">
<title>4&#45;&gt;3</title>
<path fill="none" stroke="grey" stroke-width="2" d="M801.93,-864.41C758.02,-853.55 700.73,-839.38 656.2,-828.36"/>
<polygon fill="grey" stroke="grey" stroke-width="2" points="656.87,-824.92 646.32,-825.92 655.19,-831.72 656.87,-824.92"/>
</g>
<!-- 4&#45;&gt;12 -->
<g id="edge36" class="edge">
<title>4&#45;&gt;12</title>
<path fill="none" stroke="grey" stroke-width="2" d="M883.21,-863.86C902.88,-838.34 936,-788.07 936,-739 936,-739 936,-739 936,-521 936,-425.87 940,-402.13 940,-307 940,-307 940,-307 940,-233 940,-114.13 755.16,-93.79 664.28,-90.97"/>
<polygon fill="grey" stroke="grey" stroke-width="2" points="664.29,-87.47 654.2,-90.72 664.11,-94.47 664.29,-87.47"/>
</g>
<!-- 4&#45;&gt;15 -->
<g id="edge44" class="edge">
<title>4&#45;&gt;15</title>
<path fill="none" stroke="grey" stroke-width="2" d="M874.87,-863.74C883.34,-837.25 898,-784.79 898,-739 898,-739 898,-739 898,-521 898,-480.03 896.94,-465.94 874,-432 842.95,-386.07 789.36,-350.24 751.48,-328.93"/>
<polygon fill="grey" stroke="grey" stroke-width="2" points="753.14,-325.85 742.69,-324.09 749.76,-331.98 753.14,-325.85"/>
</g>
<!-- 4&#45;&gt;17 -->
<g id="edge56" class="edge">
<title>4&#45;&gt;17</title>
<path fill="none" stroke="grey" stroke-width="2" d="M867.22,-863.97C864.6,-837.34 860,-784.21 860,-739 860,-739 860,-739 860,-521 860,-396.23 732.58,-425.49 660,-324 629.01,-280.67 638.62,-259.6 608,-216 600.84,-205.8 591.67,-195.75 583.03,-187.18"/>
<polygon fill="grey" stroke="grey" stroke-width="2" points="585.27,-184.48 575.64,-180.07 580.42,-189.53 585.27,-184.48"/>
</g>
<!-- 5 -->
<g id="node6" class="node">
<title>5</title>
<path fill="none" stroke="#d88556" stroke-width="2" d="M1075.5,-972C1075.5,-972 986.5,-972 986.5,-972 980.5,-972 974.5,-966 974.5,-960 974.5,-960 974.5,-948 974.5,-948 974.5,-942 980.5,-936 986.5,-936 986.5,-936 1075.5,-936 1075.5,-936 1081.5,-936 1087.5,-942 1087.5,-948 1087.5,-948 1087.5,-960 1087.5,-960 1087.5,-966 1081.5,-972 1075.5,-972"/>
<text text-anchor="middle" x="1031" y="-951.5" font-family="sans" font-size="10.00">analyze_pacbio_ccs</text>
</g>
<!-- 5&#45;&gt;4 -->
<g id="edge11" class="edge">
<title>5&#45;&gt;4</title>
<path fill="none" stroke="grey" stroke-width="2" d="M991.37,-935.88C969.22,-926.31 941.44,-914.3 917.94,-904.15"/>
<polygon fill="grey" stroke="grey" stroke-width="2" points="919.07,-900.82 908.5,-900.07 916.29,-907.25 919.07,-900.82"/>
</g>
<!-- 5&#45;&gt;12 -->
<g id="edge25" class="edge">
<title>5&#45;&gt;12</title>
<path fill="none" stroke="grey" stroke-width="2" d="M1042.81,-935.96C1059.51,-910.16 1088,-859.08 1088,-811 1088,-811 1088,-811 1088,-233 1088,-167.31 1030.57,-169.41 970,-144 867.38,-100.95 735.18,-92.17 664.61,-90.8"/>
<polygon fill="grey" stroke="grey" stroke-width="2" points="664.29,-87.29 654.24,-90.64 664.18,-94.29 664.29,-87.29"/>
</g>
<!-- 5&#45;&gt;15 -->
<g id="edge40" class="edge">
<title>5&#45;&gt;15</title>
<path fill="none" stroke="grey" stroke-width="2" d="M1034.84,-935.61C1040.4,-908.94 1050,-856.27 1050,-811 1050,-811 1050,-811 1050,-665 1050,-499.41 969.78,-457.59 836,-360 812.41,-342.79 782.42,-329.99 757.39,-321.28"/>
<polygon fill="grey" stroke="grey" stroke-width="2" points="758.31,-317.9 747.71,-318.03 756.08,-324.53 758.31,-317.9"/>
</g>
<!-- 5&#45;&gt;17 -->
<g id="edge46" class="edge">
<title>5&#45;&gt;17</title>
<path fill="none" stroke="grey" stroke-width="2" d="M1027.16,-935.61C1021.6,-908.94 1012,-856.27 1012,-811 1012,-811 1012,-811 1012,-665 1012,-438.09 957.25,-342.68 769,-216 718.4,-181.95 647.83,-169.76 602.02,-165.41"/>
<polygon fill="grey" stroke="grey" stroke-width="2" points="602.06,-161.9 591.79,-164.52 601.46,-168.87 602.06,-161.9"/>
</g>
<!-- 6 -->
<g id="node7" class="node">
<title>6</title>
<path fill="none" stroke="#56d89a" stroke-width="2" d="M1084.5,-1044C1084.5,-1044 977.5,-1044 977.5,-1044 971.5,-1044 965.5,-1038 965.5,-1032 965.5,-1032 965.5,-1020 965.5,-1020 965.5,-1014 971.5,-1008 977.5,-1008 977.5,-1008 1084.5,-1008 1084.5,-1008 1090.5,-1008 1096.5,-1014 1096.5,-1020 1096.5,-1020 1096.5,-1032 1096.5,-1032 1096.5,-1038 1090.5,-1044 1084.5,-1044"/>
<text text-anchor="middle" x="1031" y="-1023.5" font-family="sans" font-size="10.00">align_parse_PacBio_ccs</text>
</g>
<!-- 6&#45;&gt;5 -->
<g id="edge13" class="edge">
<title>6&#45;&gt;5</title>
<path fill="none" stroke="grey" stroke-width="2" d="M1031,-1007.7C1031,-999.98 1031,-990.71 1031,-982.11"/>
<polygon fill="grey" stroke="grey" stroke-width="2" points="1034.5,-982.1 1031,-972.1 1027.5,-982.1 1034.5,-982.1"/>
</g>
<!-- 7 -->
<g id="node8" class="node">
<title>7</title>
<path fill="none" stroke="#d8b456" stroke-width="2" d="M708,-972C708,-972 640,-972 640,-972 634,-972 628,-966 628,-960 628,-960 628,-948 628,-948 628,-942 634,-936 640,-936 640,-936 708,-936 708,-936 714,-936 720,-942 720,-948 720,-948 720,-960 720,-960 720,-966 714,-972 708,-972"/>
<text text-anchor="middle" x="674" y="-951.5" font-family="sans" font-size="10.00">gene_sequence</text>
</g>
<!-- 7&#45;&gt;1 -->
<g id="edge6" class="edge">
<title>7&#45;&gt;1</title>
<path fill="none" stroke="grey" stroke-width="2" d="M627.85,-941.98C549.85,-920.71 393.28,-866.06 320,-756 307.99,-737.96 306.09,-713.17 306.86,-694.34"/>
<polygon fill="grey" stroke="grey" stroke-width="2" points="310.35,-694.51 307.53,-684.3 303.37,-694.04 310.35,-694.51"/>
</g>
<!-- 7&#45;&gt;3 -->
<g id="edge9" class="edge">
<title>7&#45;&gt;3</title>
<path fill="none" stroke="grey" stroke-width="2" d="M663.39,-935.87C648.12,-911.24 619.86,-865.64 602.04,-836.88"/>
<polygon fill="grey" stroke="grey" stroke-width="2" points="604.9,-834.85 596.65,-828.19 598.95,-838.53 604.9,-834.85"/>
</g>
<!-- 7&#45;&gt;4 -->
<g id="edge12" class="edge">
<title>7&#45;&gt;4</title>
<path fill="none" stroke="grey" stroke-width="2" d="M720.21,-936.41C747.63,-926.57 782.62,-914.01 811.78,-903.54"/>
<polygon fill="grey" stroke="grey" stroke-width="2" points="813.19,-906.75 821.42,-900.08 810.83,-900.16 813.19,-906.75"/>
</g>
<!-- 7&#45;&gt;8 -->
<g id="edge17" class="edge">
<title>7&#45;&gt;8</title>
<path fill="none" stroke="grey" stroke-width="2" d="M628,-949.52C506.27,-939.04 185,-902.72 185,-811 185,-811 185,-811 185,-593 185,-551.63 200.23,-505.72 211.41,-477.61"/>
<polygon fill="grey" stroke="grey" stroke-width="2" points="214.76,-478.67 215.31,-468.09 208.28,-476.02 214.76,-478.67"/>
</g>
<!-- 7&#45;&gt;10 -->
<g id="edge21" class="edge">
<title>7&#45;&gt;10</title>
<path fill="none" stroke="grey" stroke-width="2" d="M672.7,-935.97C670.3,-906.48 664.51,-844.05 655,-792 643.77,-730.52 624.59,-659.69 613.86,-621.96"/>
<polygon fill="grey" stroke="grey" stroke-width="2" points="617.19,-620.88 611.07,-612.23 610.46,-622.81 617.19,-620.88"/>
</g>
<!-- 7&#45;&gt;12 -->
<g id="edge32" class="edge">
<title>7&#45;&gt;12</title>
<path fill="none" stroke="grey" stroke-width="2" d="M720.09,-949.57C788.46,-943.58 912.24,-928.99 945,-900 976.15,-872.43 974,-852.6 974,-811 974,-811 974,-811 974,-593 974,-464.53 1016,-435.47 1016,-307 1016,-307 1016,-307 1016,-233 1016,-175.14 972.79,-169.8 921,-144 837.57,-102.44 727.28,-92.84 664.45,-90.99"/>
<polygon fill="grey" stroke="grey" stroke-width="2" points="664.49,-87.49 654.41,-90.75 664.32,-94.49 664.49,-87.49"/>
</g>
<!-- 7&#45;&gt;17 -->
<g id="edge52" class="edge">
<title>7&#45;&gt;17</title>
<path fill="none" stroke="grey" stroke-width="2" d="M681.43,-935.97C699.83,-892.22 746,-771.96 746,-667 746,-667 746,-667 746,-521 746,-420.72 682.77,-412.71 636,-324 611.2,-276.96 583.98,-221.22 568.54,-189.2"/>
<polygon fill="grey" stroke="grey" stroke-width="2" points="571.63,-187.55 564.14,-180.06 565.32,-190.59 571.63,-187.55"/>
</g>
<!-- 8&#45;&gt;0 -->
<g id="edge4" class="edge">
<title>8&#45;&gt;0</title>
<path fill="none" stroke="grey" stroke-width="2" d="M183.77,-438.16C129.46,-420.47 38,-379.88 38,-307 38,-307 38,-307 38,-161 38,-120.86 45.55,-74.9 51.13,-46.4"/>
<polygon fill="grey" stroke="grey" stroke-width="2" points="54.61,-46.88 53.16,-36.39 47.74,-45.5 54.61,-46.88"/>
</g>
<!-- 11 -->
<g id="node12" class="node">
<title>11</title>
<path fill="none" stroke="#9fd856" stroke-width="2" d="M224,-396C224,-396 166,-396 166,-396 160,-396 154,-390 154,-384 154,-384 154,-372 154,-372 154,-366 160,-360 166,-360 166,-360 224,-360 224,-360 230,-360 236,-366 236,-372 236,-372 236,-384 236,-384 236,-390 230,-396 224,-396"/>
<text text-anchor="middle" x="195" y="-375.5" font-family="sans" font-size="10.00">fit_polyclonal</text>
</g>
<!-- 8&#45;&gt;11 -->
<g id="edge23" class="edge">
<title>8&#45;&gt;11</title>
<path fill="none" stroke="grey" stroke-width="2" d="M216.08,-431.7C212.93,-423.81 209.12,-414.3 205.62,-405.55"/>
<polygon fill="grey" stroke="grey" stroke-width="2" points="208.81,-404.09 201.84,-396.1 202.31,-406.69 208.81,-404.09"/>
</g>
<!-- 8&#45;&gt;12 -->
<g id="edge33" class="edge">
<title>8&#45;&gt;12</title>
<path fill="none" stroke="grey" stroke-width="2" d="M188.12,-431.84C173.07,-422.94 156.36,-410.81 145,-396 119.5,-362.77 114,-348.89 114,-307 114,-307 114,-307 114,-233 114,-189.99 117.52,-169.71 152,-144 216.5,-95.91 460.21,-90.55 565.76,-90.56"/>
<polygon fill="grey" stroke="grey" stroke-width="2" points="565.83,-94.06 575.84,-90.57 565.84,-87.06 565.83,-94.06"/>
</g>
<!-- 13 -->
<g id="node14" class="node">
<title>13</title>
<path fill="none" stroke="#566bd8" stroke-width="2" d="M440,-396C440,-396 342,-396 342,-396 336,-396 330,-390 330,-384 330,-384 330,-372 330,-372 330,-366 336,-360 342,-360 342,-360 440,-360 440,-360 446,-360 452,-366 452,-372 452,-372 452,-384 452,-384 452,-390 446,-396 440,-396"/>
<text text-anchor="middle" x="391" y="-375.5" font-family="sans" font-size="10.00">analyze_prob_escape</text>
</g>
<!-- 8&#45;&gt;13 -->
<g id="edge37" class="edge">
<title>8&#45;&gt;13</title>
<path fill="none" stroke="grey" stroke-width="2" d="M262.39,-432.59C285.78,-422.84 315.67,-410.39 340.75,-399.94"/>
<polygon fill="grey" stroke="grey" stroke-width="2" points="342.22,-403.12 350.1,-396.04 339.53,-396.66 342.22,-403.12"/>
</g>
<!-- 8&#45;&gt;17 -->
<g id="edge53" class="edge">
<title>8&#45;&gt;17</title>
<path fill="none" stroke="grey" stroke-width="2" d="M234.86,-431.85C264.55,-390 346.26,-281.26 437,-216 459.41,-199.88 487.51,-187.09 510.77,-178.11"/>
<polygon fill="grey" stroke="grey" stroke-width="2" points="512.27,-181.28 520.41,-174.49 509.82,-174.73 512.27,-181.28"/>
</g>
<!-- 9 -->
<g id="node10" class="node">
<title>9</title>
<path fill="none" stroke="#d89c56" stroke-width="2" d="M591.5,-540C591.5,-540 442.5,-540 442.5,-540 436.5,-540 430.5,-534 430.5,-528 430.5,-528 430.5,-516 430.5,-516 430.5,-510 436.5,-504 442.5,-504 442.5,-504 591.5,-504 591.5,-504 597.5,-504 603.5,-510 603.5,-516 603.5,-516 603.5,-528 603.5,-528 603.5,-534 597.5,-540 591.5,-540"/>
<text text-anchor="middle" x="517" y="-519.5" font-family="sans" font-size="10.00">check_adequate_variant_counts</text>
</g>
<!-- 9&#45;&gt;8 -->
<g id="edge16" class="edge">
<title>9&#45;&gt;8</title>
<path fill="none" stroke="grey" stroke-width="2" d="M445.46,-503.97C391.77,-491.18 319.67,-474.02 272.31,-462.74"/>
<polygon fill="grey" stroke="grey" stroke-width="2" points="272.83,-459.27 262.29,-460.36 271.21,-466.08 272.83,-459.27"/>
</g>
<!-- 10&#45;&gt;9 -->
<g id="edge18" class="edge">
<title>10&#45;&gt;9</title>
<path fill="none" stroke="grey" stroke-width="2" d="M584,-575.7C572.79,-566.88 559,-556.03 546.85,-546.47"/>
<polygon fill="grey" stroke="grey" stroke-width="2" points="548.77,-543.54 538.75,-540.1 544.44,-549.04 548.77,-543.54"/>
</g>
<!-- 10&#45;&gt;12 -->
<g id="edge31" class="edge">
<title>10&#45;&gt;12</title>
<path fill="none" stroke="grey" stroke-width="2" d="M629.11,-575.78C640.73,-566.23 654.35,-553.56 664,-540 744.5,-426.88 759.4,-388.46 785,-252 794.62,-200.72 778.8,-177.73 739,-144 717.24,-125.56 688.11,-112.67 663.55,-104.22"/>
<polygon fill="grey" stroke="grey" stroke-width="2" points="664.63,-100.89 654.04,-101.09 662.44,-107.54 664.63,-100.89"/>
</g>
<!-- 10&#45;&gt;15 -->
<g id="edge42" class="edge">
<title>10&#45;&gt;15</title>
<path fill="none" stroke="grey" stroke-width="2" d="M621.55,-575.98C629.85,-566.1 639.64,-553.06 646,-540 646.58,-538.81 684.78,-394.68 700.92,-333.73"/>
<polygon fill="grey" stroke="grey" stroke-width="2" points="704.31,-334.59 703.49,-324.03 697.55,-332.8 704.31,-334.59"/>
</g>
<!-- 10&#45;&gt;17 -->
<g id="edge51" class="edge">
<title>10&#45;&gt;17</title>
<path fill="none" stroke="grey" stroke-width="2" d="M609.64,-575.86C612.92,-557.88 616.71,-528.83 613,-504 605.59,-454.36 589.95,-445.19 580,-396 565.13,-322.51 559.23,-234.02 557.09,-190.25"/>
<polygon fill="grey" stroke="grey" stroke-width="2" points="560.58,-189.96 556.63,-180.13 553.59,-190.28 560.58,-189.96"/>
</g>
<!-- 11&#45;&gt;0 -->
<g id="edge1" class="edge">
<title>11&#45;&gt;0</title>
<path fill="none" stroke="grey" stroke-width="2" d="M166.19,-359.85C130.98,-336.45 76,-290.97 76,-235 76,-235 76,-235 76,-161 76,-120.86 68.45,-74.9 62.87,-46.4"/>
<polygon fill="grey" stroke="grey" stroke-width="2" points="66.26,-45.5 60.84,-36.39 59.39,-46.88 66.26,-45.5"/>
</g>
<!-- 11&#45;&gt;12 -->
<g id="edge29" class="edge">
<title>11&#45;&gt;12</title>
<path fill="none" stroke="grey" stroke-width="2" d="M186.17,-359.73C165.75,-317.13 121.08,-205.95 176,-144 201.53,-115.2 456.43,-99 565.7,-93.33"/>
<polygon fill="grey" stroke="grey" stroke-width="2" points="565.99,-96.82 575.8,-92.81 565.64,-89.83 565.99,-96.82"/>
</g>
<!-- 11&#45;&gt;15 -->
<g id="edge41" class="edge">
<title>11&#45;&gt;15</title>
<path fill="none" stroke="grey" stroke-width="2" d="M236.11,-371.39C329.55,-358.64 557.58,-327.53 658.52,-313.75"/>
<polygon fill="grey" stroke="grey" stroke-width="2" points="659.03,-317.22 668.46,-312.4 658.08,-310.28 659.03,-317.22"/>
</g>
<!-- 11&#45;&gt;17 -->
<g id="edge49" class="edge">
<title>11&#45;&gt;17</title>
<path fill="none" stroke="grey" stroke-width="2" d="M216.2,-359.67C245.61,-335.59 300.46,-290.62 347,-252 366.18,-236.08 368.16,-228.02 390,-216 428.24,-194.96 476.09,-180.8 510.58,-172.45"/>
<polygon fill="grey" stroke="grey" stroke-width="2" points="511.45,-175.84 520.39,-170.15 509.85,-169.03 511.45,-175.84"/>
</g>
<!-- 12&#45;&gt;0 -->
<g id="edge3" class="edge">
<title>12&#45;&gt;0</title>
<path fill="none" stroke="grey" stroke-width="2" d="M575.76,-84.08C472.62,-71.14 194.89,-36.3 94.15,-23.66"/>
<polygon fill="grey" stroke="grey" stroke-width="2" points="94.49,-20.18 84.13,-22.4 93.62,-27.12 94.49,-20.18"/>
</g>
<!-- 13&#45;&gt;12 -->
<g id="edge35" class="edge">
<title>13&#45;&gt;12</title>
<path fill="none" stroke="grey" stroke-width="2" d="M354.68,-359.87C300.55,-331.91 208.98,-273.8 247,-216 316.7,-110.05 482.43,-92.29 565.6,-90.34"/>
<polygon fill="grey" stroke="grey" stroke-width="2" points="565.87,-93.84 575.81,-90.17 565.75,-86.84 565.87,-93.84"/>
</g>
<!-- 13&#45;&gt;15 -->
<g id="edge43" class="edge">
<title>13&#45;&gt;15</title>
<path fill="none" stroke="grey" stroke-width="2" d="M452.12,-363.5C512.08,-350.26 602.39,-330.32 658.14,-318.01"/>
<polygon fill="grey" stroke="grey" stroke-width="2" points="659.12,-321.38 668.13,-315.8 657.61,-314.54 659.12,-321.38"/>
</g>
<!-- 13&#45;&gt;17 -->
<g id="edge55" class="edge">
<title>13&#45;&gt;17</title>
<path fill="none" stroke="grey" stroke-width="2" d="M395.32,-359.81C404.03,-328.12 426.3,-259.72 466,-216 478.43,-202.31 495.24,-191.12 510.97,-182.6"/>
<polygon fill="grey" stroke="grey" stroke-width="2" points="512.79,-185.6 520.06,-177.9 509.57,-179.38 512.79,-185.6"/>
</g>
<!-- 14 -->
<g id="node15" class="node">
<title>14</title>
<path fill="none" stroke="#56d882" stroke-width="2" d="M747.5,-252C747.5,-252 710.5,-252 710.5,-252 704.5,-252 698.5,-246 698.5,-240 698.5,-240 698.5,-228 698.5,-228 698.5,-222 704.5,-216 710.5,-216 710.5,-216 747.5,-216 747.5,-216 753.5,-216 759.5,-222 759.5,-228 759.5,-228 759.5,-240 759.5,-240 759.5,-246 753.5,-252 747.5,-252"/>
<text text-anchor="middle" x="729" y="-231.5" font-family="sans" font-size="10.00">subindex</text>
</g>
<!-- 14&#45;&gt;12 -->
<g id="edge28" class="edge">
<title>14&#45;&gt;12</title>
<path fill="none" stroke="grey" stroke-width="2" d="M715.25,-215.87C695.31,-191.03 658.23,-144.85 635.18,-116.14"/>
<polygon fill="grey" stroke="grey" stroke-width="2" points="637.79,-113.8 628.8,-108.19 632.33,-118.18 637.79,-113.8"/>
</g>
<!-- 14&#45;&gt;17 -->
<g id="edge48" class="edge">
<title>14&#45;&gt;17</title>
<path fill="none" stroke="grey" stroke-width="2" d="M698.47,-220.65C671.51,-209.74 631.84,-193.69 601.2,-181.29"/>
<polygon fill="grey" stroke="grey" stroke-width="2" points="602.18,-177.91 591.6,-177.4 599.56,-184.4 602.18,-177.91"/>
</g>
<!-- 15&#45;&gt;12 -->
<g id="edge27" class="edge">
<title>15&#45;&gt;12</title>
<path fill="none" stroke="grey" stroke-width="2" d="M737.04,-287.84C749.32,-278.87 762.31,-266.68 769,-252 775.64,-237.44 775.64,-230.56 769,-216 747.45,-168.78 697.89,-133.83 660.78,-113.07"/>
<polygon fill="grey" stroke="grey" stroke-width="2" points="662.09,-109.81 651.63,-108.1 658.75,-115.96 662.09,-109.81"/>
</g>
<!-- 15&#45;&gt;14 -->
<g id="edge38" class="edge">
<title>15&#45;&gt;14</title>
<path fill="none" stroke="grey" stroke-width="2" d="M713.19,-287.7C715.53,-279.9 718.35,-270.51 720.95,-261.83"/>
<polygon fill="grey" stroke="grey" stroke-width="2" points="724.35,-262.69 723.87,-252.1 717.64,-260.68 724.35,-262.69"/>
</g>
<!-- 15&#45;&gt;17 -->
<g id="edge47" class="edge">
<title>15&#45;&gt;17</title>
<path fill="none" stroke="grey" stroke-width="2" d="M699.09,-287.96C688.42,-268.74 669.07,-237.37 646,-216 632.66,-203.64 615.95,-192.83 600.57,-184.25"/>
<polygon fill="grey" stroke="grey" stroke-width="2" points="602.16,-181.13 591.7,-179.46 598.84,-187.29 602.16,-181.13"/>
</g>
<!-- 16 -->
<g id="node17" class="node">
<title>16</title>
<path fill="none" stroke="#5682d8" stroke-width="2" d="M326,-252C326,-252 268,-252 268,-252 262,-252 256,-246 256,-240 256,-240 256,-228 256,-228 256,-222 262,-216 268,-216 268,-216 326,-216 326,-216 332,-216 338,-222 338,-228 338,-228 338,-240 338,-240 338,-246 332,-252 326,-252"/>
<text text-anchor="middle" x="297" y="-231.5" font-family="sans" font-size="10.00">make_graphs</text>
</g>
<!-- 16&#45;&gt;12 -->
<g id="edge34" class="edge">
<title>16&#45;&gt;12</title>
<path fill="none" stroke="grey" stroke-width="2" d="M335.36,-215.87C393.49,-189.91 503.83,-140.64 567.14,-112.37"/>
<polygon fill="grey" stroke="grey" stroke-width="2" points="568.8,-115.46 576.51,-108.19 565.95,-109.07 568.8,-115.46"/>
</g>
<!-- 16&#45;&gt;17 -->
<g id="edge54" class="edge">
<title>16&#45;&gt;17</title>
<path fill="none" stroke="grey" stroke-width="2" d="M338.08,-220.08C342.77,-218.67 347.48,-217.28 352,-216 406.3,-200.56 469.25,-184.48 510.69,-174.14"/>
<polygon fill="grey" stroke="grey" stroke-width="2" points="511.63,-177.52 520.49,-171.7 509.94,-170.72 511.63,-177.52"/>
</g>
<!-- 17&#45;&gt;12 -->
<g id="edge26" class="edge">
<title>17&#45;&gt;12</title>
<path fill="none" stroke="grey" stroke-width="2" d="M570.58,-143.7C577.66,-135.3 586.28,-125.07 594.05,-115.86"/>
<polygon fill="grey" stroke="grey" stroke-width="2" points="596.81,-118.01 600.58,-108.1 591.46,-113.49 596.81,-118.01"/>
</g>
</g>
</svg>
